<?xml version="1.0" standalone="no"?>
<!DOCTYPE svg PUBLIC "-//W3C//DTD SVG 1.1//EN" "http://www.w3.org/Graphics/SVG/1.1/DTD/svg11.dtd" >
<svg xmlns="http://www.w3.org/2000/svg" xmlns:xlink="http://www.w3.org/1999/xlink" version="1.1">
<metadata>
Created by FontForge 20161013 at Sat Oct 24 22:56:57 2015
 By ,,,
Copyright (c) 2015 by Ramandhani Nugraha celciusdesigns. All rights reserved.
</metadata>
<defs>
<font id="CelestialTypeface" horiz-adv-x="337" >
  <font-face 
    font-family="Celestial Typeface"
    font-weight="400"
    font-stretch="normal"
    units-per-em="1000"
    panose-1="4 0 5 7 2 0 0 2 0 3"
    ascent="800"
    descent="-200"
    x-height="502"
    cap-height="894"
    bbox="-776.143 -1036 2209 1515"
    underline-thickness="50"
    underline-position="-150"
    unicode-range="U+000D-FB06"
  />
<missing-glyph horiz-adv-x="200" 
 />
    <glyph glyph-name="AE" unicode="AE" horiz-adv-x="1118" 
d="M1110 -75q5 -14 -4.5 -27.5t-25.5 -13.5h-120h-314h-116h-60q23 5 35 11.5t18 18.5q4 5 4.5 10.5t0.5 13.5v383h-278q-4 -17 -7.5 -33t-7.5 -32l-32 -161q-30 -148 -114.5 -268t-212.5 -198q-10 -6 -17.5 -19.5t-9.5 -27.5l-85 159q20 -7 33.5 -3.5t24.5 11.5
q100 63 165.5 158.5t88.5 213.5l31 164q25 103 49 184t49 143.5t50.5 107.5t54.5 76q26 28 52.5 45t54 26.5t55.5 13t56 4.5h424h118q17 0 26.5 -12.5t4.5 -28.5l-124 -320q-3 -10 -5 -19t-1 -17t6.5 -14.5t16.5 -10.5q2 0 2 3q-9 9 -11 17t1 14.5t9.5 10.5t14.5 4
q19 0 29 -11t10.5 -25t-8 -28.5t-25.5 -20.5q-24 -9 -47.5 -3.5t-41 20.5t-26.5 37t-3 47l48 224h-287v-303h75q28 0 53 10.5t45 29.5v-205l-8 5q-19 15 -40.5 23.5t-46.5 8.5h-78v-302h297l-47 224q-6 24 2.5 46t26 37t40.5 20.5t46 -3.5q17 -6 26 -20t8.5 -29t-10.5 -26
t-29 -11q-8 0 -15 4t-10 11t-0.5 16t11.5 18h-3q-22 -8 -22.5 -24t7.5 -37zM528 449v305q-43 -1 -69.5 -10t-52.5 -35q-31 -35 -60.5 -98t-58.5 -162h241z" />
    <glyph glyph-name="ae" unicode="ae" horiz-adv-x="643" 
d="M637 0h-295h-52h-2h-41q16 5 24 14t12 18q4 11 5 22v156h-82l-47 -149q-5 -16 1.5 -30.5t21.5 -20.5q8 -4 14 -6.5t6 -4.5h-196q0 2 5 4t12 5q16 7 28 20t17 30l133 416q6 21 -14 33h395v-81v-28q-4 7 -11 12q-6 5 -15 9t-22 4h-152v-156h32q12 0 19 10l6 6v-93l-7 9
q-4 8 -17 8h-33v-122h140l-34 116q-5 20 2.5 38.5t22.5 31.5t34 17.5t39 -2.5q15 -6 22 -18t7 -24t-8.5 -21.5t-24.5 -9.5q-14 0 -20.5 12t9.5 28q0 3 -2 1q-19 -8 -19.5 -20.5t5.5 -29.5zM288 266v161h-12l-52 -161h64z" />
    <glyph glyph-name="oe" unicode="oe" horiz-adv-x="596" 
d="M590 -2h-294h-1h-52h-1h-63h-19q-32 0 -60 12t-49 33t-33 49.5t-12 60.5v196q0 32 12 60t33 49t49 33.5t60 12.5h19q8 0 18 -2h338v-79v-27q-5 6 -12 11q-6 5 -15 8.5t-22 3.5h-151v-155h32q12 0 19 9l7 8v-93l-8 8q-5 9 -17 9h-33v-122h140l-34 115q-5 20 2.5 38.5
t22 31.5t33.5 17.5t39 -2.5q15 -6 22.5 -18t7.5 -24t-8.5 -21.5t-24.5 -9.5q-14 0 -20.5 12.5t8.5 27.5q0 2 -2 1q-19 -8 -19.5 -21t6.5 -30zM169 96q26 0 45.5 15t27.5 38v136q-11 -11 -24 -17t-32 -4q-15 2 -25.5 11.5t-13.5 21.5t2 22.5t21 15.5q13 4 23 -6.5t-1 -28.5
q0 -4 3 -2q4 3 10 9t12 15t10 19.5t4 22.5q0 2 -2 9t-8.5 14.5t-18.5 13t-33 5.5q-31 0 -53 -22t-22 -54v-159q0 -31 22 -53t53 -22z" />
    <glyph glyph-name="ve" unicode="ve" horiz-adv-x="631" 
d="M625 0h-79.5h-83.5t-108.5 -0.5t-153.5 -0.5q8 5 10 13t0 17l-141 409q-7 23 -23.5 39.5t-39.5 26.5h198q-6 -1 -11 -4q-5 -2 -10.5 -5.5t-11.5 -7.5q-11 -6 -15 -18t0 -23l123 -351v338q0 25 -9.5 45t-31.5 26h332v-80v-28q-4 7 -11 12q-6 5 -15 9t-21 4h-151v-159h32
q9 0 20 9l5 8v-93l-8 8q-5 9 -16 9h-33v-122h139l-33 114q-5 21 2.5 39.5t22 31t33.5 17t39 -2.5q15 -5 22 -17t7 -24t-8.5 -21.5t-25.5 -9.5q-14 0 -19.5 12.5t9.5 26.5q-1 3 -2 2q-19 -8 -19.5 -21t5.5 -31z" />
    <glyph glyph-name="ze" unicode="ze" horiz-adv-x="614" 
d="M481 324q46 -1 84 -20.5t64.5 -52t41 -74t14.5 -87.5q0 -80 -26 -140.5t-68 -101.5t-95 -62t-107 -21q-48 0 -89 13t-76 35t-62.5 50.5t-48.5 59.5q-15 21 -31.5 27.5t-47.5 7.5h-75l247 456h-126q-20 0 -32 -13l-24 -24v126h553v-85v-27q-5 7 -11 12t-14.5 8.5
t-20.5 3.5h-50v-91zM389 -145q48 0 86 20t65 53.5t41 77t14 90.5q0 25 -7 48.5t-21 42.5t-35.5 31.5t-50.5 15.5l1 -150h50q12 0 20.5 3.5t14.5 8.5t11 13v-28v-81h-226q20 5 29.5 26.5t9.5 45.5v142q-14 -8 -26 -21.5t-24 -38.5q-16 -35 -13 -68l-106 58l1 1q11 9 20.5 20
t15.5 25q23 50 56.5 79t74.5 43v122q0 23 -8.5 41.5t-27.5 25.5l-250 -461q47 -17 82 -66q18 -25 43.5 -47t54 -38t56.5 -25t49 -9z" />
    <glyph glyph-name="es" unicode="es" horiz-adv-x="530" 
d="M381 297q8 -6 15 -11.5t15 -13.5q49 -49 74.5 -106.5t25.5 -121.5q0 -93 -54 -159t-151 -93q-41 -12 -85 -12q-49 0 -96 13t-87 39q-46 30 -74 71.5t-36 93.5q-8 49 5 96.5t44 86.5q13 17 29 30t34 24q13 7 22 10v189q0 25 -9.5 44.5t-31.5 24.5h114q48 0 109 1v-106
q-4 7 -11 12q-6 5 -15 8.5t-21 3.5h-43v-159q46 -2 88.5 -20.5t74.5 -53.5l28 -29q18 -18 40 -27l-82 -102l-3 10q-6 25 -19 46.5t-30 39.5q-20 22 -45 33t-52 12l1 -19v-74l43 1q12 0 21 3.5t15 8.5q7 5 11 12v-103h-222q21 5 30.5 23t9.5 42v74q-25 -22 -38 -54
q-12 -30 -9 -63q1 -23 8.5 -41t18 -32t22.5 -24t23 -17q41 -26 93.5 -34.5t100.5 5.5q45 13 72 33.5t42 44t19.5 46.5t4.5 41q0 93 -73 163q-5 5 -10.5 10t-11.5 10q-17 13 -34.5 29.5t-28.5 39.5q-18 38 -11.5 79.5t35.5 71.5q23 25 52.5 37.5t62.5 13.5q50 0 95 -28
q22 -18 53 -18l2 1l-76 -122l-14 35q-6 19 -22 30t-36 11h-1q-31 0 -50 -22q-10 -10 -12 -23.5t4 -26.5q5 -10 15 -18.5t22 -19.5z" />
    <glyph glyph-name="fi" unicode="fi" horiz-adv-x="411" 
d="M205 0q12 3 20 13t12.5 20.5t6 19t1.5 10.5v142h-107v-110v-42q2 -11 7 -22q5 -9 13 -18t22 -13h-42h-89h-43q15 5 23.5 14.5t13.5 18.5q5 11 6 23v203v190q-2 9 -10.5 25t-32.5 23h43h281q11 0 15.5 -4.5t7.5 -8.5q0 -3 3 -7q3 -7 12 1l6.5 6.5t8.5 7.5q5 5 11 5h5
q-4 -6 -15.5 -23t-26.5 -39.5t-32 -47t-31.5 -45.5t-25 -35t-12.5 -16q-5 -5 -12.5 -5.5t-13.5 3t-10 9.5t-3 14q1 9 6.5 14t11.5 5.5t11.5 -3.5t7.5 -13q8 17 15 29.5t15 26.5q3 4 6.5 11.5t2 15t-9.5 13t-27 5.5h-118v-136h228q-14 -5 -21.5 -14t-11.5 -19q-4 -11 -5 -25
l-2 -159q0 -2 2 -10.5t6.5 -19t13 -20.5t20.5 -13h-163v0z" />
    <glyph glyph-name="st" unicode="st" horiz-adv-x="539" 
d="M533 504v-143l-27 37q-15 20 -41 20h-43l-2 -354q0 -2 2.5 -10.5t7.5 -19t14 -20t22 -13.5h-178q13 4 21.5 14t13.5 20.5t6.5 19t1.5 10.5v351l-179 -1q-15 -2 -27 -15t-13 -29q0 -15 15 -28.5t35.5 -25.5t41.5 -21.5t32 -16.5q34 -22 60 -53.5t26 -74.5q0 -29 -10 -53.5
t-28 -44t-43.5 -33t-56.5 -18.5q-31 -6 -66 -1l-66 12q-25 6 -45 -12q-1 47 -1 87v106q7 -32 29.5 -55t51.5 -35t61 -11t59 18q18 14 21 32t-12 35q-13 16 -34 27t-40 21q-29 16 -60 34t-47 50q-15 28 -14.5 60t15.5 61q18 34 52.5 54.5t72.5 18.5h372z" />
    <glyph glyph-name="li" unicode="li" horiz-adv-x="515" 
d="M484 145q40 -10 71.5 -33.5t52.5 -56.5t30.5 -74t5.5 -86q-7 -66 -41 -118t-88 -76q-42 -17 -85 -17q-46 0 -90.5 16.5t-76.5 48.5q-27 26 -44.5 57.5t-31.5 65.5q-14 30 -27 52.5t-26.5 39t-28.5 26t-34 12.5h-65q13 3 21 12.5t12.5 20t6 19t1.5 10.5v377q0 2 -1 10
t-5 18t-12 19t-22 14h175q-16 -5 -24 -14.5t-13 -20.5q-5 -12 -6 -26l-2 -370q27 -13 47 -32.5t35 -41.5t26.5 -45t20.5 -43q13 -29 26 -54t32 -42q15 -14 34.5 -23.5t40.5 -14t41.5 -3t37.5 9.5q19 8 33.5 22t23.5 31t14 35t7 35q2 23 -1.5 47.5t-15 46t-30.5 37.5t-47 23
q-9 2 -19 4t-22 2q-37 0 -76 -25q-9 -7 -19.5 -23.5t-12.5 -36.5l-72 97q9 3 15 7t11 9q35 28 73 43v305q0 2 -1 10t-5 18t-12.5 19t-23.5 14h173q-14 -5 -22 -14.5t-12 -20.5q-4 -12 -6 -26l-2 -289q14 -1 28 -2.5t27 -4.5z" />
    <glyph glyph-name="lo" unicode="lo" horiz-adv-x="617" 
d="M603 3h-87h-37h-482q16 5 24 13.5t12 17.5q4 11 5 23v394q-2 15 -10 28t-31 18h169q-23 -5 -30.5 -15.5t-10.5 -27.5v-368h361l-5 14l-23 98q-5 20 2.5 38.5t22 31t33.5 17t37 -2.5q15 -6 22 -17.5t7 -23.5t-8 -21t-24 -9q-14 0 -20.5 12t8.5 27q0 3 -2 1
q-18 -7 -18.5 -20t6.5 -30zM162 360q0 28 11 53t29.5 44t43.5 29.5t54 10.5q28 0 53 -10.5t44 -29.5t29.5 -44t10.5 -53v-124q0 -29 -10.5 -54t-29.5 -43.5t-44 -29.5t-53 -11q-29 0 -54 11t-43.5 29.5t-29.5 43.5t-11 54v124zM256 236q0 -18 13 -31t31 -13t31 13t13 31v124
q0 18 -13 31t-31 13t-31 -13t-13 -31v-124z" />
    <glyph glyph-name="is" unicode="is" horiz-adv-x="514" 
d="M507 135q36 -30 56 -69.5t24 -82.5t-8.5 -87.5t-40.5 -86.5q-45 -64 -111.5 -98.5t-144.5 -34.5q-73 0 -132.5 25t-101.5 73q-36 42 -51 95t-7 104q7 39 27 75t49 65v325q0 2 -1 11t-5.5 19.5t-13.5 20t-24 13.5h183q-16 -5 -24 -15.5t-13 -21.5q-5 -12 -7 -27l-1 -271
q8 2 14.5 3t14.5 2q42 4 81 -9.5t71 -40.5l27 -24l-84 -112l-2 19q-2 21 -13.5 36.5t-28 24.5t-36 10t-38.5 -8q-33 -16 -52.5 -44t-25.5 -60.5t2.5 -66t31.5 -60.5q9 -11 23 -23t33.5 -21.5t45 -15.5t58.5 -6q54 0 100 24t77 68q22 33 29 62.5t3.5 55t-16.5 46t-29 34.5
q-3 2 -12 9t-22 17t-29 22.5t-32 24.5q-38 29 -83 64l-4 4l-9 9q-24 22 -38.5 51t-17.5 60t4.5 62t27.5 58q26 35 65.5 52t82.5 12q31 -3 56.5 -17t45.5 -36q8 -10 17 -13t17 2l-88 -108q-1 1 -0.5 6.5t0 13t-4 17t-11.5 17.5q-20 19 -44.5 19.5t-43 -12.5t-27.5 -35.5
t2 -48.5q6 -15 17 -27.5t25 -24t28 -21t26 -18.5q29 -21 57.5 -41t54.5 -42l1 -2v0z" />
    <glyph glyph-name="la" unicode="la" horiz-adv-x="757" 
d="M641 1q8 -26 11.5 -55t0.5 -61q-7 -67 -41.5 -119t-87.5 -76q-42 -18 -88 -18q-47 0 -92 17t-77 49q-28 26 -46 58t-32 66q-28 61 -53 92.5t-63 37.5h-67q13 4 21.5 14t13 21t6 19.5t1.5 10.5v383q0 2 -1 10t-5 18t-12 19.5t-23 13.5h177q-16 -5 -24 -14.5t-12 -20.5
q-4 -12 -6 -26l-2 -375q26 -13 46.5 -33t36 -42.5t27 -46t20.5 -44.5q13 -29 26.5 -53.5t33.5 -43.5q14 -14 33.5 -23.5t41 -13.5t42.5 -3t39 9q19 9 33 23t23.5 30.5t14.5 34.5t7 35q3 24 -1 49t-15.5 47t-30.5 39t-46 24q-22 5 -43 5q-40 0 -78 -26q-10 -5 -20.5 -22
t-12.5 -37l-73 98q6 6 14 8t14 7q10 8 20 15.5t19 13.5l135 358q5 16 -5 28l-1 1h121q-13 -15 -7 -31l174 -444q4 -9 9 -13l14 -13h-110zM492 141q48 -13 84.5 -44t56.5 -74q-1 2 -1 3.5t-1 3.5l-131 333l-81 -216h9q35 0 64 -6z" />
    <glyph glyph-name="tu" unicode="tu" horiz-adv-x="614" 
d="M608 505q-23 -6 -32.5 -21.5t-9.5 -25.5v-270q1 -55 -15 -97q-7 -18 -18 -35.5t-27.5 -31t-39.5 -21.5t-54 -8q-32 0 -55 8t-40 21.5t-28 31t-18 35.5q-16 42 -14 96v171q0 11 -8.5 27t-33.5 23h175q-26 -7 -34.5 -24.5t-8.5 -27.5v-168q0 -28 7 -50q6 -19 19 -34t37 -15
q26 0 40 15t20 34q7 22 7 50v265q0 10 -8.5 27.5t-35.5 24.5h175zM208 59q0 -1 2.5 -10t7.5 -19.5t14 -20.5t22 -13h-180q13 3 22 13t13.5 20.5t6.5 19.5t2 10v335v41h-70q-10 0 -17.5 -6t-12.5 -13q-6 -8 -12 -18v106h405v-106q-6 10 -12 18q-5 7 -13 13t-17 6h-159v-82z
" />
    <glyph glyph-name="fe" unicode="fe" horiz-adv-x="640" 
d="M537 251q-19 -8 -19.5 -21t6.5 -31l82 -204h-296h-52h-2h-42q16 5 24.5 14t12.5 18q4 10 5 21v374h-114l1 -156h58q10 0 16 7l7 9v-93l-7 8q-8 8 -16 8h-58v-114v-43q2 -12 7 -23q5 -9 13 -17.5t22 -13.5h-43h-92h-43q15 5 23 14.5t13 18.5q5 11 7 23v211v194
q0 11 -9.5 27t-34.5 23h25.5t64 -0.5t89.5 -0.5h102h276q11 0 15.5 -4.5t6.5 -9.5q2 -4 4 -5q3 -8 12 0q2 1 6.5 5.5t9.5 8.5q5 5 12 5h5q-4 -6 -16 -23.5t-27.5 -40t-32.5 -48t-31.5 -47t-25.5 -36.5t-13 -17q-6 -5 -13.5 -5.5t-13.5 3.5t-10 10.5t-3 14.5q1 9 6.5 14
t11.5 5.5t12 -4t8 -13.5q8 17 15.5 30t15.5 27q3 4 6.5 12t2 15.5t-9.5 13t-28 5.5h-137v-157h31q10 0 19 9l6 8v-93l-7 7q-6 9 -17 9h-32v-122h139l-33 115q-5 21 2.5 40t22 31.5t34 17t39.5 -2.5q15 -6 22 -18t7 -24t-8.5 -21.5t-24.5 -9.5q-14 0 -20.5 13t8.5 27
q0 2 -2 2z" />
    <glyph glyph-name="zi" unicode="zi" horiz-adv-x="588" 
d="M391 106q13 3 20.5 13t12 21t6 19.5t1.5 10.5v274q0 2 -1 10.5t-4.5 18.5t-11.5 19t-22 14h165q-14 -5 -22 -15t-12 -21q-4 -12 -6 -26l-1 -274q0 -2 2 -10.5t7 -19.5t13.5 -21t20.5 -13h-168zM550 93q14 0 18.5 1.5t13.5 9.5v-104h-576l208 413h-89q-22 0 -36.5 -9
t-29.5 -24v126h320l-202 -413h373z" />
    <glyph glyph-name="le" unicode="le" horiz-adv-x="545" 
d="M534 275q40 -30 64 -70.5t35 -85.5t9.5 -91t-11.5 -85q-13 -50 -42.5 -94t-70.5 -72.5t-91 -35t-103 18.5q-30 13 -54 33.5t-45 44.5t-40.5 50.5t-38.5 52.5q-20 28 -40 41.5t-42 17.5h-61q13 3 21.5 13.5t13 21.5t6 20t1.5 11v375q0 2 -1 10.5t-5 18t-12 19t-23 13.5
h174q-15 -5 -23 -14.5t-12 -20.5q-4 -12 -6 -26l-2 -372q43 -24 81 -75q18 -23 39.5 -54.5t48 -58t57.5 -42t68 -7.5q24 5 42.5 18.5t33 31.5t24.5 39.5t16 43.5q8 30 9 64t-6 66.5t-23.5 61t-42.5 47.5q-19 14 -40.5 21.5t-43.5 8.5v-148h50q12 0 20.5 3.5t13.5 8.5
q6 5 11 12v-27l1 -76h-223q20 5 29.5 24t9.5 42l-1 124q-11 -12 -21 -30h-1l-10 -18q-15 -25 -20 -56l-95 56l1 2q22 18 38 43l11 18q13 22 36 48.5t61 44.5v131q0 23 -10 42.5t-30 24.5h113q48 0 110 1l1 -103q-5 6 -11 11t-14.5 8.5t-20.5 3.5h-50v-101q37 -1 72 -13
t65 -35z" />
    <glyph glyph-name="ti" unicode="ti" horiz-adv-x="480" 
d="M400 63q0 -2 2 -10.5t7 -19t13.5 -20.5t22.5 -13h-179q13 4 21.5 14t13 20.5t6.5 19t2 10.5v281q0 2 -1 10.5t-5 18t-12.5 19t-23.5 13.5h177q-15 -5 -23.5 -14.5t-12.5 -20.5q-5 -12 -6 -26zM474 505v-105q-5 10 -12 18q-6 7 -14 12.5t-17 5.5l-223 -1v-79l-1 -293
q0 -2 2 -10.5t7.5 -19t14 -20t21.5 -13.5h-178q13 4 21.5 14t13 20.5t6.5 19t2 10.5v332v39l-69 1q-10 0 -17.5 -5.5t-12.5 -12.5q-6 -8 -12 -18v105h468z" />
    <glyph glyph-name="on" unicode="on" horiz-adv-x="697" 
d="M512 -1q13 3 21.5 13t13 21t6.5 19.5t2 10.5v33l-143 190l-2 -224q0 -2 2 -10.5t7.5 -19t14 -20.5t22.5 -13h-179q13 3 21.5 13t13 21t6.5 19.5t2 10.5v381q0 2 -1 10.5t-5.5 18t-12.5 19t-23 13.5h176q-15 -5 -23.5 -14.5t-12.5 -20.5q-5 -12 -6 -26v-4l143 -194v198
q0 2 -1 10.5t-5.5 18t-12.5 19t-23 13.5h176q-15 -5 -23.5 -14.5t-12.5 -20.5q-5 -12 -6 -26l-2 -382q0 -2 2.5 -10.5t7.5 -19t14 -20.5t22 -13h-179zM142 112q-28 0 -53 10.5t-43.5 29t-29 43.5t-10.5 53v122q0 28 10.5 53t29 44t43.5 29.5t53 10.5t53 -10.5t43.5 -29.5
t29.5 -44t11 -53v-122q0 -28 -11 -53t-29.5 -43.5t-43.5 -29t-53 -10.5zM98 248q0 -18 13 -31t31 -13q19 0 32 13t13 31v122q0 18 -13 31t-32 13q-18 0 -31 -13t-13 -31v-122zM279 18q-14 7 -25 7h-222q-13 0 -23 -6l-3 -1v81l1 -1q13 -5 24 -5h223q12 0 24 5l1 1v-81z" />
    <glyph glyph-name="no" unicode="no" horiz-adv-x="697" 
d="M375 62q0 -2 2 -10.5t7 -19t13.5 -20.5t21.5 -13h-178q13 3 21.5 13t13 21t6.5 19.5t2 10.5v32l-2 -1l-141 191l-1 -223q0 -2 2 -10.5t7 -19t13.5 -20.5t22.5 -13h-179q13 3 21.5 13t13 21t6.5 19.5t2 10.5v380q0 2 -1 10.5t-5 18t-12.5 19t-23.5 13.5h176
q-15 -5 -23.5 -14.5t-12.5 -20.5q-4 -12 -5 -26l-1 -4l143 -194v198q0 2 -1 10.5t-5 18t-12.5 19t-23.5 13.5h176q-15 -5 -23.5 -14.5t-12.5 -20.5q-5 -12 -6 -26zM418 369q0 28 10.5 53t29 44t43.5 29.5t53 10.5t53 -10.5t43.5 -29.5t29 -44t10.5 -53v-122
q0 -28 -10.5 -52.5t-29 -43t-43.5 -29t-53 -10.5t-53 10.5t-43.5 29t-29 43t-10.5 52.5v122zM509 247q0 -18 13 -31t32 -13q18 0 31 13t13 31v122q0 18 -13 31t-31 13q-19 0 -32 -13t-13 -31v-122zM691 99v-81q-16 7 -26 7h-222q-13 0 -23 -6l-2 -1v81v-1q6 -3 12.5 -4
t12.5 -1h222q6 0 12.5 1t12.5 4z" />
    <glyph glyph-name="us" unicode="us" horiz-adv-x="718" 
d="M48 453q0 11 -8 27t-34 22h174q-13 -3 -21 -9.5t-12.5 -14t-6.5 -15t-2 -12.5v-160q0 -22 7 -40q5 -15 18 -27.5t37 -12.5q26 0 39.5 12.5t19.5 27.5q7 18 7 40v160q0 5 -2 12.5t-7 15t-13 14t-21 9.5h174q-23 -5 -32.5 -20t-9.5 -26v-165q0 -49 -16 -87
q-7 -16 -17.5 -31.5t-27 -27.5t-39.5 -19.5t-53 -7.5q-32 0 -55 7.5t-39.5 19.5t-27.5 27.5t-18 31.5q-16 38 -14 86v163zM625 283q34 -23 60.5 -55t26.5 -75q0 -35 -13.5 -63t-38.5 -48.5t-59 -31.5t-75 -11h-17h-437q-22 0 -36 -13v108h473q23 -1 45 2t40 15
q20 14 23 32.5t-14 36.5q-14 17 -35.5 28t-39.5 22q-24 13 -52 28t-51 34.5t-38.5 44.5t-15.5 58q0 10 2.5 24.5t11.5 29.5t25.5 28.5t43.5 22.5l1 1q5 1 31.5 7t61.5 6t65 -8.5t48 -16.5q20 -8 33 10v-171q-6 34 -22 60q-14 23 -40 41.5t-71 18.5q-39 0 -69.5 -12.5
t-30.5 -38.5q0 -14 10 -24.5t24 -19t29 -15.5t24 -12q20 -10 39 -20.5t38 -22.5z" />
    <glyph glyph-name="Co" unicode="Co" horiz-adv-x="1029" 
d="M583 651q72 0 135 -27t110 -74t74 -110t27 -135q0 -71 -27 -133.5t-74 -109.5t-110 -74t-135 -27q-71 0 -134 27t-110 74t-74 109.5t-27 133.5q0 72 27 135t74 110t110 74t134 27zM583 87q45 0 85 17.5t70 47t47 69t17 84.5t-17 85t-47 70t-70 47.5t-85 17.5t-84.5 -17.5
t-69.5 -47.5t-47 -70t-17 -85t17 -84.5t47 -69t69.5 -47t84.5 -17.5zM1125 -75l-10 -4q-69 -28 -128 -79q-78 -67 -176.5 -105t-209.5 -38q-85 0 -163 22.5t-145 63.5t-122 98.5t-93 126.5t-56.5 148.5t-14.5 165.5q6 112 51 211.5t120 175.5t173.5 122.5t211.5 53.5
q32 2 64.5 0.5t64.5 -6.5q51 -8 102 -25t97 -43q17 -10 32 -11.5t29 2.5t28 11.5t30 15.5q-12 -17 -28 -40t-35.5 -49.5t-41 -55.5t-42.5 -57q-2 9 -11 24t-23 30.5t-32 30.5t-37 25q-37 19 -77.5 26.5t-81.5 7.5q-102 0 -192 -40t-155.5 -108.5t-101.5 -160t-31 -194.5
q4 -92 41 -172.5t98 -142t141 -99t172 -42.5q72 -4 138 12t124 49q41 23 60 64.5t11 87.5z" />
    <glyph glyph-name="as" unicode="as" horiz-adv-x="739" 
d="M672 154q33 -29 51.5 -65.5t22.5 -77t-8 -82t-39 -80.5q-42 -60 -103.5 -92.5t-135.5 -32.5q-67 0 -123 23.5t-94 68.5q-34 41 -48.5 89.5t-6.5 96.5q4 27 16 53.5t29.5 49t40 40.5t48.5 29l-71 189l-130 -332q-6 -14 2 -29h-122l14 13q5 4 9 13l173 442q6 18 -7 31h121
l-1 -1q-12 -13 -5 -28l107 -285q29 -3 55.5 -14.5t47.5 -31.5l26 -23l-79 -104l-2 18q-2 19 -12.5 34t-25.5 23t-33.5 9t-35.5 -7q-32 -15 -50.5 -41.5t-23.5 -57t3 -62t29 -56.5q9 -10 22 -21t31 -20t42 -14.5t54 -5.5q51 0 94 22.5t72 63.5q21 30 27.5 58t3 52t-15 43.5
t-26.5 32.5q-3 2 -12 8.5t-21 16t-27 20.5t-30 23q-35 27 -78 60l-3 3l-8 8q-23 21 -36.5 48.5t-16.5 56.5t4.5 57.5t26.5 53.5q24 33 60.5 49t77.5 11q28 -3 52.5 -16t42.5 -33q8 -8 16.5 -11.5t15.5 1.5l-83 -102q-1 1 0 6.5t0 13t-4 15.5t-11 16q-19 18 -41.5 18.5
t-40 -11.5t-25.5 -33.5t2 -45.5q5 -13 16 -25t23.5 -23t26 -20.5t24.5 -17.5q26 -19 52.5 -38t52.5 -39l1 -1v0z" />
    <glyph glyph-name="ch" unicode="ch" horiz-adv-x="748" 
d="M562 -4q13 3 22 13t13.5 21t6.5 20t2 11v215l-161 -116l-1 -100q0 -2 2 -10.5t7.5 -19.5t14 -21t21.5 -13h-180q13 3 22 13t13.5 21t6.5 20t2 11v33l-57 -40q-20 -17 -40 -29q-17 -11 -37.5 -20t-38.5 -9h-19q-32 0 -60 12.5t-49 33.5t-33.5 49.5t-12.5 60.5v197
q0 32 12.5 60.5t33.5 49.5t49 33.5t60 12.5h19q32 0 60 -12t49 -33q7 -7 16.5 -7t17.5 6l5 4l-45 -121q0 14 -8.5 29.5t-30.5 26.5q-28 14 -60 13t-58 -18q-16 -11 -23.5 -28t-7.5 -36v-162q0 -30 20.5 -51.5t50.5 -21.5q9 0 19.5 1.5t18.5 5.5q3 1 16.5 11t34 25t46 33.5
t52.5 38.5v235q0 2 -1 10.5t-5.5 18t-13 19t-23.5 13.5h177q-15 -5 -23 -14.5t-12 -20.5q-4 -12 -6 -26l-1 -170q50 36 94 67.5t67 48.5v54q0 2 -1 10.5t-5.5 18t-13 19t-23.5 13.5h177q-15 -5 -23.5 -14.5t-12.5 -20.5q-5 -12 -6 -26l-2 -384q0 -2 2 -10.5t7.5 -19.5
t14 -21t22.5 -13h-180v0z" />
    <glyph glyph-name="ra" unicode="ra" horiz-adv-x="636" 
d="M778 77q26 -60 20 -125.5t-44 -124.5q-35 -56 -89 -87t-114 -31q-65 0 -121 31t-98 91q-28 39 -41.5 72t-15.5 43l-120 298l-11 -2v-179q0 -2 2 -10.5t7.5 -19t14 -20t21.5 -13.5h-179q13 4 21.5 14t13 20.5t6.5 19t2 10.5v380q0 2 -1 10.5t-5 18.5t-12.5 19t-23.5 14
h216q29 0 51.5 -14.5t36.5 -36.5t19.5 -49.5t0.5 -53.5t-20 -47.5t-42 -32.5q-5 -3 -11 -4l-17 -4l116 -288v-2l3 -8t8.5 -21t14.5 -29.5t21 -32.5q58 -82 143 -82q36 0 69.5 20t56.5 56q25 38 30 80t-12 80q-18 38 -53 60q-9 5 -17 8l14 -39q8 -22 24 -39.5t39 -25.5l1 -1
h-42h-21h-58h-9h-70q5 2 11 5q5 2 11 5t12 7q23 17 15 42l-17 48q-12 -4 -27 -14h-1q-18 -13 -30.5 -30t-19.5 -37l-64 101l61 41q13 7 25 13.5t26 11.5l-57 166l-100 -316l-52 118l100 312q4 9 0 18.5t-13 14.5h125q-17 -12 -10 -29l94 -271q3 -1 7 -1q60 -6 107 -40
t72 -88zM145 314q9 2 24 6t30 7q23 6 43 20q6 4 11 8t9 10q7 13 2.5 34t-16.5 28q-7 4 -14 6q-4 1 -6 1h-83v-120z" />
    <glyph glyph-name="th" unicode="th" horiz-adv-x="678" 
d="M492 -3q13 3 21.5 13t13 21t6.5 20t2 11v168l-133 -55l-1 -114q0 -2 2.5 -10.5t7.5 -19.5t14 -21t22 -13h-180q13 3 22 13t13.5 21t6.5 20t2 11v282q0 2 -1 10t-5.5 18t-13 19.5t-23.5 14.5h178q-16 -5 -24 -15t-13 -21q-5 -12 -6 -26v-83l132 54v127q0 2 -1 10.5
t-5.5 18.5t-12.5 19.5t-23 14.5h177q-15 -5 -23 -15t-13 -21q-5 -12 -6 -27l-1 -381q0 -2 1.5 -10.5t7 -19.5t14 -21t22.5 -13h-180zM207 61q0 -2 2.5 -10.5t7.5 -19.5t14 -21t23 -13h-180q13 3 21.5 13t13.5 21t7 20t2 11v333v40h-70q-10 0 -17.5 -5.5t-12.5 -12.5
q-6 -8 -12 -18v106h470v-106q-6 10 -12 18q-5 7 -13 12.5t-17 5.5h-225v-81z" />
    <glyph glyph-name="ks" unicode="ks" horiz-adv-x="773" 
d="M688 164q35 -30 54.5 -68t23 -80t-8 -85t-39.5 -83q-43 -63 -107.5 -96.5t-140.5 -33.5q-71 0 -129 24.5t-98 71.5q-35 42 -49.5 92.5t-6.5 100.5q4 23 14 46.5t25 47.5l-61 120q-2 3 -5 3.5t-5 -2.5q-5 -6 -10 -11.5t-7 -9.5q-1 -1 -1 -4v-146q0 -5 2 -12t6.5 -15
t12.5 -15t21 -10h-42h-88h-2h-41q20 5 28.5 17t12.5 22v427q-4 11 -12.5 22.5t-28.5 16.5h173q-13 -3 -21 -10t-12.5 -14.5t-6.5 -15t-2 -11.5v-144q0 -2 1 -3l100 157q7 14 -3 24q-8 12 -28 18h177q-12 -5 -21.5 -13.5t-16.5 -16.5q-8 -10 -14 -21l-99 -163l59 -121
q20 12 42 20t45 10q40 4 79 -9t69 -40l26 -24l-81 -107l-2 17q-3 32 -27 52.5t-54 18.5h-1q-45 -5 -69 -38q-17 -21 -27 -40.5t-13 -36.5q-5 -31 4.5 -62t31.5 -57q18 -21 55 -41.5t100 -20.5q52 0 96.5 23t75.5 65q22 31 28.5 60t3 54t-16 45t-28.5 34q-6 5 -33.5 25.5
t-58.5 44.5q-36 27 -81 62l-3 3l-10 9q-23 22 -36.5 50.5t-17 58.5t4 60t26.5 56q26 34 64 50.5t80 11.5q29 -4 54.5 -17.5t45.5 -33.5q18 -19 32 -11l-86 -105q-1 1 0 6.5t0 13t-4 16t-11 16.5q-13 13 -29 20t-39 0q-18 -7 -28 -19q-19 -23 -18 -53t22 -50l11 -9
q65 -50 100 -76.5t51.5 -39t19 -15l2.5 -2.5l1 -1v0z" />
    <glyph glyph-name="ass" unicode="ass" horiz-adv-x="1025" 
d="M1018 151q34 -29 53 -66.5t22.5 -78.5t-8 -84t-38.5 -83q-42 -60 -106 -93.5t-139 -33.5q-93 0 -164 45q-35 -22 -75 -33.5t-84 -11.5q-69 0 -126.5 24t-95.5 71q-35 41 -49 90.5t-6 99.5q4 27 16 54t29.5 50t40.5 42t50 30l-73 192l-133 -339q-5 -17 2 -29h-124l14 12
q8 6 9 14l177 452q6 17 -7 32h123v-1q-11 -14 -5 -29l110 -292q61 -6 105 -47l26 -22l-81 -107l-2 18q-2 20 -12.5 35.5t-26 23.5t-34 9t-36.5 -8q-32 -16 -51 -42.5t-24.5 -57.5t2.5 -63t30 -58q17 -22 53.5 -42t98.5 -20q52 0 96.5 22.5t73.5 64.5q21 31 27.5 59.5t3 53
t-15.5 44t-27 33.5q-3 2 -12 8.5t-21.5 16.5t-27.5 21.5t-30 23.5q-36 27 -80 61l-3 3l-9 8q-23 22 -36.5 49.5t-16.5 57.5t4.5 59.5t26.5 55.5q26 34 62.5 50t77.5 11q59 -8 99 -52q8 -8 16.5 -11t14.5 2l-84 -104q-1 1 0 6.5t0.5 13t-3.5 16t-11 16.5q-20 19 -43 19
t-41 -12t-26.5 -34t1.5 -47q6 -14 17 -26t24 -23t27 -20.5t25 -18.5q19 -14 38.5 -28t38.5 -28q12 4 24 6.5t24 4.5q40 4 78 -8.5t68 -39.5l25 -22l-80 -107l-2 18q-2 26 -19 43t-40 22q33 -56 29 -123t-48 -130q-6 -9 -14 -17q18 -8 40.5 -13t51.5 -5q52 0 96 22.5t73 64.5
q22 31 28.5 59.5t3 53t-15.5 44t-27 33.5q-3 2 -12 8.5t-21.5 16.5t-28 21.5t-30.5 23.5q-36 27 -80 61l-2 3l-9 8q-23 22 -36.5 49.5t-17 57.5t4 59.5t26.5 55.5q26 34 62.5 50t78.5 11q57 -7 99 -52q8 -8 16 -11t15 2l-84 -104q-1 1 0 6.5t0 13t-4 16t-11 16.5
q-19 19 -42 19t-41 -12t-26.5 -34t1.5 -47q5 -14 16 -26t24 -23t27 -20.5t26 -18.5q26 -20 53 -39t53 -40l1 -1v0z" />
    <glyph glyph-name="iss" unicode="iss" horiz-adv-x="945" 
d="M858 131q36 -30 56 -69t23.5 -81.5t-8.5 -87t-41 -85.5q-44 -64 -110.5 -98.5t-143.5 -34.5q-49 0 -92.5 12.5t-78.5 34.5q-37 -22 -78 -34.5t-87 -12.5q-72 0 -130.5 25t-100.5 73q-35 42 -50.5 94.5t-6.5 103.5q5 38 24 73t47 62v329q0 2 -1 10.5t-5.5 19t-13.5 20.5
t-25 15h187q-17 -5 -25.5 -15.5t-13.5 -21.5q-5 -13 -6 -28l-2 -272q8 2 15 2.5t14 1.5q42 5 81.5 -8.5t71.5 -40.5l26 -23l-84 -111l-1 18q-2 21 -13.5 37t-28 25t-36 10t-38.5 -8q-33 -16 -52 -44t-25 -60.5t2 -66.5t31 -61q9 -10 23 -21t33.5 -20.5t44.5 -15.5t58 -6
q54 0 99.5 23.5t76.5 66.5q22 32 29 62t3.5 55.5t-16 46t-28.5 34.5q-3 2 -12 9t-22 17t-29 22l-32 24q-38 28 -83 63l-4 3l-9 9q-24 22 -38 51t-17 60t5 62t28 57q26 35 65 52t81 12q30 -4 55.5 -17.5t45.5 -34.5q18 -21 34 -11l-88 -107q-1 1 0 6.5t0 13t-4 16t-11 16.5
q-20 19 -44 19.5t-42.5 -12.5t-27.5 -35.5t2 -47.5q5 -14 16.5 -27t25 -24t28 -21t26.5 -19q20 -15 40.5 -29.5t39.5 -30.5q24 10 51 12q40 5 80 -8.5t71 -40.5l26 -23l-83 -111l-2 18q-2 26 -19.5 45t-40.5 25q33 -59 28 -129.5t-50 -134.5q-4 -5 -6.5 -9.5t-7.5 -9.5
q19 -8 42.5 -13t53.5 -5q53 0 99.5 23.5t76.5 66.5q22 32 29 62t3.5 55.5t-16 46t-28.5 34.5q-3 2 -12.5 9t-22.5 17t-28.5 22t-31.5 24q-38 28 -83 63l-4 3l-9 9q-24 22 -37.5 51t-17 60t4.5 62t28 57q26 35 64.5 52t81.5 12q31 -4 56 -17.5t45 -34.5q19 -20 34 -11
l-88 -107q-1 1 -0.5 6.5t0 13t-3.5 16t-12 16.5q-20 19 -44 19.5t-42.5 -12.5t-27 -35.5t2.5 -47.5q5 -14 16 -27t24.5 -24t28 -21t26.5 -19q28 -21 56 -40.5t55 -42.5l1 -1v0z" />
    <glyph glyph-name="ah" unicode="ah" horiz-adv-x="921" 
d="M737 1q13 4 21.5 14t13 20.5t6.5 19t2 10.5v108l-31 18q-58 31 -121 42l-1 -168q0 -2 2.5 -10.5t7.5 -19.5t14 -21t22 -13h-178h-33h-22h-58h-9h-69q5 2 11 5q5 2 11 5t12 7q11 6 15 18t-1 25l-29 86q-13 -11 -23.5 -22.5t-21.5 -24.5q-6 -8 -7.5 -21.5t3.5 -27.5l-96 67
q48 71 113 120l-42 120l-93 -294q-5 -16 2 -30.5t21 -21.5q8 -4 14 -6.5t6 -4.5h-193q0 2 16 9q34 16 45 50l131 412q3 9 -1 18t-12 14h124q-7 -5 -9.5 -13t0.5 -16l65 -192q83 40 173 46v114q0 2 -1 10.5t-5.5 18t-12.5 19t-23 13.5h175q-15 -5 -23.5 -14.5t-12.5 -20.5
q-5 -12 -6 -26v-117q78 -11 151 -48v165q0 2 -1 10.5t-5.5 18t-12.5 19t-23 13.5h175q-15 -5 -23.5 -14.5t-12.5 -20.5q-5 -12 -6 -26l-2 -378q0 -2 2.5 -10.5t7.5 -19.5t14 -21t22 -13h-178zM499 3q12 4 19.5 14t12 20.5t6 18.5t1.5 9v172q-76 -6 -144 -41l44 -128
q17 -46 61 -65z" />
    <glyph glyph-name="rs" unicode="rs" horiz-adv-x="669" 
d="M654 148q35 -30 54.5 -67.5t23 -78.5t-8.5 -83.5t-40 -82.5q-42 -61 -105.5 -93.5t-138.5 -32.5q-69 0 -125 23.5t-96 71.5q-35 40 -49.5 89.5t-6.5 99.5q1 2 1 4t1 4h-158q13 3 21.5 12.5t13 20t6 19.5t1.5 10v378q0 2 -1 10.5t-5 18t-12 18.5t-23 13h214q30 0 52 -14
t36 -36t19 -49t0 -52.5t-20.5 -47t-41.5 -32.5q-6 -2 -9 -5l47 -94q22 8 47 10q40 5 78.5 -7.5t65.5 -38.5l27 -23l-80 -108l-1 17q-2 20 -13 35.5t-27 24t-34.5 9.5t-35.5 -8q-32 -15 -51 -41.5t-24.5 -58t2.5 -63.5t30 -58q9 -11 22 -21.5t31.5 -19t42.5 -14t55 -5.5
q52 0 97.5 22t73.5 63q21 31 27.5 59.5t2.5 53.5t-15.5 44.5t-27.5 32.5q-3 2 -11.5 9t-21 16.5t-27.5 21t-30 23.5q-36 27 -80 61l-4 2l-9 9q-23 22 -36 50t-16 57.5t4.5 59t26.5 55.5q24 33 61 49t77 11q32 -2 56.5 -15.5t43.5 -33.5q16 -19 31 -11l-82 -103q-1 1 -0.5 6
t0 12.5t-3.5 16t-11 16.5q-20 19 -43 19t-41 -12.5t-26.5 -34t2.5 -46.5q5 -13 16 -25t23.5 -23t26 -21t24.5 -18q27 -18 55.5 -37.5t51.5 -42.5zM140 314q9 2 23.5 6t28.5 6q13 3 24 8.5l21 10.5l10 8t10 11q3 6 3.5 14.5t-1.5 17.5t-6.5 17t-10.5 12t-13 6q-4 1 -7 1h-81z
M167 10q8 32 24.5 61.5t41.5 52.5l-76 122l-17 -5l-1 -178q0 -1 1.5 -6.5t4.5 -13.5t8.5 -17t13.5 -16z" />
    <glyph glyph-name="lh" unicode="lh" horiz-adv-x="733" 
d="M651 1q11 -28 15.5 -59.5t0.5 -66.5q-7 -68 -42.5 -121.5t-90.5 -78.5q-20 -10 -42.5 -14t-45.5 -4q-48 0 -94 17t-80 49q-28 28 -46 60.5t-33 67.5q-29 63 -54.5 101t-65.5 46h-67q13 3 22 13.5t13.5 21.5t6.5 20t2 10v378q0 2 -1 10.5t-5.5 19t-13.5 20t-24 13.5h181
q-16 -5 -24 -15t-13 -21q-5 -12 -6 -27l-1 -383q27 -14 47.5 -34t36.5 -43t28 -47t21 -45q13 -29 27 -54.5t33 -44.5q15 -15 35.5 -24.5t42 -14t43 -2.5t39.5 10q19 8 33.5 22t24 31t15 36t7.5 37q2 24 -2 49.5t-16 48t-31 39.5t-47 24q-10 3 -20.5 4t-22.5 1q-43 0 -81 -26
q-10 -7 -20 -24t-12 -37l-76 100q7 6 14.5 8.5t15.5 7.5q34 31 74 46v315q0 2 -1 10.5t-5.5 19t-13.5 20t-24 13.5h181q-15 -5 -23.5 -15t-12.5 -21q-5 -12 -6 -27l-1 -105h146v107q0 2 -1 10.5t-5 18t-12.5 19t-23.5 13.5h175q-15 -5 -23 -14.5t-12 -20.5q-4 -12 -6 -26
l-2 -379q0 -2 2 -10.5t7 -19.5t13.5 -20.5t22.5 -12.5h-76zM503 136q50 -13 89 -49v157h-146v-101q14 -1 28.5 -2.5t28.5 -4.5z" />
    <glyph glyph-name="za" unicode="za" horiz-adv-x="717" 
d="M685 242q34 -30 57 -70.5t34 -84.5t8.5 -89t-18.5 -85q-30 -70 -84.5 -113t-128.5 -54q-12 -2 -23.5 -3t-23.5 -1q-81 0 -158 36t-131 100q-8 9 -14.5 18.5t-12.5 19.5q-8 13 -15.5 23.5t-15.5 15.5q-8 3 -26 3t-29 -1q-7 0 -13.5 -0.5t-11.5 -0.5h-73l33 64
q3 8 19.5 48.5t39.5 97.5t50 122.5t50 122.5h-68q-52 0 -91 -33v123h292l-25 -62q-33 -82 -59 -145t-45 -110.5t-32.5 -81t-22.5 -55.5q16 -1 31 -4t28 -11q19 -14 33 -30q2 2 8 4q34 14 45 48l134 417q3 9 -1 17.5t-12 13.5h121q-7 -5 -9.5 -12.5t-0.5 -15.5l60 -178
q26 -7 52 -20t49 -34zM624 177l39 -117q5 -14 13 -26t19 -21q1 45 -17.5 88.5t-52.5 74.5zM475 356l-23 -73q11 5 21.5 8.5t21.5 5.5zM540 -165q18 3 37.5 9.5t39 19t36.5 33t30 50.5q11 26 12 55h-152q10 3 21 11q11 6 15.5 17.5t-0.5 23.5l-55 158q-13 -2 -26 -6t-28 -12
q-40 -22 -69 -65l-23 -72q-5 -15 1.5 -29t20.5 -21q4 -2 8 -3t6 -2h-174q8 -10 14.5 -20t12.5 -19q5 -8 9.5 -15.5t9.5 -12.5q23 -27 53 -48.5t64 -34.5t69 -18t68 1z" />
    <glyph glyph-name="lt" unicode="lt" horiz-adv-x="517" 
d="M411 83q30 0 56.5 14t43.5 39v-138h-507q16 5 24.5 14t12.5 18q4 11 5 23v403q-2 15 -10 28t-32 19h172q-21 -5 -29.5 -16t-11.5 -28v-376h276zM513 504v-105q-6 10 -12 18q-5 7 -13 12.5t-17 5.5l-69 -1v-289q0 -12 4.5 -20t9.5 -13q6 -6 15 -9h-149q29 16 29 42v289
l-69 1q-10 0 -17.5 -5.5t-12.5 -12.5q-6 -8 -12 -18v105h313z" />
    <glyph glyph-name="co" unicode="co" horiz-adv-x="632" 
d="M353 369q0 28 10.5 53t29 44t43.5 29.5t53 10.5t53 -10.5t43.5 -29.5t29 -44t10.5 -53v-122q0 -28 -10.5 -52.5t-29 -43t-43.5 -29t-53 -10.5t-53 10.5t-43.5 29t-29 43t-10.5 52.5v122zM444 247q0 -18 13 -31t32 -13q18 0 31 13t13 31v122q0 18 -13 31t-31 13
q-19 0 -32 -13t-13 -31v-122zM626 99v-81q-16 7 -26 7h-222q-13 0 -23 -6l-2 -1v81v-1q6 -3 12.5 -4t12.5 -1h222q6 0 12.5 1t12.5 4zM340 172v-21q0 -32 -12 -59.5t-33 -48.5t-49 -33t-59 -12h-12h-16q-32 0 -59.5 12t-48.5 33t-33 49t-12 60v196q0 31 12 59t33 49t48.5 33
t59.5 12h19q23 0 47 -8t43 -17q22 -11 43 -25q9 -4 14.5 3.5t7.5 11.5l4 8t7 4h7l-75 -180h2q13 0 22.5 -9.5t7.5 -23.5q-2 -13 -12 -20.5t-23 -5.5q-14 2 -20.5 15.5t-6.5 27.5v64q0 18 -11.5 31t-28 19.5t-36.5 6t-36.5 -8.5t-28 -24.5t-11.5 -41.5v-155q0 -15 5.5 -28.5
t14.5 -24.5t22 -17.5t28 -6.5h15q24 1 38.5 14.5t20.5 35.5q2 8 -2 15.5t-12 10.5h21h95z" />
    <glyph glyph-name="ss" unicode="ss" horiz-adv-x="749" 
d="M684 135q35 -30 55 -69t24 -82t-8 -88t-41 -86q-45 -63 -110.5 -97.5t-143.5 -34.5q-100 0 -173 47q-73 -47 -164 -47q-72 0 -131.5 25t-100.5 73q-35 42 -51 94.5t-8 104.5q6 35 24 69t44.5 61.5t59.5 45.5t71 21q41 4 80.5 -9t70.5 -40l27 -25l-84 -110l-2 18
q-2 21 -13.5 37t-27.5 24.5t-35.5 9t-37.5 -8.5q-33 -16 -53 -44t-26 -60.5t2 -66t31 -60.5q10 -11 24 -22t33.5 -20.5t45 -15.5t57.5 -6q54 0 100 23.5t76 68.5q23 32 30 61.5t3 55t-16.5 46t-28.5 35.5q-4 2 -18.5 13.5t-35 27t-43 33t-42.5 33t-34 27t-17 14.5
q-24 22 -38.5 51t-18 59.5t4.5 61.5t28 58q26 35 65 52t82 12q30 -3 56 -17.5t46 -35.5q9 -9 17.5 -12.5t16.5 1.5l-88 -109q-1 1 -0.5 7t-0.5 14t-4 17t-11 17q-20 19 -44 19.5t-42.5 -12.5t-27.5 -35.5t2 -48.5q5 -14 16.5 -26.5t25 -24t27.5 -21t26 -18.5
q21 -16 41.5 -30t40.5 -30q12 5 24 7.5t25 4.5q42 4 84.5 -12t94.5 -62l-84 -110l-1 18q-3 27 -20.5 45t-40.5 24q34 -59 29 -129.5t-50 -135.5q-4 -5 -7 -9.5t-7 -9.5q18 -8 41.5 -13t54.5 -5q54 0 100 23.5t76 68.5q22 32 29 61.5t3 55t-16.5 46t-28.5 35.5q-3 2 -18 13.5
t-35 27t-43 33t-43 33t-34.5 27t-17.5 14.5q-24 22 -37.5 51t-17 59.5t4 61.5t27.5 58q27 35 66 52t82 12q30 -3 56 -17.5t46 -35.5q8 -9 17 -12.5t16 1.5l-89 -109q0 1 0.5 7t0 14t-3.5 17t-11 17q-20 19 -44.5 19.5t-43 -12.5t-27.5 -35.5t1 -48.5q6 -14 17.5 -26.5
t25.5 -24t28 -21t26 -18.5q31 -23 57 -41t55 -44z" />
    <glyph glyph-name="of" unicode="of" horiz-adv-x="615" 
d="M0 369q0 28 10.5 53t29 44t43.5 29.5t53 10.5t53 -10.5t43.5 -29.5t29 -44t10.5 -53v-122q0 -28 -10.5 -52.5t-29 -43t-43.5 -29t-53 -10.5t-53 10.5t-43.5 29t-29 43t-10.5 52.5v122zM91 247q0 -18 13 -31t32 -13q18 0 31 13t13 31v122q0 18 -13 31t-31 13
q-19 0 -32 -13t-13 -31v-122zM273 99v-81q-16 7 -26 7h-222q-13 0 -23 -6l-2 -1v81v-1q6 -3 12.5 -4t12.5 -1h222q6 0 12.5 1t12.5 4zM583 485l6.5 6.5t9.5 7.5q7 5 12 5h4q-4 -6 -15.5 -23.5t-26.5 -40t-32 -47.5t-31.5 -46.5t-25 -36t-12.5 -16.5q-6 -5 -13.5 -5t-14 3.5
t-10.5 9.5t-3 14q1 9 6.5 14t11.5 6t12 -3.5t9 -13.5q8 17 15 29.5t15 26.5q3 5 6.5 13t2 16t-9.5 13.5t-27 5.5h-75l1 -155h34q11 0 16 7l7 8v-92l-7 9q-6 8 -17 8h-33v-113v-43q2 -11 7 -22q5 -9 13 -17.5t22 -12.5h-43h-92h-42q15 5 23 14t12 18q4 11 6 23v209v192
q-1 10 -9 26t-32 22h42h240q11 0 15.5 -4.5t6.5 -8.5q4 -4 4 -6q2 -4 4.5 -4t7.5 4z" />
    <glyph glyph-name=".notdef" horiz-adv-x="200" 
 />
    <glyph glyph-name=".null" horiz-adv-x="0" 
 />
    <glyph glyph-name="nonmarkingreturn" unicode="&#xd;" horiz-adv-x="200" 
 />
    <glyph glyph-name="NULL" horiz-adv-x="0" 
 />
    <glyph glyph-name="NULL" horiz-adv-x="0" 
 />
    <glyph glyph-name="space" unicode=" " horiz-adv-x="150" 
 />
    <glyph glyph-name="exclam" unicode="!" horiz-adv-x="151" 
d="M125 38q0 -20 -14.5 -35t-35.5 -15q-20 0 -35 15t-15 35q0 21 15 35.5t35 14.5q21 0 35.5 -14.5t14.5 -35.5zM41 449q0 1 -1.5 8t-5.5 15t-11 15.5t-17 10.5h139q-11 -3 -17.5 -10.5t-10 -16t-5 -15.5t-1.5 -8v-278v-42h-71v39z" />
    <glyph glyph-name="quotedbl" unicode="&#x22;" horiz-adv-x="833" 
d="M206 603q0 1 -1.5 8t-5.5 15t-11 15.5t-17 10.5h139q-11 -3 -17.5 -10.5t-10 -16t-5 -15.5t-1.5 -8v-186v-42h-71v39zM384 603q0 1 -1.5 8t-5.5 15t-11 15.5t-17 10.5h139q-11 -3 -17.5 -10.5t-10 -16t-5 -15.5t-1.5 -8v-186v-42h-71v39z" />
    <glyph glyph-name="numbersign" unicode="#" horiz-adv-x="520" 
d="M418 282l-12 -82h37q26 0 55 6l16 4v-104q-42 15 -87 15h-34l-7 -46q-2 -18 2.5 -37.5t17.5 -39.5h-155l22 32q8 12 11 27l9 64h-108l-7 -46q-2 -18 2.5 -37.5t17.5 -39.5h-155l21 32q9 11 12 27l10 64q-33 0 -69 -11l-11 -4v104l27 -5q11 -2 22.5 -3.5t24.5 -1.5h18
l12 82h-17q-39 0 -76 -12l-11 -4v104l27 -5q20 -4 47 -4h42l12 76q2 15 -3 32.5t-18 33.5h169q-23 -21 -36.5 -48t-18.5 -59l-5 -35h109l11 76q2 15 -3 32.5t-18 33.5h169q-44 -43 -55 -107l-4 -35h12q26 0 55 6l16 3v-104q-41 16 -87 16h-9zM318 282h-108l-12 -82h108z" />
    <glyph glyph-name="dollar" unicode="$" horiz-adv-x="348" 
d="M198 -43v-4q0 -9 4 -17q2 -7 7.5 -13.5t14.5 -8.5h-99q7 2 12 8t7 13t3 12.5t1 7.5v13v34q-20 0 -38.5 2.5t-40.5 8.5q-11 3 -23.5 0t-21.5 -12q-1 48 -1 88v106q5 -14 13.5 -30.5t14.5 -23.5q13 -17 30 -26.5t37 -14.5q7 -2 14.5 -4t15.5 -3v143q-23 12 -48 26.5t-46 33
t-34.5 42t-13.5 54.5q0 10 2.5 24t11 28.5t24.5 28t44 22.5h1q3 2 20 6t41 6v32l-1 4.5t-4 10.5t-8 11.5t-12 8.5h99q-7 -3 -12 -8.5t-8 -11.5t-4 -11t-1 -6v-28q29 -3 53.5 -10t38.5 -15q22 -7 33 11v-168q-6 31 -21 57q-13 22 -37.5 39.5t-66.5 19.5v-104v-25
q15 -7 28.5 -15.5t27.5 -17.5q35 -23 61 -53.5t26 -74.5q0 -60 -39.5 -99.5t-104.5 -49.5v-37v-10zM235 181q-7 7 -16 13.5t-20 14.5v-110q7 3 13.5 6t12.5 8q20 13 23 31t-13 37zM95 394q0 -18 17 -31t36 -24l1 101q-23 -5 -38.5 -16t-15.5 -30z" />
    <glyph glyph-name="percent" unicode="%" horiz-adv-x="557" 
d="M233 77q-19 -38 -7 -77h-156l33 32q13 11 21 28l193 381q17 33 3 67h169q-29 -21 -52.5 -48.5t-40.5 -59.5zM235 374q0 -24 -9 -44.5t-24.5 -36.5t-36 -25t-44.5 -9t-44.5 9t-36.5 25t-25 36.5t-9 44.5t9 45t25 37t36.5 25t44.5 9t44.5 -9t36 -25t24.5 -37t9 -45zM63 374
q0 -24 17 -41t41 -17t41 17t17 41q0 25 -17 42t-41 17t-41 -17t-17 -42zM436 255q24 0 45 -9t36.5 -24.5t24.5 -36t9 -44.5t-9 -44.5t-24.5 -36.5t-36.5 -25t-45 -9t-44.5 9t-36.5 25t-25 36.5t-9 44.5t9 44.5t25 36t36.5 24.5t44.5 9zM436 83q25 0 41.5 17t16.5 41
t-16.5 41t-41.5 17q-24 0 -41 -17t-17 -41t17 -41t41 -17z" />
    <glyph glyph-name="ampersand" unicode="&#x26;" horiz-adv-x="451" 
d="M394 75q14 0 22 8l9 9l20 -87q-14 -5 -35 -6.5t-45 2t-50.5 14.5t-52.5 31q-23 -22 -54 -36t-73 -14q-37 0 -68 18.5t-47 51.5q-18 36 -12.5 77.5t32.5 79.5l63 93l-82 184h296l-127 -191l69 -145l3 6q11 17 23 34t26 29q8 -15 18.5 -38t17.5 -40q-3 1 -7 -2t-6 -6
q-1 -2 -5 -9t-8 -14.5t-7.5 -13.5l-3.5 -6q15 -11 27.5 -17t22.5 -8.5t18 -3t16 -0.5zM134 424l17 -35l24 35h-41zM135 71q24 0 42.5 7.5t32.5 21.5q-2 2 -13 23.5t-24 47.5q-15 29 -33 66l-38 -58q-15 -20 -19 -41t5 -38q13 -29 47 -29z" />
    <glyph glyph-name="quotesingle" unicode="'" horiz-adv-x="151" 
d="M41 603q0 1 -1.5 8t-5.5 15t-11 15.5t-17 10.5h139q-11 -3 -17.5 -10.5t-10 -16t-5 -15.5t-1.5 -8v-52v-42h-71v39l1 56v0z" />
    <glyph glyph-name="parenleft" unicode="(" horiz-adv-x="211" 
d="M118 17q-2 17 -12 27.5t-19 20.5q-33 37 -53.5 82.5t-25.5 96.5q-5 57 10.5 112t50.5 100q12 17 25 32.5t16 36.5l95 -83q-44 -17 -74 -51.5t-38 -80.5q-5 -31 -2 -59q6 -71 52 -123q8 -9 19.5 -15.5t24.5 -6.5z" />
    <glyph glyph-name="parenright" unicode=")" horiz-adv-x="211" 
d="M24 106q13 0 24.5 6.5t19.5 15.5q46 52 52 123q3 28 -2 59q-8 46 -38 80.5t-74 51.5l95 83q3 -21 16 -36.5t25 -32.5q35 -45 50.5 -100t10.5 -112q-5 -51 -25 -96.5t-54 -82.5q-9 -10 -19 -20.5t-12 -27.5z" />
    <glyph glyph-name="asterisk" unicode="*" horiz-adv-x="287" 
d="M246 496q1 0 6 1t11 4t11 7.5t7 11.5v-97q-2 7 -7.5 11.5t-11.5 7t-10.5 3.5t-5.5 1h-41l31 -31l3.5 -2.5t9 -5t12.5 -2.5t14 4l-11.5 -11.5t-22.5 -23t-22.5 -23t-11.5 -10.5q4 8 3.5 15t-2.5 12q-3 6 -8 12l-31 32v-44q0 -1 0.5 -5.5t2.5 -10t7 -10.5t13 -8h-96
q8 2 12.5 8t6.5 12q3 7 4 14v43l-31 -31q-1 -1 -3.5 -4.5t-5 -8.5t-2.5 -12t4 -14q-1 0 -11.5 10.5t-23 22.5t-22.5 22.5t-11 11.5q8 -4 15 -3t12 3q6 3 12 7l32 31h-44q-2 0 -6.5 -0.5t-9.5 -2.5t-10 -6.5t-8 -12.5v95q2 -8 8 -12.5t12 -6.5q7 -3 14 -3h45l-31 31
q-2 1 -15.5 7t-26.5 -1l11.5 11.5l23 23l23 23l11.5 11.5q-4 -6 -3.5 -13t3 -13t5 -10t3.5 -5q3 -4 11.5 -12t19.5 -19v43q0 1 -1 6t-4 11t-8 11.5t-12 7.5h97q-7 -2 -11.5 -7.5t-7 -11.5t-3.5 -11t-1 -6v-43l31 30q0 1 2.5 5t4.5 10t2.5 13.5t-3.5 13.5l11.5 -11.5l23 -23
l23 -23l11.5 -11.5q-6 4 -13 3.5t-13 -3t-10 -5t-5 -2.5q-3 -4 -11 -12l-19 -19h42v0z" />
    <glyph glyph-name="plus" unicode="+" horiz-adv-x="341" 
d="M293 264q1 0 7 1.5t13 5t13.5 9t8.5 13.5v-116q-2 9 -8.5 14.5t-13.5 8.5t-13 4t-7 1h-93v-94q0 -1 0.5 -6.5t3.5 -12t8.5 -12.5t15.5 -9h-114q9 3 14.5 9.5t8.5 13.5q4 8 4 17v94h-95q-1 0 -6.5 -0.5t-12 -3t-12.5 -8t-9 -15.5v114q3 -10 9.5 -15.5t13.5 -7.5
q8 -4 17 -4h95l1 93q0 1 -1.5 7t-5 13t-9 13.5t-14.5 8.5h116q-9 -2 -14.5 -8.5t-8.5 -14t-4 -13t-1 -6.5v-94h93v0z" />
    <glyph glyph-name="comma" unicode="," horiz-adv-x="137" 
d="M89 90q15 -3 26.5 -14.5t14.5 -26.5q2 -13 -2 -25t-12 -21q-3 -4 -11 -10q-16 -12 -32 -23.5t-32 -22.5l15 23q5 7 3.5 15.5t-8.5 13.5q-8 8 -16.5 18t-8.5 21q0 25 18.5 41t44.5 11z" />
    <glyph glyph-name="hyphen" unicode="-" horiz-adv-x="391" 
d="M307 313q1 0 8 1.5t15 5.5t15 10.5t10 16.5v-134q-3 10 -10.5 16.5t-15.5 10t-14.5 4.5t-7.5 1h-198q-1 0 -7 -1t-13.5 -4t-14.5 -9.5t-10 -17.5v132q3 -11 10.5 -17t15.5 -9q9 -4 19 -5l198 -1v0z" />
    <glyph glyph-name="period" unicode="." horiz-adv-x="163" 
d="M130 93q10 -11 27 -19l-5 -2q-12 -7 -22 -14l-33 -31q-8 -8 -15 -20l-2 -5q-8 16 -18 27l-30 33q-6 6 -12 11t-14 8l8 5q3 2 6.5 4.5t7.5 6.5l39 36q3 3 5.5 6t4.5 6l6 8q3 -8 7 -15t10 -12z" />
    <glyph glyph-name="slash" unicode="/" horiz-adv-x="447" 
d="M6 -2l34 33q7 7 12 14t10 15l200 396q8 16 9 34t-6 35h176q-31 -22 -55.5 -50.5t-41.5 -61.5l-169 -335q-20 -39 -8 -80h-161z" />
    <glyph glyph-name="zero" unicode="0" horiz-adv-x="372" 
d="M185 -7q-48 0 -81.5 21t-54.5 54.5t-31 75t-11 82.5q-1 27 -0.5 57t4.5 59.5t13.5 57t26.5 50.5q4 4 7 8t7 8q20 20 46 30.5t53.5 13t55.5 -4t52 -19.5q25 -14 42 -35t27.5 -46t15 -52.5t6.5 -54.5q2 -35 2 -69t-7 -68q-6 -33 -20.5 -63.5t-36 -54t-51 -37t-65.5 -13.5z
M180 418q-24 0 -39 -11.5t-23.5 -29.5t-12 -39.5t-4.5 -40.5q-1 -24 -1.5 -59.5t6 -69.5t24.5 -58t55 -24q28 0 45.5 14t27.5 36.5t13.5 50.5t2.5 56.5t-4.5 54.5t-7.5 43q-4 21 -17 42q-11 17 -28.5 26t-36.5 9z" />
    <glyph glyph-name="one" unicode="1" horiz-adv-x="171" 
d="M165 0h-146q33 30 33 74v326q0 14 -10 24.5t-24 10.5h-12l46 66h78v-426q0 -21 9 -40t25 -33z" />
    <glyph glyph-name="two" unicode="2" horiz-adv-x="342" 
d="M252 82q22 0 37.5 7.5t20.5 20.5v-108h-301l212 324q8 11 15.5 28t8.5 33.5t-9.5 28t-38.5 11.5q-15 0 -26 -5.5t-17.5 -13t-10 -16t-3.5 -15.5l-19 12l-64 40q22 34 60.5 54.5t79.5 20.5q98 0 127 -57q13 -25 10 -52t-13 -51t-21.5 -41.5t-16.5 -23.5l-1 -2l-121 -195
h91z" />
    <glyph glyph-name="three" unicode="3" horiz-adv-x="314" 
d="M217 355q26 -8 45 -26t30 -42q14 -29 15 -58t-3 -60q-5 -41 -21 -80t-53 -64q-20 -14 -44 -19.5t-48 -5.5q-51 0 -83 20t-49 40l70 66q0 -14 6 -23t15 -14.5t18.5 -7.5t16.5 -2q35 -2 58.5 17t34.5 51q7 23 5.5 47.5t-11 46.5t-26 39.5t-40.5 25.5q-16 5 -38 6.5t-40 0.5
l96 123h-92q-18 0 -32 -10v72h257l-91 -141l4 -2v0z" />
    <glyph glyph-name="four" unicode="4" horiz-adv-x="375" 
d="M367 160q-22 14 -45 14l-1 -111q0 -2 2.5 -11t8 -20t14.5 -21t23 -14h-186q14 4 22.5 14t13.5 21.5t7 20.5t2 11v110h-222l160 271q8 13 7.5 28.5t-8.5 29.5h35h123h27q-27 -29 -27 -69l-1 -180q23 0 44 13l3 1v-108h-2zM228 393l-82 -138l82 -1v139z" />
    <glyph glyph-name="five" unicode="5" horiz-adv-x="356" 
d="M233 386q19 -7 35 -17.5t30 -27.5q24 -26 37 -62t12 -78q0 -40 -12 -77t-34 -64q-23 -30 -57.5 -47t-72.5 -17q-33 0 -64.5 11t-51.5 38q-15 20 -21 42.5t-9 39.5q-1 6 -2.5 14t-3.5 10l-13 9l139 68l-18 -28q-6 -9 -9 -15q-8 -15 -7.5 -32.5t7.5 -32.5t20 -25t31 -10
q20 0 34.5 8.5t25 22t16.5 30t9 32.5q4 27 -1 55.5t-23 49.5q-16 17 -42 24.5t-49 6.5q-26 0 -49 -9.5t-39 -29.5l-16 -21v249h277v-97q-8 13 -21.5 15t-14.5 2h-1h-148v-30q21 3 40 3q17 0 33.5 -2.5t32.5 -7.5z" />
    <glyph glyph-name="six" unicode="6" horiz-adv-x="375" 
d="M187 390q38 0 71 -15.5t58 -41.5t39 -62t14 -76q0 -41 -14 -76.5t-39 -62t-58 -42t-71 -15.5q-24 0 -48 8q-39 11 -69 39t-47 65q-20 46 -15.5 95t25.5 94q11 24 24 47t25 47q8 14 18.5 30t20 31t16 28t6.5 22h123q-3 -1 -7 -3q-8 -4 -14 -10l-5 -5t-5 -6l-6 -8
q-8 -12 -17 -25q-8 -11 -17 -26.5t-17 -31.5h9zM187 85q20 0 37.5 8.5t30.5 23.5t20.5 35t7.5 43q0 22 -7.5 42t-20.5 35t-30.5 24t-37.5 9t-37 -9t-30 -24t-20.5 -35t-7.5 -42q0 -23 7.5 -43t20.5 -35t30 -23.5t37 -8.5z" />
    <glyph glyph-name="seven" unicode="7" horiz-adv-x="303" 
d="M73 441q-17 0 -30 -11v71l253 1l-176 -460q-4 -9 -3 -19q1 -8 2 -15t2 -10h-122l8 10q7 9 17 25q9 16 21 42.5t25 58.5t26.5 67t26.5 69q30 80 61 171h-111z" />
    <glyph glyph-name="eight" unicode="8" horiz-adv-x="365" 
d="M260 335q45 -22 72 -64t27 -95q0 -36 -14 -68t-38 -56t-56 -38t-68 -14t-68.5 14t-56.5 38t-38 56t-14 68q0 49 24.5 89.5t64.5 63.5q-14 14 -21.5 33t-7.5 40q0 22 8.5 42t23.5 34.5t34.5 23t42.5 8.5q22 0 42 -8.5t34.5 -23t23 -34.5t8.5 -42q0 -39 -23 -67zM175 446
q-18 0 -31 -13t-13 -31q0 -19 13 -31.5t31 -12.5t31 12.5t13 31.5q0 18 -13 31t-31 13zM183 80q40 0 68 28t28 68t-28 68t-68 28t-68 -28t-28 -68t28 -68t68 -28z" />
    <glyph glyph-name="nine" unicode="9" horiz-adv-x="375" 
d="M188 113q-38 0 -71 15.5t-58 42t-39 62t-14 75.5t14 76t39 62.5t58 42t71 15.5q22 0 49 -8q38 -11 68 -39t46 -65q21 -46 16.5 -94.5t-25.5 -93.5q-12 -24 -24.5 -47.5t-25.5 -46.5q-8 -15 -18 -30.5t-19.5 -30.5t-16 -28.5t-6.5 -22.5h-123q3 1 7 3q8 4 14 10l5 5t5 6
l6 8q8 12 17 26q8 11 16.5 26t17.5 31h-9zM188 418q-20 0 -37.5 -8.5t-30.5 -23.5t-20.5 -35t-7.5 -43t7.5 -42.5t20.5 -34.5t30.5 -23.5t37.5 -8.5q19 0 36.5 8.5t30.5 23.5t20.5 34.5t7.5 42.5t-7.5 43t-20.5 35t-30.5 23.5t-36.5 8.5z" />
    <glyph glyph-name="colon" unicode=":" horiz-adv-x="155" 
d="M130 141q0 -22 -15.5 -37t-37.5 -15t-37 15t-15 37t15 37t37 15t37.5 -15t15.5 -37zM130 361q0 -22 -15.5 -37.5t-37.5 -15.5t-37 15.5t-15 37.5t15 37t37 15t37.5 -15t15.5 -37z" />
    <glyph glyph-name="semicolon" unicode=";" horiz-adv-x="117" 
d="M59 287q-22 0 -37.5 15t-15.5 37t15.5 37t37.5 15q21 0 36.5 -15t15.5 -37t-15.5 -37t-36.5 -15zM69 179q15 -3 26.5 -14.5t14.5 -26.5q2 -13 -2 -25t-12 -21q-3 -4 -11 -10q-16 -12 -32 -23.5t-32 -22.5l15 23q5 7 3.5 15.5t-8.5 13.5q-8 8 -16.5 18t-8.5 21
q0 25 18.5 41t44.5 11z" />
    <glyph glyph-name="less" unicode="&#x3c;" horiz-adv-x="415" 
d="M341 57l-16 23q-19 26 -45 44l-274 183l276 183q36 24 56 64l1 1l69 -117q-23 -2 -44 -8.5t-39 -19.5l-156 -103l147 -98q34 -24 78 -27l15 -2z" />
    <glyph glyph-name="equal" unicode="=" horiz-adv-x="391" 
d="M337 423q1 0 8 1.5t15 5.5t15 10.5t10 16.5v-134q-3 10 -10.5 16.5t-15.5 10t-14.5 4.5t-7.5 1h-286q-1 0 -7 -1t-13.5 -4t-14.5 -9.5t-10 -17.5v132q3 -11 10.5 -17t15.5 -9q9 -4 19 -5zM337 208q1 0 8 1.5t15 5.5t15 10.5t10 16.5v-134q-3 10 -10.5 16.5t-15.5 10
t-14.5 5t-7.5 1.5h-286q-1 0 -7 -1t-13.5 -4t-14.5 -9.5t-10 -17.5v132q3 -11 10.5 -17.5t15.5 -9.5q9 -4 19 -5z" />
    <glyph glyph-name="greater" unicode="&#x3e;" horiz-adv-x="415" 
d="M6 174l14 2q43 3 79 27l147 98l-156 103q-37 25 -83 28l69 117v-1q19 -39 57 -64l276 -183l-275 -183q-13 -9 -24.5 -20t-19.5 -24l-16 -23z" />
    <glyph glyph-name="question" unicode="?" horiz-adv-x="275" 
d="M157 56q0 -20 -14.5 -34.5t-34.5 -14.5t-34.5 14.5t-14.5 34.5q0 21 14.5 35t34.5 14t34.5 -14t14.5 -35zM157 131h-108q11 30 14 59q8 72 60 123l53 54q11 11 10 21.5t-3 14.5q-2 5 -8.5 12t-20.5 7h-2q-12 0 -24 -5t-21 -13t-13.5 -19t-0.5 -24l-87 35q4 14 15 33
t29 36t43 29t59 12h3q35 -1 63.5 -20.5t41.5 -51.5q14 -33 7 -66.5t-32 -58.5l-53 -54l-2 -2q-23 -24 -29 -55.5t4 -62.5z" />
    <glyph glyph-name="at" unicode="@" horiz-adv-x="658" 
d="M608 439q21 -35 33 -77.5t10 -84.5q-1 -34 -13 -65.5t-37 -57.5q-34 -36 -78.5 -48.5t-90.5 10.5q-36 17 -56.5 48t-20.5 67v141q-5 8 -18 15q-20 11 -43 9.5t-42 -13.5q-11 -8 -17 -20t-6 -25v-117q0 -22 15 -37t36 -15q7 0 9.5 3t4.5 8q1 4 1 11l66 -32q-5 0 -9.5 -4.5
t-8.5 -9.5q-5 -5 -7.5 -11t-7.5 -11q-18 -24 -51 -24q-23 0 -43.5 8.5t-35.5 23.5t-24 35t-9 43v143q0 23 9 43.5t24 35.5t35.5 24t43.5 9h14q36 0 66 -22h81q-14 -20 -14 -47v-164q0 -20 12.5 -33.5t26.5 -20.5q16 -9 33.5 -7.5t32 10.5t25 24t13.5 33q4 28 1 60
q-3 43 -21 81t-46.5 67.5t-66 48t-80.5 22.5q-57 6 -107.5 -13.5t-87.5 -56t-56 -87t-13 -107.5q4 -39 20 -74t41.5 -63t58.5 -47.5t72 -27.5q18 -3 37 -4t38 1q13 2 28 5t21 17l64 -72q-2 -2 -4.5 -2.5t-5.5 -2.5q-30 -14 -63 -21.5t-68 -7.5q-71 0 -133 29t-106.5 78.5
t-67 115t-14.5 138.5q6 55 30.5 104t62 87t86.5 62t105 30q23 2 46 2t46 -5q71 -11 130 -52t94 -103z" />
    <glyph glyph-name="A" unicode="A" horiz-adv-x="929" 
d="M661 -120q24 31 30.5 69.5t-6.5 75.5l-38 108l-293 211l-110 -319q-13 -37 -6.5 -75.5t30.5 -69.5h-262q35 25 60.5 59t39.5 74l142 409l-30 24q-31 26 -57.5 34t-43.5 -1q-3 -2 0 -5q21 4 35.5 -0.5t21.5 -14.5t7 -23t-7 -25q-18 -29 -43 -32.5t-46 9t-33.5 38.5
t-6.5 57q9 40 37.5 68t65.5 39.5t77 4t70 -37.5l81 258q4 12 3.5 20.5t-4.5 17t-10.5 17t-15.5 20.5h228q-11 -12 -18 -21t-9.5 -17t-1.5 -16.5t5 -20.5l270 -802q14 -40 39.5 -74t60.5 -59h-262zM571 352l-107 305l-62 -180z" />
    <glyph glyph-name="B" unicode="B" horiz-adv-x="691" 
d="M608 340q42 -43 62 -109.5t13 -137.5q-6 -58 -30.5 -103t-63.5 -71q-6 -4 -18.5 -10t-29.5 -12t-37 -10.5t-42 -4.5h-456q1 0 1 1l1 2q19 22 34 36.5t25.5 29.5t15.5 33.5t5 47.5v741q0 21 -10.5 42.5t-23.5 39.5q-15 20 -34 40h434q14 0 27 -4q11 -3 23 -9.5t20 -20.5
q2 -3 3.5 -6l3.5 -7q4 -7 8.5 -6.5t14.5 8.5q8 5 16 12.5t16 15.5t15.5 8h16.5q-8 -12 -30.5 -46.5t-53 -79.5t-64 -94.5t-62.5 -92t-50.5 -71.5t-26.5 -33q-12 -10 -27 -10.5t-27.5 6.5t-20 19.5t-5.5 28.5q3 18 13.5 28t23.5 11t24 -7.5t16 -26.5q15 33 30 58.5t30 53.5
q5 8 16 26.5t19 39t7.5 39t-18.5 26.5h-198v-758h248q11 0 27 6t31 15q32 22 38 82q4 42 -7.5 83.5t-33.5 63.5l-4 5l-167 198l81 105q10 13 24 25.5t29.5 20.5t33 9.5t34.5 -7.5q15 -8 23.5 -21.5t9.5 -27.5t-6.5 -27t-24.5 -20q-9 -4 -18.5 -2.5t-16 8t-8 17.5t4.5 26
q-1 1 -1.5 2t-2.5 -1q-20 -11 -23.5 -26.5t-0.5 -29.5q4 -17 15 -34l109 -133v0z" />
    <glyph glyph-name="C" unicode="C" horiz-adv-x="946" 
d="M905 36q-42 -15 -81 -39.5t-77 -45.5q-54 -29 -114 -45.5t-125 -16.5q-104 0 -195.5 39.5t-159.5 108t-107.5 160t-39.5 195.5t39.5 195.5t107.5 160t159.5 108t195.5 39.5q71 0 125 -9t93.5 -22t66.5 -27t45 -24q15 -8 27.5 -9.5t24.5 1.5t24 9.5t26 13.5
q-8 -12 -31 -46t-53 -79t-63.5 -94.5t-62.5 -91.5t-49.5 -71t-25.5 -33q-12 -10 -27 -10t-28 6.5t-20.5 19t-4.5 28.5q3 18 13.5 27.5t23 10.5t23.5 -7t16 -26q16 32 31 57.5t29 53.5t17 52.5t-3 45t-19.5 36t-32.5 24.5q-27 13 -67.5 19.5t-84 6.5t-85.5 -7t-72 -20
q-48 -22 -89 -56.5t-70 -78t-45.5 -95t-16.5 -108.5q0 -76 28.5 -142.5t78 -116t116 -78.5t142.5 -29q48 0 84.5 8t63.5 21t45 29.5t29 33.5q26 40 28 93z" />
    <glyph glyph-name="D" unicode="D" horiz-adv-x="912" 
d="M905 446q3 -103 -24 -199.5t-80 -168.5q-66 -91 -156.5 -140t-189.5 -49h-120h-142q15 4 25 11.5t15 16t7 17t2 15.5v611q0 4 -2 12.5t-7.5 17.5t-15 17t-24.5 12h228q-22 -5 -34 -22t-12 -30v-286v-259h80q67 0 129.5 35t109.5 100q45 60 63 132t16 143q-3 84 -31 154.5
t-76 108.5q-46 36 -100.5 53.5t-110.5 16.5t-110 -20.5t-98 -57.5l-6 -5q-5 -5 -16 -14.5t-25 -21.5q-23 -20 -34 -48.5t-8 -58.5l-152 169h12q48 -2 84 28q18 17 36 32t23 19v1q61 53 136.5 80t154.5 28.5t155.5 -22.5t140.5 -75q72 -57 112.5 -147.5t44.5 -205.5z" />
    <glyph glyph-name="E" unicode="E" horiz-adv-x="659" 
d="M651 -70q5 -17 -4.5 -30.5t-26.5 -13.5h-120v1h-317l-115 -1h-60q23 5 35 11t18 18t6 25l-1 904q-3 13 -15.5 27.5t-44.5 21.5h60h1h544q17 0 26.5 -13t4.5 -30l-124 -319q-8 -21 -7.5 -37.5t22.5 -25.5q2 -1 2 2q-9 9 -10.5 17.5t1.5 15.5t9.5 11t15.5 4q19 0 28.5 -11
t9.5 -26t-8.5 -29t-25.5 -20q-23 -9 -46.5 -4t-41 20.5t-26 38t-2.5 47.5l47 223h-289v-325h199q18 0 32 8l5 2v-143l-10 7q-13 8 -30 8h-196v-292h298l-47 223q-6 25 2.5 47.5t26 38t40.5 20.5t46 -4q18 -6 27 -20t8.5 -29t-10 -26t-29.5 -11q-8 0 -14.5 4.5t-9.5 11t-1 15
t11 17.5q0 3 -2 2q-23 -9 -23.5 -25.5t7.5 -35.5l124 -320v0z" />
    <glyph glyph-name="F" unicode="F" horiz-adv-x="607" 
d="M591 888q24 0 40.5 -15t24.5 -36.5t6.5 -44.5t-12.5 -39q-29 -44 -62 -93t-62 -90.5t-49.5 -70.5t-25.5 -33q-11 -10 -33 -10q-24 0 -42 20q-7 8 -10 18t-1 20q4 22 16.5 32.5t26.5 10.5q14 -1 22.5 -13t5.5 -25l-5 -14l72 131q16 24 23 41.5t6 30t-7 21t-15 13.5
q-21 12 -58 12h-241v-323h198q17 0 31 8l6 3v-142l-10 7q-14 8 -30 8h-195v-395q1 -7 5 -12q6 -12 17 -17.5t34 -10.5h-243q23 5 35 10.5t18 17.5q5 7 5 13v706v132v25q0 39 -32 66l-44 38h337h239h9v0z" />
    <glyph glyph-name="G" unicode="G" horiz-adv-x="953" 
d="M947 359q-11 -5 -21 -9l-17 -8.5t-14 -7.5q-17 -13 -22 -27t-5 -35v-201q0 -2 -1 -4q-2 -5 -10.5 -20.5t-25.5 -36.5t-44 -43.5t-66.5 -41.5t-92.5 -31.5t-122 -12.5q-104 0 -195 39.5t-158.5 107.5t-107 159.5t-39.5 195.5t39.5 195.5t107 159.5t158.5 107.5t195 39.5
q69 0 123 -7.5t94.5 -19t68.5 -24.5t46 -25q18 -11 39.5 -11t38.5 13l29 20q-71 -102 -128 -183q-24 -35 -48 -68.5t-43.5 -60.5t-32.5 -44.5t-16 -19.5q-12 -10 -27 -10t-27.5 6.5t-20 19t-5.5 28.5q2 15 10 24t18 12.5t20 0.5t18 -12q5 -5 11 -4.5t8 6.5q8 21 16 49.5
t4.5 58t-25.5 57.5t-74 49q-27 11 -60 13t-66 -2t-63 -13t-52 -19q-48 -22 -88.5 -56t-69.5 -77.5t-45.5 -94.5t-16.5 -108q0 -48 12.5 -93.5t35.5 -86.5t55.5 -75t73.5 -59q45 -27 105.5 -43.5t120.5 -16.5q33 0 63 7t53.5 16.5t40 19t23.5 14.5q5 3 5 9v189q0 10 -3 20
q-2 8 -6.5 15.5t-13.5 11.5q-4 2 -7.5 -0.5t-5.5 -6.5t-2 -5q-1 -1 -1 -2q-4 -11 -15 -19q-10 -7 -21.5 -8t-22.5 4q-12 5 -18.5 15.5t-4.5 23.5t10 22t19 14.5t23.5 7.5t24.5 2h261v0z" />
    <glyph glyph-name="H" unicode="H" horiz-adv-x="850" 
d="M636 -127q14 4 23 11t14 15.5t6.5 17t1.5 14.5v482q-9 -6 -31.5 -21.5t-51.5 -36t-62 -43t-63 -42.5t-54.5 -35t-37.5 -21v-286q0 -13 9 -30.5t35 -24.5h-208q13 4 22 11t13.5 15.5t6.5 17t2 14.5v251q-7 0 -12.5 -0.5t-11.5 -0.5q-30 0 -59.5 5t-56.5 16t-50 29t-40 44
q-17 25 -22 55.5t-0.5 59.5t17.5 52t34 34q18 9 38 1t22 -32q2 -12 -3 -24t-17 -16q-9 -5 -18.5 -2t-16.5 11l-1 1v-1q8 -40 34.5 -68.5t62.5 -33.5q20 -3 45 -2.5t55 5.5v513q-1 4 -3 12.5t-6.5 17.5t-13 17t-21.5 12h44h117h3h42q-21 -5 -32 -22t-10 -31v-476q6 4 26.5 18
t49 34t62 43.5t65 45t57.5 39.5t40 28v262q0 4 -2 12.5t-6.5 17.5t-13.5 17t-23 12h45h116h3h42q-20 -5 -31.5 -22t-10.5 -31v-575v-331q0 -13 9 -30.5t35 -24.5h-208v0z" />
    <glyph glyph-name="I" unicode="I" horiz-adv-x="233" 
d="M180 280v-351q0 -13 10 -30t37 -24h-221q29 8 38 26t9 31v905q0 4 -2 12t-7 17t-14 16.5t-24 11.5h47h125h2h45q-22 -5 -33.5 -21.5t-11.5 -29.5v-563z" />
    <glyph glyph-name="J" unicode="J" horiz-adv-x="608" 
d="M184 294q3 9 6 17.5t3 19.5q0 25 -13.5 38t-30.5 15t-34 -7t-24 -28q-1 -2 -1.5 -7t-2.5 -6q8 7 17.5 10t19.5 0q15 -2 25 -13.5t10 -26.5q0 -20 -14 -32t-33 -11q-23 2 -40 21.5t-22 39.5q-7 41 5.5 70.5t36 48t54 26t61.5 4t58 -18t42 -39.5q15 -24 18 -49t0 -47.5
t-9 -39t-9 -22.5l-108 -245h164q27 0 45 19t18 45v769q0 13 -11 29.5t-33 21.5h44h4h125h47q-14 -4 -23 -12t-14 -16.5t-7 -16.5l-3 -12v-899q2 -11 11.5 -27.5t34.5 -22.5h-46h-129h-89h-93.5h-89.5h-76t-52.5 0.5l-19.5 0.5q42 104 87.5 203.5t90.5 199.5z" />
    <glyph glyph-name="K" unicode="K" horiz-adv-x="604" 
d="M436 -32q0 24 0.5 53.5t1 58t0.5 54v41.5q0 57 -11 94.5t-29 61.5q-14 19 -33.5 29t-40.5 10.5t-42 -7.5t-36 -26l-77 -85v-318q0 -11 9 -27.5t35 -22.5h-207q13 3 22 10t13.5 14.5t6.5 15t2 13.5v905q0 4 -2 11.5t-7 16t-13.5 15.5t-21.5 11h44h117h2h42
q-20 -5 -31 -20.5t-11 -27.5v-406l277 301q9 11 18.5 22.5t16.5 23t9 22t-4 19.5q-3 2 -5 0q2 -19 -3.5 -31t-15.5 -17.5t-21.5 -4.5t-20.5 9q-24 18 -25 40.5t12.5 40t37 26.5t50.5 1q36 -11 56.5 -37t26 -58.5t-4.5 -68t-35 -66.5l-158 -176q85 -32 131 -112t46 -201v-42
t-0.5 -53.5t-1 -57.5t-0.5 -53v-38q2 -14 11 -28t32 -20h-206q26 7 34 24t10 27v34z" />
    <glyph glyph-name="L" unicode="L" horiz-adv-x="609" 
d="M608 -116l-45 -0.5t-121.5 -0.5h-177.5h-212h-2h-47q26 6 35.5 22t11.5 28v905q0 4 -2 12.5t-7.5 17.5t-14.5 16.5t-24 11.5h224q-21 -5 -34 -21.5t-12 -29.5v-773q0 -28 19.5 -46.5t46.5 -18.5h166l-110 248q-3 6 -9 23.5t-9 40t-0.5 48t17.5 48.5q18 27 47 41.5
t61.5 17t64 -6t55 -27.5t34 -48t0.5 -67q-5 -23 -22.5 -42.5t-40.5 -21.5q-19 -1 -33.5 11t-13.5 32q0 17 10 29t25 14q11 2 20 -1t17 -9q-5 23 -17.5 34.5t-27 13t-28.5 -5.5t-23 -19.5t-10.5 -30t9.5 -37.5z" />
    <glyph glyph-name="M" unicode="M" horiz-adv-x="1256" 
d="M1190 -60q6 -14 15 -25q8 -10 18.5 -19t26.5 -13h-240q46 12 46 47l-187 680l-172 -616q-7 -19 3 -38l13 -26h-30h-112h-30l12 24q10 19 4 42l-172 614l-181 -671q-5 -15 7.5 -32t41.5 -24h-199h-48q26 5 40 17.5t21 33.5l238 890q3 13 -1 26q-3 11 -14 24t-35 24h258
q-28 -8 -40 -22t-16 -28q-4 -17 0 -35l151 -543q5 -14 19.5 -14t19.5 14l151 543q4 15 0 30q-4 13 -15.5 28t-40.5 27h257q-21 -12 -31 -25t-15 -24q-5 -13 -5 -25l242 -884v0z" />
    <glyph glyph-name="N" unicode="N" horiz-adv-x="705" 
d="M476 -108q29 8 38 26.5t9 31.5v26q-21 96 -53.5 166t-70.5 122t-79.5 91t-81.5 74q-28 24 -56 50v-207v-326q0 -12 10 -29.5t37 -24.5h-223q29 8 38 26.5t9 31.5v781v13v90q0 4 -2 12t-7 17t-14 17t-24 12h47h126h3h45q-22 -5 -33.5 -22t-11.5 -30v-103q1 -33 10 -59.5
t27 -50.5t43.5 -48t59.5 -53q47 -40 99.5 -90.5t101.5 -125.5v524q0 4 -2 12t-7 17t-14 17t-24 12h47h126h3h44q-21 -5 -32.5 -22t-11.5 -30v-568v-326q0 -12 10 -29.5t37 -24.5h-223v0z" />
    <glyph glyph-name="O" unicode="O" horiz-adv-x="877" 
d="M439 895q89 0 167.5 -40t137.5 -108.5t93 -160t34 -195.5t-34 -196t-93 -160.5t-137.5 -108.5t-167.5 -40t-168 40t-138 108.5t-93 160.5t-34 196t34 195.5t93 160t138 108.5t168 40zM439 17q62 0 116.5 29.5t95.5 80.5t65 119t24 145q0 57 -13 109t-37 96.5t-57.5 79
t-73.5 56.5q-12 -3 -22.5 -9t-19 -11t-14 -9l-5.5 -4q-28 -27 -33 -52.5t0 -45t13.5 -32t8.5 -13.5q-4 19 3 32.5t19.5 20t29 6.5t31.5 -7q18 -8 25 -21t6 -28t-9 -30t-20 -26q-18 -16 -41.5 -21.5t-47.5 -1t-47 17.5t-41 34q-33 37 -43 85t7 94q9 24 20 46
q-51 -13 -95.5 -46t-76.5 -81.5t-50.5 -109.5t-18.5 -129q0 -77 23.5 -145t64.5 -119t96 -80.5t117 -29.5z" />
    <glyph glyph-name="P" unicode="P" horiz-adv-x="921" 
d="M791 767q50 -53 77.5 -123t31.5 -144t-16 -145.5t-65 -128.5q-38 -48 -89 -83.5t-108 -53.5q-26 -9 -51 -13t-50 -4q-29 0 -57 5t-55 16v-160q0 -12 10.5 -29.5t36.5 -24.5h-222q15 4 24.5 11t14.5 15t7 16.5t2 14.5v643q0 4 -2 12t-7.5 17t-14.5 17t-24 12h48h125h2h45
q-22 -6 -33.5 -23t-11.5 -30v-327v-13l1 1q17 -15 30 -23q26 -16 61 -20t72.5 5.5t75 33.5t69.5 65q30 38 44 87.5t11 100.5t-21.5 99.5t-52.5 84.5q-25 26 -54.5 42t-58.5 24.5t-56 11.5t-47 3q-78 0 -153.5 -37.5t-143.5 -108.5q-11 -12 -12.5 -32.5t3.5 -40.5l-171 129
q29 5 55.5 15.5t42.5 27.5q85 85 181 129.5t198 44.5q95 0 174 -30.5t134 -88.5z" />
    <glyph glyph-name="Q" unicode="Q" horiz-adv-x="877" 
d="M1386 -330q-21 4 -36.5 -7.5t-30.5 -24.5q-14 -16 -29 -28.5t-33 -23.5q-41 -25 -85.5 -39t-90.5 -19q-32 -2 -62 -1t-60 7q-61 11 -116 37.5t-100 68.5q-65 57 -108.5 126t-83.5 142q-28 -9 -57.5 -14.5t-60.5 -5.5q-88 0 -166 39.5t-136 107t-91.5 158.5t-33.5 194
q0 104 33.5 195t91.5 159t136 107.5t166 39.5t166 -39.5t136.5 -107.5t92 -159t33.5 -195q0 -69 -15.5 -132.5t-43.5 -119t-67 -101t-86 -78.5q36 -64 74.5 -126t91.5 -109q52 -46 118.5 -68t135.5 -16q66 6 119 37q13 8 27.5 17t25.5 19.5t17 23.5t4 30zM135 387
q0 -77 23.5 -144t64 -117t94.5 -79t116 -29q12 0 24 1t23 3q-35 40 -85 62t-105 19l-4 109q89 5 167.5 -33.5t129.5 -109.5q33 24 60 58t46.5 75t30.5 88t11 97q0 57 -13 109t-37 96t-57 78.5t-72 55.5q-12 -4 -22.5 -10t-19 -11t-13.5 -8.5l-5 -3.5q-27 -27 -32.5 -52
t-0.5 -44.5t13.5 -31.5t8.5 -13q-3 19 3.5 32t19.5 20t28.5 7t30.5 -7q18 -8 25.5 -21.5t6.5 -28.5t-9 -29.5t-21 -25.5q-18 -17 -41.5 -22t-47.5 -0.5t-46.5 17.5t-39.5 33q-33 37 -42.5 84t6.5 93q5 14 9.5 25t10.5 21q-51 -13 -94.5 -46.5t-76 -81.5t-50.5 -108t-18 -127
z" />
    <glyph glyph-name="R" unicode="R" horiz-adv-x="631" 
d="M761 -210q20 -7 42 -4t32 8l-14 -149q-12 1 -24 3t-23 4q-81 16 -152 55t-127.5 96t-95.5 129t-54 154q-8 46 -11.5 86.5t-5.5 75.5t-4.5 66.5t-9.5 63.5l-1 2q-59 29 -82 90q-4 9 -5 23t2 27t10.5 22t21.5 9q10 0 18.5 -8t8.5 -22q0 -13 -8.5 -22t-20.5 -7l-9 1
q26 -19 58 -24q27 -5 62 3t75 44q22 21 35 47t15 54.5t-6 56.5t-26 52l-1 2q-17 21 -41.5 34t-53.5 13h-182v-488v-348q0 -14 10 -31t38 -25h-226q29 8 38.5 26.5t9.5 32.5v895q0 4 -2.5 12.5t-7.5 17.5t-14 17t-24 12h360q57 0 107 -25t85 -70l1 -1q33 -43 46.5 -93
t9.5 -99.5t-26.5 -96t-61.5 -83.5q-35 -33 -81 -51q5 -31 7.5 -60.5t4.5 -61.5q2 -34 5 -70t11 -75q10 -57 35.5 -108t63 -92.5t85.5 -72t103 -47.5z" />
    <glyph glyph-name="S" unicode="S" horiz-adv-x="735" 
d="M545 424q26 -17 58 -40.5t60 -54t47 -69t19 -86.5q0 -62 -25 -114t-70 -89.5t-108 -58t-138 -20.5q-67 0 -117.5 16.5t-87 42t-61 57t-39.5 61.5q-11 20 -24 36t-25 27q-14 13 -28 23l204 85q-12 -16 -17 -36q-5 -17 -4.5 -40.5t13.5 -50.5q19 -39 64.5 -67t121.5 -28
q48 0 88 11.5t68 32t43.5 49t15.5 63.5q0 21 -10.5 39.5t-28 36.5t-40.5 34.5t-48 33.5q-27 18 -55 33t-58 32q-38 20 -77 42t-77 50q-41 30 -63.5 60.5t-33 59t-10.5 54.5t5 47q7 33 24.5 60.5t40 49t49 37t51.5 24.5q81 30 162.5 24t146.5 -48q16 -11 34.5 -7t28.5 21
l20 35v-95v-188q0 -15 0.5 -32t-1 -34t-7 -32.5t-16.5 -27.5q-10 -10 -26 -14t-32.5 -1.5t-29.5 11t-17 24.5q-2 9 0.5 18.5t8.5 16.5t15 11.5t18 4.5q14 0 27 -10q0 60 -19.5 109.5t-72.5 83.5q-38 25 -90.5 28.5t-104.5 -16.5q-29 -11 -55 -32t-32 -49q-1 -4 -2 -12
t3.5 -20t17 -27t36.5 -33q31 -23 65.5 -42.5t71.5 -39.5q31 -16 62 -33t61 -37z" />
    <glyph glyph-name="T" unicode="T" horiz-adv-x="674" 
d="M910 897q-7 -12 -25 -46t-42 -78t-50 -92t-49 -89t-39.5 -70t-20.5 -33q-11 -11 -25 -12.5t-27 4t-21.5 17t-7.5 26.5q0 18 9.5 28.5t21.5 12.5t24.5 -4.5t18.5 -22.5q11 32 23.5 58.5t23.5 53.5l3 9l4 10t4 11l12 30q12 34 4 48t-39 14h-189v-298v-199v-336
q0 -13 10.5 -29.5t38.5 -24.5h-226q15 4 24 11t14.5 15.5t7 17t1.5 14.5v829h-189q-31 0 -39.5 -14t2.5 -48l4 -9t8.5 -20.5t8.5 -21l4 -9.5q11 -27 23 -53.5t25 -58.5q6 16 18 22.5t24 4.5t21 -12.5t10 -28.5q1 -15 -8 -26.5t-21.5 -17t-27 -4t-25.5 12.5q-4 4 -20.5 32.5
t-39.5 70t-49 89.5t-49.5 92t-41.5 77.5t-25 46.5h904z" />
    <glyph glyph-name="U" unicode="U" horiz-adv-x="739" 
d="M687 105q0 -23 5.5 -35t12.5 -18q8 -7 19 -9q-22 0 -44 -12t-45.5 -29.5t-51 -38t-60 -38t-72.5 -29.5t-89 -12q-50 0 -89 12t-71 29.5t-57 38t-47 38t-42 29.5t-41 12q10 2 18 9q7 6 12.5 18t6.5 35v50q0 19 0.5 34.5t0.5 16.5v636q0 12 -10 29t-37 24h221
q-29 -8 -38 -26t-9 -31v-633q2 -55 22 -97q8 -18 21 -35.5t32.5 -31t45.5 -22t61 -8.5q47 0 80 14.5t55 36t34 46.5t18.5 47t8 36.5l1.5 14.5v636q0 12 -10.5 29t-36.5 24h221q-29 -8 -38 -25.5t-9 -30.5v-634l1 -100v0z" />
    <glyph glyph-name="V" unicode="V" horiz-adv-x="911" 
d="M875 1110q39 -121 37 -248.5t-46 -241.5q0 -1 -16 -42t-40.5 -105.5t-54.5 -142t-58 -152t-51.5 -135.5t-35.5 -92q-9 -24 -1 -49q2 -7 4.5 -13.5t4.5 -11.5h-220l12 23q14 30 2 61l-355 867q-17 39 -51 61h191q-10 -10 -12.5 -23.5t2.5 -27.5l325 -793q53 138 91 237.5
t64 168t42 109.5t24.5 64t11.5 30.5t4 9.5q36 95 38 201t-30 206q-29 86 -78 153t-115 112q-3 1 -9.5 5t-16.5 6t-22.5 0.5t-26.5 -9.5l80 177q1 -14 6.5 -24.5t13 -18t14 -12.5t8.5 -6q93 -56 160 -143.5t104 -200.5z" />
    <glyph glyph-name="W" unicode="W" horiz-adv-x="1242" 
d="M65 833q-6 13 -15 24q-8 10 -18.5 19t-25.5 13h44h193q-46 -12 -46 -46l185 -673l171 609q5 21 -4 38l-12 26h29h111h30l-12 -24q-10 -19 -4 -42l170 -607l179 664q4 14 -8.5 31t-39.5 24h197h47q-26 -5 -39.5 -17.5t-20.5 -32.5l-236 -877q-3 -13 1 -25q3 -11 13.5 -24
t35.5 -24h-255q27 8 39 21.5t16 27.5q4 16 0 35l-149 533q-5 14 -19.5 14t-19.5 -14l-149 -533q-5 -15 -1 -30q3 -13 15 -27.5t41 -26.5h-255q20 12 30.5 24.5t15.5 23.5q5 12 4 25l-238 871v0z" />
    <glyph glyph-name="X" unicode="X" horiz-adv-x="849" 
d="M698 1q23 -40 57 -71t76 -49h-66h-145h-2h-64q20 9 27.5 30t-3.5 41l-169 307q-39 -71 -78 -140.5t-74 -132.5t-66 -117.5t-54.5 -96t-39 -68t-20.5 -32.5q-18 -25 -39.5 -49t-46.5 -43.5t-54 -32.5t-62 -15q-29 -2 -58.5 3t-56.5 17.5t-49.5 31.5t-38.5 45
q-25 40 -23.5 88.5t31.5 86.5q19 24 46 30.5t49.5 -1.5t34.5 -29t2 -52q-4 -12 -13.5 -20t-21.5 -9t-24.5 6.5t-22.5 25.5q-1 0 -4 -3q-9 -9 -6.5 -21t10.5 -23t19 -21t18 -15q27 -20 60.5 -24.5t64.5 14.5q25 15 43.5 38.5t36.5 46.5q5 7 22 37t44 77t61 108t73 130.5
t80.5 144t82.5 148.5l-219 397q-10 17 -22.5 33t-26.5 30l-39 38h239q-11 -30 -9 -62.5t18 -60.5l133 -241q40 75 75 138.5t63 112.5q14 26 16.5 56t-8.5 57h54h3h144h2h42q-78 -63 -126 -152q-38 -68 -87.5 -157.5t-104.5 -188.5l216 -391v0z" />
    <glyph glyph-name="Y" unicode="Y" horiz-adv-x="723" 
d="M705 894q-23 -10 -37.5 -21t-22.5 -31q-14 -34 -33 -84.5t-42 -112.5t-49.5 -133t-53.5 -145q8 -1 15.5 -1h15.5v-130q-42 0 -77 7q-38 -104 -74.5 -201.5t-66 -175t-50.5 -128.5t-28 -60q-18 -25 -39.5 -49t-46.5 -44t-53.5 -33t-61.5 -15q-59 -4 -115.5 21t-88.5 76
q-25 41 -24 89.5t31 86.5q19 24 46.5 30.5t50 -1.5t35 -29t2.5 -52q-4 -12 -14 -20.5t-22 -9.5t-24.5 6.5t-21.5 26.5q-1 1 -5 -3q-9 -9 -7 -21t10.5 -23.5t19 -21t17.5 -14.5q28 -20 61.5 -25t64.5 14q25 16 43.5 39.5t35.5 46.5q6 9 25.5 57t46.5 122t60.5 167t68.5 191
q-19 12 -37 26.5t-35 31.5q-36 37 -62.5 81.5t-45.5 92t-31.5 95.5t-19.5 92t-10.5 81t-4.5 63q-1 15 -13 25t-24 16h199q-17 -8 -25 -18.5t-6 -29.5q2 -35 8 -87.5t21 -110t40.5 -113t66.5 -97.5q13 -13 25 -21q24 67 46.5 131.5t43 120.5t37.5 101.5t29 75.5
q5 13 0.5 25.5t-20.5 22.5h226v0z" />
    <glyph glyph-name="Z" unicode="Z" horiz-adv-x="721" 
d="M650 261q-6 -18 9 -38q29 -35 42.5 -78t10.5 -88q-2 -50 -25.5 -94.5t-61.5 -76.5l-17 -14h-603l509 901h-292q-8 0 -18 -4t-20 -12t-17.5 -19.5t-9.5 -26.5q-2 -18 -1 -28.5t3 -15.5q2 -6 6 -8q1 5 5.5 11.5t11.5 6.5q8 0 13.5 -8.5t5.5 -19.5t-3.5 -17t-8 -8.5t-9.5 -3
t-7 -0.5q-17 0 -25 11.5t-8 27.5v40v221h1l1 -1q11 -10 26 -15t29 -5h532l-507 -901h292q29 0 51.5 19.5t23.5 50.5q0 15 -3 27t-8 25q-7 12 -21 17t-27 -2l120 129v-3z" />
    <glyph glyph-name="bracketleft" unicode="[" horiz-adv-x="251" 
d="M104 -73h50q48 0 91 23v-137l-7 3q-32 13 -71 13h-161v829h161q37 0 71 14l7 2v-137q-43 23 -91 23h-50v-633z" />
    <glyph glyph-name="backslash" unicode="\" horiz-adv-x="434" 
d="M272 -6q12 40 -7 78l-164 325q-17 32 -41 60t-54 49h171q-7 -16 -6 -34t9 -33l196 -385q8 -15 19 -28l33 -32h-156z" />
    <glyph glyph-name="bracketright" unicode="]" horiz-adv-x="251" 
d="M147 560h-50q-48 0 -91 -23v137l7 -2q36 -14 71 -14h161v-829h-161q-38 0 -71 -13l-7 -3v137q43 -23 91 -23h50v633z" />
    <glyph glyph-name="asciicircum" unicode="^" horiz-adv-x="510" 
d="M381 294l-1 14q-2 21 -9 41t-18 38l-98 147l-104 -156q-24 -37 -27 -83l-118 69h1q39 19 64 57l183 276l184 -275q17 -26 44 -44l22 -16z" />
    <glyph glyph-name="underscore" unicode="_" horiz-adv-x="607" 
d="M553 -64q1 0 8 1.5t15 5.5t15 10.5t10 16.5v-134q-3 10 -10.5 16.5t-15.5 10t-14.5 4.5t-7.5 1h-502q-1 0 -7 -1t-13.5 -4t-14.5 -9.5t-10 -17.5v132q3 -11 10.5 -17t15.5 -9q9 -4 19 -5l502 -1v0z" />
    <glyph glyph-name="grave" unicode="`" horiz-adv-x="160" 
d="M119 480l2 13q0 1 -1 5t-10 19.5t-27.5 48.5t-52.5 93q-3 6 -9.5 13.5t-14.5 13.5h69q-10 8 -4.5 -9.5t21 -49.5t39.5 -71.5t51 -75.5h-63z" />
    <glyph glyph-name="a" unicode="a" horiz-adv-x="507" 
d="M501 1h-40h-23h-57h-9h-69q5 1 11 4q5 2 11 5t12 8q11 6 15 17.5t0 23.5l-25 71q-38 6 -71 22t-61 36l-40 -125q-5 -16 2 -30.5t21 -21.5q8 -3 14.5 -5.5t6.5 -4.5h-193q0 2 17 9q31 15 44 48l59 187q-14 12 -30 25t-23 15l2 -1v92q22 0 41 -10t39 -27l43 130
q6 21 -14 33h124q-7 -5 -9.5 -13.5t0.5 -16.5l139 -406q16 -46 62 -65h1zM224 281q15 -12 31.5 -23.5t33.5 -19.5l-41 119z" />
    <glyph glyph-name="b" unicode="b" horiz-adv-x="392" 
d="M6 0q7 2 14 6q14 7 25 18q5 5 7.5 12t4.5 12q2 6 2 13v384q0 10 -3.5 17.5t-8.5 14.5l-24 26h216q40 0 69 -25.5t40 -69.5q9 -37 -0.5 -76t-44.5 -62l63 -68l3 -4q12 -18 17 -40t3 -44t-11 -43t-24 -36q-17 -17 -38.5 -26t-44.5 -9h-57h-208zM271 90q13 0 20 8
q8 8 9 22.5t-4 25.5l-92 97l-44 -12v-141h111zM160 317l50 13q20 4 40 18q25 16 19 44q-2 8 -9 16.5t-20 8.5h-80v-100z" />
    <glyph glyph-name="c" unicode="c" horiz-adv-x="357" 
d="M340 172v-21q0 -32 -12 -59.5t-33 -48.5t-49 -33t-59 -12h-12h-16q-32 0 -59.5 12t-48.5 33t-33 49t-12 60v196q0 31 12 59t33 49t48.5 33t59.5 12h19q23 0 47 -8t43 -17q22 -11 43 -25q9 -4 14.5 3.5t7.5 11.5l4 8t7 4h7l-75 -180h2q13 0 22.5 -9.5t7.5 -23.5
q-2 -13 -12 -20.5t-23 -5.5q-14 2 -20.5 15.5t-6.5 27.5v64q0 18 -11.5 31t-28 19.5t-36.5 6t-36.5 -8.5t-28 -24.5t-11.5 -41.5v-155q0 -15 5.5 -28.5t14.5 -24.5t22 -17.5t28 -6.5h15q24 1 38.5 14.5t20.5 35.5q2 8 -2 15.5t-12 10.5h21h95z" />
    <glyph glyph-name="d" unicode="d" horiz-adv-x="386" 
d="M360 392q11 -34 16 -72.5t3.5 -77.5t-10 -76.5t-24.5 -70.5q-23 -48 -60 -73t-84 -25h-91h-62h-42q12 3 20 9.5t12.5 13.5t6.5 14t3 11v6v394v8q-2 10 -9.5 26.5t-32.5 23.5h42h89h23h63q14 0 33 -4t38.5 -15.5t37 -33.5t28.5 -58zM273 164q14 47 14 101t-15 102
q-7 21 -20 31t-36 12h-79v-322h65q15 0 26.5 7t20 18.5t14.5 25t10 25.5z" />
    <glyph glyph-name="e" unicode="e" horiz-adv-x="397" 
d="M391 -1h-291h-50h-1h-43q16 5 24.5 13.5t12.5 17.5q4 11 5 22v383q0 24 -11 43.5t-31 24.5h330v-79v-26q-5 6 -11 11q-5 5 -14 8.5t-21 3.5h-151v-159h31q12 0 19 10l5 8v-94l-6 10q-7 9 -17 9h-32v-123h139l-34 116q-5 20 3 38t22.5 31t33.5 17.5t38 -2.5
q14 -6 21.5 -18t7 -24.5t-9 -21.5t-24.5 -9q-13 0 -19 12.5t8 26.5l-1 1h-1q-18 -7 -18.5 -19.5t5.5 -29.5z" />
    <glyph glyph-name="f" unicode="f" horiz-adv-x="364" 
d="M326 485l6.5 6.5t9.5 7.5q7 5 12 5h4q-4 -6 -15.5 -23.5t-26.5 -40t-32 -47.5t-31.5 -46.5t-25 -36t-12.5 -16.5q-6 -5 -13.5 -5t-14 3.5t-10.5 9.5t-3 14q1 9 6.5 14t11.5 6t12 -3.5t9 -13.5q8 17 15 29.5t15 26.5q3 5 6.5 13t2 16t-9.5 13.5t-27 5.5h-75l1 -155h34
q11 0 16 7l7 8v-92l-7 9q-6 8 -17 8h-33v-113v-43q2 -11 7 -22q5 -9 13 -17.5t22 -12.5h-43h-92h-42q15 5 23 14t12 18q4 11 6 23v209v192q-1 10 -9 26t-32 22h42h240q11 0 15.5 -4.5t6.5 -8.5q4 -4 4 -6q2 -4 4.5 -4t7.5 4z" />
    <glyph glyph-name="g" unicode="g" horiz-adv-x="364" 
d="M365 229v-3q-6 -1 -11 -5q-5 -3 -8.5 -9.5t-4.5 -17.5v-1v-39q0 -32 -12 -60t-33 -48.5t-49 -32.5t-59 -12h-14h-14q-32 0 -60 12t-49 33t-33 49t-12 60v196q0 31 12 59t33 49t49 33t60 12h19q23 0 47 -8t43 -17q22 -11 42 -24q9 -4 14 2.5t7 10.5q2 5 4.5 8.5t8.5 3.5h6
l-75 -179h2q13 0 21 -8.5t8 -21.5q0 -12 -8 -20t-21 -8q-17 0 -23.5 13.5t-6.5 28.5v64q0 27 -24 42t-53 14t-53 -19t-24 -56v-154q0 -15 5.5 -28.5t14.5 -24.5t22 -17.5t28 -6.5h15q30 1 52 22.5t22 51.5q0 8 -1.5 13.5t-3.5 10.5q-6 8 -14.5 12t-18 5.5t-19.5 1t-19 -1.5
q-15 -1 -10 -6q8 0 13 -5t5 -13q0 -11 -9 -16.5t-18 -0.5q-7 5 -10 13.5t-3 16.5q0 15 13 20t27 5z" />
    <glyph glyph-name="h" unicode="h" horiz-adv-x="438" 
d="M255 0q13 3 21.5 13t13 21t6 19.5t1.5 10.5v168h-157l-1 -169q0 -2 2 -10.5t7 -19t13.5 -20.5t21.5 -13h-177q13 3 21.5 13t13.5 21t6.5 19.5t1.5 10.5v377q0 2 -1 10.5t-5 18t-12.5 19t-22.5 13.5h174q-15 -5 -23.5 -14.5t-12.5 -20.5q-5 -12 -6 -26v-130h157v130
q0 2 -1 10.5t-4.5 18t-12 19t-23.5 13.5h175q-15 -5 -23.5 -14.5t-12.5 -20.5q-5 -12 -6 -26l-2 -378q0 -2 2 -10.5t7.5 -19t14 -20.5t21.5 -13h-177v0z" />
    <glyph glyph-name="i" unicode="i" horiz-adv-x="188" 
d="M138 61q0 -1 2 -9.5t7 -19t13.5 -20t21.5 -12.5h-176q13 3 21 13t12.5 20.5t6.5 19t2 9.5v382q0 2 -1 10t-5 18t-12 19t-23 13h173q-14 -5 -22 -15t-12 -20q-4 -12 -6 -25l-2 -383v0z" />
    <glyph glyph-name="j" unicode="j" horiz-adv-x="363" 
d="M357 503q-11 -6 -17.5 -15.5t-10.5 -18.5q-4 -11 -7 -21v-258q0 -54 -15 -95q-7 -18 -17.5 -35t-27 -30.5t-39 -21.5t-52.5 -8q-48 0 -77.5 19t-46 45.5t-22 54.5t-6.5 47q-1 16 -3 28t-4 20q-3 9 -6 15h129q-10 -8 -15 -21q-5 -11 -7 -30t6 -47q4 -17 17 -28t33 -11
q26 0 39 15t19 34q7 21 7 49v259q0 9 -4 19q-3 8 -10 17.5t-21 17.5h158v0z" />
    <glyph glyph-name="k" unicode="k" horiz-adv-x="404" 
d="M346 53q6 -12 14 -22q7 -9 16.5 -17t21.5 -13h-174q10 3 16.5 8t11.5 10q10 12 3 24l-92 176q-1 2 -4 2.5t-5 -1.5q-6 -6 -10.5 -11.5t-7.5 -9.5q-1 -1 -1 -4v-143q0 -5 2 -12t6.5 -15t13 -15t21.5 -10h-172q20 5 28.5 17t11.5 22v426q-3 9 -11.5 21.5t-28.5 17.5h172
q-13 -3 -21.5 -10t-13 -15t-6.5 -15.5t-2 -11.5v-145q0 -3 1 -4l104 159q3 7 1 14t-7 12.5t-12 9.5t-14 6h176q-12 -5 -21.5 -14t-16.5 -17q-8 -11 -14 -21l-103 -165l117 -234v0z" />
    <glyph glyph-name="l" unicode="l" horiz-adv-x="322" 
d="M316 2h-88h-37h-185q16 5 24.5 14t12.5 18q4 11 5 23v399q-2 15 -10.5 28t-31.5 19h170q-21 -5 -29.5 -16t-10.5 -28v-372h61l-4 13l-23 99q-5 21 2 39.5t21.5 31t34 17t38.5 -2.5q15 -6 22 -18t7 -24t-8 -21.5t-24 -9.5q-14 0 -20.5 12.5t7.5 27.5q0 3 -2 3
q-18 -8 -18.5 -21.5t5.5 -30.5z" />
    <glyph glyph-name="m" unicode="m" horiz-adv-x="440" 
d="M392 46q2 -11 10.5 -26.5t31.5 -21.5h-42h-87h-1h-42q23 6 31.5 21.5t10.5 25.5v293l-80 -117q-7 -9 -15 1l-73 115v-298q3 -11 12 -23.5t29 -17.5h-41h-2h-85h-1h-42q23 6 31.5 21t10.5 25v413q-2 10 -10.5 25t-31.5 21h171q-8 -3 -17 -8q-9 -6 -11 -17t4 -20l58 -84
q2 -4 6 -4t6 4l63 84q8 11 5 22.5t-14 17.5q-3 2 -6 2.5t-7 2.5h170q-23 -6 -31.5 -22t-10.5 -27v-408v0z" />
    <glyph glyph-name="n" unicode="n" horiz-adv-x="417" 
d="M239 0q12 3 20 9.5t13 13.5t7 14t2 11v39q0 25 -15 59t-36.5 67t-46.5 62t-46 44v-271q1 -9 9 -25.5t32 -22.5h-172q12 3 20.5 10.5t13.5 16.5t7 17t2 13v399q0 11 -9 26t-33 21h171q-22 -6 -31.5 -20.5t-9.5 -23.5v-28q24 -15 64.5 -46t79.5 -75v146q0 11 -9 26t-32 21
h170q-22 -6 -32 -20t-10 -24v-331v-14v-26.5v-26.5v-13q2 -9 10.5 -25.5t32.5 -22.5h-172v0z" />
    <glyph glyph-name="o" unicode="o" 
d="M178 502q31 0 59 -12t49 -33t33 -49t12 -59v-196q0 -32 -12 -59.5t-33 -48t-49 -32.5t-59 -12h-19q-32 0 -59.5 12t-48.5 32.5t-33 48t-12 59.5v196q0 31 12 59t33 49t48.5 33t59.5 12h19zM257 300l-16 -14q-12 -12 -24.5 -18t-32.5 -4q-15 2 -25.5 11.5t-13 21.5t3 22.5
t21.5 15.5q13 3 22 -7t-1 -29q0 -3 2 -1q4 3 10.5 9t12.5 14.5t10.5 19t4.5 22.5q0 3 -2 9.5t-9 14t-19 13t-32 5.5q-32 0 -53.5 -22t-21.5 -53v-158q0 -30 21.5 -52t53.5 -22q31 0 53 22t22 52v104z" />
    <glyph glyph-name="p" unicode="p" horiz-adv-x="366" 
d="M311 475q19 -15 28.5 -37t13 -45.5t2.5 -43.5t-2 -30q-5 -42 -25.5 -75t-52.5 -49q-26 -14 -55 -14q-23 0 -45.5 9t-39.5 26l-1 -154q0 -2 2 -10.5t7 -18.5t13.5 -19.5t20.5 -12.5h-171q13 3 21 12.5t12.5 19.5t6 18.5t1.5 10.5v382q0 2 -1 10t-5 17.5t-12 18.5t-22 13
h169q-14 -5 -22 -14.5t-12 -19.5q-4 -11 -6 -25l-1 -95q0 -26 13.5 -48.5t36.5 -34.5q4 -2 8.5 -3.5l7.5 -2.5q35 -3 53 22q9 14 13.5 33.5t4.5 39.5t-3.5 39t-10.5 33q-6 10 -10.5 12.5t-9.5 2.5q-6 0 -9 -3v-3q0 -1 1 -1h1l1 -1q3 0 7.5 -0.5t7.5 -4.5q7 -6 8.5 -15.5
t-2.5 -17.5q-2 -5 -10 -13.5t-29 -8.5q-11 0 -21 5.5t-17.5 14.5t-12 19.5t-4.5 20.5q0 18 8 30t19.5 19t24.5 10t22 3q51 0 78 -21z" />
    <glyph glyph-name="q" unicode="q" horiz-adv-x="363" 
d="M127 498q9 0 22 -3t25 -10t20 -19t8 -30q0 -21 -16 -41t-39 -20q-22 0 -30 8.5t-10 13.5q-4 8 -2.5 17.5t8.5 16.5q3 4 7.5 4.5t7.5 0.5l2 1v1q1 1 1 2q-3 3 -9 3q-5 0 -9.5 -2.5t-10.5 -12.5q-7 -14 -11 -33t-3.5 -39.5t5 -40t13.5 -33.5q12 -17 32.5 -20.5t37.5 4.5
q23 12 36.5 34.5t12.5 48.5v94q2 25 17.5 42.5t40.5 17.5h72q-14 -4 -22.5 -13t-12.5 -19t-5 -18t-1 -10v-382q0 -2 2 -10.5t6.5 -19t12.5 -20t21 -12.5h-172q12 3 20.5 12.5t13.5 20t7 19t2 10.5l-1 155q-18 -17 -40.5 -25.5t-45.5 -8.5q-29 0 -52.5 12t-40.5 31
t-27.5 43.5t-14.5 50.5q-3 36 1 68.5t17.5 57t38.5 39t65 14.5z" />
    <glyph glyph-name="r" unicode="r" horiz-adv-x="430" 
d="M138 66q0 -2 2 -11t7.5 -19.5t14 -20.5t21.5 -13h-177q13 4 21 14t13 20.5t7 19t2 10.5v378q0 2 -1 10.5t-5.5 18.5t-12.5 19.5t-23 14.5h216q29 0 50.5 -14.5t35.5 -36.5t19.5 -49.5t0.5 -53.5t-20 -48t-41 -33q-5 -1 -11 -3l100 -189q24 -47 68 -77l1 -1h-158
q11 41 -10 79l-101 166l-17 -3zM140 315q8 2 23 5t30 7q11 3 22.5 7.5t21.5 12.5q6 5 10.5 9t9.5 10q3 6 3.5 15t-1.5 18t-6 16.5t-10 11.5q-4 2 -7 3l-6 2q-4 1 -7 1h-83v-118z" />
    <glyph glyph-name="s" unicode="s" horiz-adv-x="345" 
d="M168 319q24 -12 52 -27.5t51.5 -36t39.5 -46.5t16 -59q0 -34 -14 -62q-10 -22 -27.5 -39t-39.5 -28q-10 -5 -19.5 -8t-20.5 -6q-37 -11 -73.5 -5.5t-74.5 10.5q-12 2 -24.5 -0.5t-21.5 -11.5v30v161q5 -14 13.5 -29.5t13.5 -23.5q13 -21 34.5 -33.5t45.5 -16t48.5 2
t44.5 19.5q19 13 22 31.5t-12 35.5q-14 15 -35 26.5t-40 22.5q-24 13 -51 27.5t-49.5 33.5t-37.5 43t-15 56q0 33 16.5 55.5t42 36.5t56 20t59.5 5q31 -1 57 -11t46.5 -18t35 -10t22.5 13q3 5 5 8t7 3h7l-67 -153q1 0 2 1q14 0 22.5 -10t6.5 -23t-11 -21t-23 -6t-20 16
t-6 26v57q0 20 -9 33.5t-23 21t-31.5 9.5t-33.5 0q-11 -2 -23.5 -5t-23.5 -8.5t-18.5 -14.5t-7.5 -22t10 -23.5t23.5 -19t28.5 -15.5t24 -12z" />
    <glyph glyph-name="t" unicode="t" horiz-adv-x="323" 
d="M317 393v-6q-2 -8 -7 -15t-13 -9q-11 -3 -19.5 4t-8.5 18q0 10 6.5 16.5t16.5 6.5h4l-3 4q-8 10 -19 16t-24 6h-43l-1 -371q0 -1 0.5 -11t5 -21.5t13 -21t25.5 -9.5h-176q16 0 25 9.5t13 21t4.5 21.5t0.5 12v370h-43q-14 0 -24.5 -6t-18.5 -16l-3 -4h1q10 0 16.5 -6.5
t6.5 -16.5t-7 -17t-16 -6q-9 0 -15.5 6.5t-7.5 15.5v1v2v116h201h110v-110z" />
    <glyph glyph-name="u" unicode="u" horiz-adv-x="398" 
d="M392 504q-23 -6 -32 -21t-9 -25v-267q1 -54 -15 -95q-7 -18 -17.5 -35t-27 -30.5t-39 -21.5t-52.5 -8q-31 0 -54 8t-39.5 21.5t-27 30t-16.5 34.5q-15 41 -14 95v264q0 11 -9 27t-34 23h172q-26 -7 -34 -24t-8 -28v-261q0 -28 7 -49q5 -19 18 -34t37 -15q26 0 38.5 15
t18.5 34q6 21 7 49v261q0 11 -7 28t-33 24h170v0z" />
    <glyph glyph-name="v" unicode="v" horiz-adv-x="509" 
d="M6 504h199q-10 0 -19.5 -5t-16.5 -13.5t-10.5 -19t-0.5 -21.5l103 -298l93 296q4 21 1.5 32t-9.5 16.5t-16.5 7.5t-19.5 5h195q-20 -8 -38 -22t-24 -37l-131 -413q-3 -9 0.5 -18t11.5 -14h-124q8 5 11 13t-1 17l-140 409q-8 22 -24.5 39t-38.5 26h-1z" />
    <glyph glyph-name="w" unicode="w" horiz-adv-x="713" 
d="M708 503q0 -1 -4.5 -3t-11.5 -6q-17 -7 -28.5 -19.5t-16.5 -29.5l-130 -415q-2 -8 1.5 -17t11.5 -14h-124q8 5 10 13t0 16l-55 161l-51 -159q-3 -8 0.5 -17t12.5 -14h-124q7 5 10 13t0 16l-138 409q-8 23 -25 40.5t-39 25.5h-1h198q-6 -2 -11 -5l-22 -11q-11 -7 -15 -19
t1 -25l103 -298l101 303l106 -303l92 296q5 17 -2 31t-22 21q-8 3 -13.5 5.5t-5.5 4.5h192z" />
    <glyph glyph-name="x" unicode="x" horiz-adv-x="452" 
d="M378 64q8 -16 22 -30t46 -34h-179q11 11 14 26.5t-5 29.5l-50 91l-51 -91q-7 -14 -4 -29.5t15 -26.5h-180q32 20 46.5 34t22.5 30l98 182l-104 196q-8 17 -18.5 28t-20.5 19q-11 9 -24 14h170q-9 -11 -11 -25.5t5 -27.5l56 -105l56 105q7 13 5 27.5t-11 25.5h170
q-13 -5 -24 -14q-10 -8 -20.5 -19t-17.5 -28l-105 -196l99 -182v0z" />
    <glyph glyph-name="y" unicode="y" horiz-adv-x="412" 
d="M246 64q0 -2 2 -10.5t7.5 -19t14 -20.5t22.5 -13h-179q13 3 21.5 13t13 20.5t6.5 19.5t2 11v201l-102 189q-5 9 -9 16.5t-8.5 13.5t-11.5 10.5t-19 7.5h156q-8 -10 -9 -23.5t5 -23.5l44 -82l44 82q6 10 6 23t-7 25h161q-13 -5 -21.5 -10t-14.5 -11t-10.5 -13t-9.5 -17
l-103 -189l-1 -200v0z" />
    <glyph glyph-name="z" unicode="z" horiz-adv-x="415" 
d="M284 91q44 0 85 25l22 15v-40v-91h-385l230 413h-127q-22 0 -36 -9.5t-30 -24.5v125h366l-232 -413h107v0z" />
    <glyph glyph-name="braceleft" unicode="{" horiz-adv-x="369" 
d="M232 533v-131q0 -21 -5.5 -31.5t-15.5 -21.5l-82 -91q-16 -17 -15.5 -39.5t17.5 -39.5l69 -67q23 -23 23 -56v-115h47q46 0 85 21v-128l-6 2q-30 13 -67 13h-150v187q0 34 -25 57l-80 76q-20 19 -20.5 46t18.5 47l93 101q22 22 22 53v209h150q37 0 67 13l6 2v-128
q-39 21 -85 21h-46z" />
    <glyph glyph-name="bar" unicode="|" horiz-adv-x="175" 
d="M134 182v-321q0 -9 7.5 -22t27.5 -18h-163q22 6 28.5 19.5t6.5 22.5v729q-1 6 -7 21t-28 21h35h91h2h33q-16 -4 -24.5 -16t-8.5 -22v-414z" />
    <glyph glyph-name="braceright" unicode="}" horiz-adv-x="369" 
d="M91 527q-46 0 -85 -21v128l6 -2q30 -13 67 -13h151v-209q0 -14 5 -28t16 -25l94 -101q18 -20 17.5 -47t-20.5 -46l-80 -76q-24 -23 -24 -57v-187h-151q-37 0 -67 -13l-6 -2v128q39 -21 85 -21h47v115q0 33 23 56l69 67q17 17 17.5 39.5t-14.5 39.5l-83 91q-20 22 -20 53
v131h-47z" />
    <glyph glyph-name="asciitilde" unicode="~" horiz-adv-x="485" 
d="M331 163q-50 0 -92 27q-82 53 -121 26l-28 -19q-22 -16 -31 -39l-2 -5l-51 80q28 0 51 15l26 18q74 50 189 -25q27 -17 59.5 -17t59.5 18l1 1q22 13 32 39l3 7l52 -84h-1q-29 2 -54 -14q-21 -14 -45 -21t-48 -7z" />
    <glyph glyph-name="exclamdown" unicode="&#xa1;" horiz-adv-x="833" 
d="M369 64q0 -1 2 -9.5t7 -19t13.5 -20t21.5 -12.5h-176q13 3 21 13t12.5 20.5t6.5 19t2 9.5v246q0 2 -1 10t-5 18t-12 19t-23 13h173q-14 -5 -22 -15t-12 -20q-4 -12 -6 -25zM386 436q0 -18 8 -39l-6 2q-17 5 -31 5h-54q-13 0 -30 -5l-6 -2q7 18 7 39v53q0 21 -7 38l11 -2
q5 -1 10 -1.5t10 -0.5h65q5 0 9.5 0.5t9.5 1.5l12 2q-8 -19 -8 -38v-53z" />
    <glyph glyph-name="cent" unicode="&#xa2;" horiz-adv-x="354" 
d="M367 90q-6 0 -12 -3q-14 -5 -29 -26q-22 -30 -54 -49t-71 -21v-57q0 -10 7 -22.5t27 -17.5h-121q22 5 28 19t6 23v56q-30 4 -55.5 18.5t-44 36t-29.5 49t-11 58.5v209q0 31 11 58.5t29.5 49t44 35.5t55.5 19v56q0 6 -6 21t-28 21h34h51h2h33q-16 -5 -24.5 -16.5
t-8.5 -21.5v-59q31 -2 58 -14.5t47 -32.5q8 -8 18.5 -8t18.5 7l4 4l-46 -127q0 14 -10 30.5t-33 28.5q-28 13 -57 13v-256v-75q11 2 18 6t12 8q6 6 7 12.5t-1 11.5q-2 6 -6 12zM101 171q0 -24 13.5 -43.5t33.5 -27.5v316q-3 -2 -6.5 -4t-6.5 -4q-17 -11 -25.5 -29t-8.5 -38
v-170z" />
    <glyph glyph-name="sterling" unicode="&#xa3;" horiz-adv-x="833" 
d="M452 109l49 -96l-26 -13q-33 -17 -69.5 -19t-71.5 11l-36 13q-2 1 -3.5 1t-3.5 1q-30 9 -61 1t-54 -29l-20 -19l-47 94l48 24q19 9 42 16v116h-15q-26 0 -50 -9l-5 -2v115q30 -14 60 -14h10v61q0 47 26.5 85t69.5 54q51 19 101 9.5t88 -43.5q16 -13 29 -31l-79 -61
q-2 11 -8 20.5t-14 14.5q-41 24 -86 7q-17 -6 -27.5 -21t-10.5 -34v-61h61q23 0 47 8l6 2v-114q-27 14 -61 14h-53v-111q11 -2 21 -4t20 -6l36 -13v-1q24 -8 48 1t38 31z" />
    <glyph glyph-name="currency" unicode="&#xa4;" horiz-adv-x="519" 
d="M358 75q4 14 4.5 27t-1.5 26q-23 -11 -47 -15.5t-48 -4.5q-20 0 -38.5 2.5t-36.5 9.5q0 -11 0.5 -22.5t2.5 -22.5h-152l33 33q6 5 10.5 11.5t9.5 14.5l18 34q-65 63 -65 154q0 42 14.5 78.5t38.5 65.5l-2 3q-17 32 -40.5 58t-52.5 49h167q-10 -29 0 -57q20 9 44 15t49 6
q18 0 35.5 -3.5t35.5 -7.5q2 11 2 23.5t-5 23.5h167q-53 -40 -87 -95q32 -32 49 -71.5t17 -87.5q0 -38 -12.5 -72.5t-35.5 -64.5l28 -51q8 -18 20 -26l33 -33h-155zM134 322q0 -26 10.5 -49t28.5 -40t42 -27.5t51 -10.5q25 0 48.5 10.5t40.5 27.5t27.5 40t10.5 49
q0 27 -10.5 50.5t-27.5 40.5t-40.5 27t-48.5 10q-27 0 -51 -10t-42 -27t-28.5 -40.5t-10.5 -50.5z" />
    <glyph glyph-name="yen" unicode="&#xa5;" horiz-adv-x="818" 
d="M471 252v-114h288q9 0 22.5 7.5t18.5 27.5v-168q-6 23 -20 29.5t-24 6.5h-285q-1 -26 -3 -51t-8 -51q-8 -34 -20 -65.5t-31 -60.5q-23 -35 -51.5 -60.5t-57.5 -48.5q-21 -15 -33 -39l-82 90l6 2q32 10 57 30q24 18 44 37t36 42q23 34 34.5 73t11.5 79v23h-316
q-10 0 -22.5 -8.5t-16.5 -25.5v27.5t-0.5 56t-0.5 56v27.5q3 -11 9 -18t13 -11t13 -5.5t9 -1.5h312v114h-316q-10 0 -22.5 -8.5t-16.5 -25.5v27.5t-0.5 56t-0.5 56v27.5q3 -11 9 -18t13 -11t13 -5.5t9 -1.5h312v54l-294 414q-26 37 -58 66l-16 14h200q-17 -14 -19.5 -35.5
t9.5 -38.5l223 -317l216 326q9 14 9 30t-8 30l-3 5h179l-21 -21q-29 -27 -52 -63l-268 -405v-59h288q9 0 22.5 7.5t18.5 27.5v-168q-6 23 -20 29.5t-24 6.5h-285z" />
    <glyph glyph-name="brokenbar" unicode="&#xa6;" horiz-adv-x="151" 
d="M41 593q0 1 -1.5 8t-5.5 15t-11 15.5t-17 10.5h139q-11 -3 -17.5 -10.5t-10 -16t-5 -15.5t-1.5 -8v-278v-42h-71v39zM110 -115q0 -1 1.5 -8t5.5 -15t11 -15.5t17 -10.5h-139q10 3 17 10.5t10.5 16t5 15.5t1.5 8v278v42h71v-39z" />
    <glyph glyph-name="section" unicode="&#xa7;" horiz-adv-x="253" 
d="M194 182q18 -15 31.5 -34t13.5 -44q0 -47 -35.5 -76t-91.5 -29h-34h1l-29 8q-18 5 -31 -8q-1 33 -1 61v74q4 -10 10 -21.5t10 -16.5q8 -11 20 -17.5t25 -11.5q18 -5 38.5 -3.5t36.5 12.5q13 9 15 22t-9 24q-9 11 -23.5 19t-26.5 15q-17 9 -36 19.5t-35 23.5t-26.5 30
t-10.5 40q0 7 2 16.5t8 19.5t17 19.5t30 15.5q5 3 16 5q-26 15 -45.5 35.5t-19.5 52.5q0 7 2 17t8 20t17 19.5t29 15.5h1q3 2 21.5 6t43.5 4q23 0 43 -6t32 -11q6 -2 12.5 -0.5t10.5 7.5v-95q0 -8 -2 -13q-4 -13 -15 -13q-8 0 -13 5.5t-5 12.5q0 17 18 17q2 0 4.5 -0.5
t4.5 -0.5q-4 9 -10.5 18t-16.5 16.5t-23.5 12.5t-31.5 5q-27 0 -48 -8.5t-21 -25.5q0 -10 7 -17.5t16.5 -13.5t20 -10.5l17.5 -7.5q12 -8 25 -14.5t25 -14.5q23 -15 42 -37.5t19 -51.5t-14 -51t-39 -36zM166 240q13 9 15 22t-9 26q-9 9 -20 16q-4 0 -8 0.5t-8 0.5
q-27 0 -47.5 -8.5t-20.5 -26.5q0 -14 16 -24.5t31 -17.5q14 -2 27 1.5t24 10.5z" />
    <glyph glyph-name="dieresis" unicode="&#xa8;" horiz-adv-x="304" 
d="M125 561q0 -18 8 -39l-6 2q-17 5 -31 5h-54q-13 0 -30 -5l-6 -2q7 18 7 39v53q0 21 -7 38l11 -2q5 -1 10 -1.5t10 -0.5h65q5 0 9.5 0.5t9.5 1.5l12 2q-8 -19 -8 -38v-53zM290 561q0 -18 8 -39l-6 2q-17 5 -31 5h-54q-13 0 -30 -5l-6 -2q7 18 7 39v53q0 21 -7 38l11 -2
q5 -1 10 -1.5t10 -0.5h65q5 0 9.5 0.5t9.5 1.5l12 2q-8 -19 -8 -38v-53z" />
    <glyph glyph-name="copyright" unicode="&#xa9;" horiz-adv-x="519" 
d="M286 281q6 5 4 13q-1 4 -4 7l77 -32q-3 0 -7 -2q-8 -4 -16 -16q-14 -17 -33 -27.5t-43 -10.5h-11q-19 0 -36 7t-29.5 19.5t-19.5 29t-7 35.5v117q0 20 7 37t19.5 29t29.5 19t36 7h11q39 0 65 -26q8 -8 21 0l2 2l-27 -71q0 8 -5 17t-18 16q-17 8 -35.5 8t-33.5 -10
q-21 -16 -21 -38v-97q0 -19 13 -31t30 -12q14 0 21 3t10 7zM260 617q52 0 98 -20t80.5 -54.5t54.5 -81t20 -98.5q0 -53 -20 -99t-54.5 -80.5t-80.5 -54t-98 -19.5q-53 0 -99.5 19.5t-81 54t-54 80.5t-19.5 99q0 52 19.5 98.5t54 81t81 54.5t99.5 20zM260 172q39 0 73.5 15
t60 41t40.5 61t15 74q0 40 -15 74t-40.5 59.5t-60 40t-73.5 14.5q-40 0 -74.5 -14.5t-60.5 -40t-41 -59.5t-15 -74q0 -39 15 -74t41 -61t60.5 -41t74.5 -15z" />
    <glyph glyph-name="guillemotleft" unicode="&#xab;" horiz-adv-x="678" 
d="M341 57l-16 23q-19 26 -45 44l-274 183l276 183q36 24 56 64l1 1l69 -117q-23 -2 -44 -8.5t-39 -19.5l-156 -103l147 -98q34 -24 78 -27l15 -2zM604 57l-16 23q-19 26 -45 44l-274 183l276 183q36 24 56 64l1 1l69 -117q-23 -2 -44 -8.5t-39 -19.5l-156 -103l147 -98
q34 -24 78 -27l15 -2z" />
    <glyph glyph-name="uni00AD" unicode="&#xad;" horiz-adv-x="833" 
 />
    <glyph glyph-name="registered" unicode="&#xae;" horiz-adv-x="519" 
d="M260 617q52 0 98 -20t80.5 -54.5t54.5 -81t20 -98.5q0 -53 -20 -99t-54.5 -80.5t-80.5 -54t-98 -19.5q-53 0 -99.5 19.5t-81 54t-54 80.5t-19.5 99q0 52 19.5 98.5t54 81t81 54.5t99.5 20zM260 172q39 0 73.5 15t60 41t40.5 61t15 74q0 40 -15 74t-40.5 59.5t-60 40
t-73.5 14.5q-40 0 -74.5 -14.5t-60.5 -40t-41 -59.5t-15 -74q0 -39 15 -74t41 -61t60.5 -41t74.5 -15zM349 273q8 10 17.5 2.5t6.5 -19.5q-2 -8 -9 -12.5t-15.5 -6t-17 0.5t-13.5 9l-83 137l-7 -3v-71q0 -2 3 -12t14 -12h-71q5 1 8 4.5t5 7.5t2.5 8t0.5 5v151q0 2 -2 11.5
t-14 12.5h86q18 0 29 -12t14 -28t-2.5 -31t-21.5 -22q-3 -1 -4 -1l65 -125q4 -6 7.5 -9.5t10.5 1.5h1l-1 1q-8 -2 -10 3.5t1 9.5zM228 411q8 0 21 5q5 2 9.5 3.5t8.5 3.5q2 2 4.5 4t3.5 4q3 5 0.5 13t-7.5 11q-3 3 -5 3h-3h-32v-47z" />
    <glyph glyph-name="degree" unicode="&#xb0;" horiz-adv-x="379" 
d="M189 685q38 0 71.5 -14.5t58.5 -39.5t39.5 -58.5t14.5 -71.5t-14.5 -71t-39.5 -58t-58.5 -39.5t-71.5 -14.5t-71.5 14.5t-58 39.5t-39 58t-14.5 71t14.5 71.5t39 58.5t58 39.5t71.5 14.5zM189 385q24 0 45.5 9.5t37.5 25t25 36.5t9 45t-9 45.5t-25 37t-37.5 25t-45.5 9.5
t-45 -9.5t-36.5 -25t-25 -37t-9.5 -45.5t9.5 -45t25 -36.5t36.5 -25t45 -9.5z" />
    <glyph glyph-name="plusminus" unicode="&#xb1;" horiz-adv-x="341" 
d="M293 335q1 0 7 1.5t13 5t13.5 9t8.5 13.5v-116q-2 9 -8.5 14.5t-13.5 8.5t-13 4t-7 1h-93v-94q0 -1 0.5 -6.5t3.5 -12t8.5 -12.5t15.5 -9h-114q9 3 14.5 9.5t8.5 13.5q4 8 4 17v94h-95q-1 0 -6.5 -0.5t-12 -3t-12.5 -8t-9 -15.5v114q3 -10 9.5 -15.5t13.5 -7.5
q8 -4 17 -4h95l1 93q0 1 -1.5 7t-5 13t-9 13.5t-14.5 8.5h116q-9 -2 -14.5 -8.5t-8.5 -14t-4 -13t-1 -6.5v-94h93zM281 86q1 0 8 1.5t15 5.5t15 10.5t10 16.5v-134q-3 10 -10.5 16.5t-15.5 10t-14.5 4.5t-7.5 1h-224q-1 0 -7 -1t-13.5 -4t-14.5 -9.5t-10 -17.5v132
q3 -11 10.5 -17t15.5 -9q9 -4 19 -5z" />
    <glyph glyph-name="twosuperior" unicode="&#xb2;" horiz-adv-x="190" 
d="M137 386q24 0 31 15v-58h-162l117 180q4 6 8.5 15.5t4.5 18.5t-5.5 15t-20.5 6q-17 0 -23.5 -10t-7.5 -17l-9 6l-35 22q11 18 32 29t43 11q53 0 68 -31q7 -13 5.5 -27.5t-7 -27t-11.5 -22.5t-9 -13v-1l-68 -111h49z" />
    <glyph glyph-name="threesuperior" unicode="&#xb3;" horiz-adv-x="206" 
d="M142 524q17 -5 29 -16.5t19 -27.5q9 -18 9.5 -37t-1.5 -39q-4 -26 -14 -51t-34 -41q-13 -9 -28 -12.5t-31 -3.5q-33 0 -53.5 12.5t-31.5 25.5l45 43q0 -9 4 -15t10 -9.5t12 -5t10 -1.5q23 -2 38 11t22 33q4 15 3 30.5t-7 30t-16.5 25.5t-25.5 16q-11 4 -25 5t-26 0l62 79
h-59q-11 0 -21 -6v46h166l-59 -91l3 -1v0z" />
    <glyph glyph-name="onesuperior" unicode="&#xb9;" horiz-adv-x="171" 
d="M165 250h-146q33 30 33 74v326q0 14 -10 24.5t-24 10.5h-12l46 66h78v-426q0 -21 9 -40t25 -33z" />
    <glyph glyph-name="ordmasculine" unicode="&#xba;" 
d="M189 685q38 0 71.5 -14.5t58.5 -39.5t39.5 -58.5t14.5 -71.5t-14.5 -71t-39.5 -58t-58.5 -39.5t-71.5 -14.5t-71.5 14.5t-58 39.5t-39 58t-14.5 71t14.5 71.5t39 58.5t58 39.5t71.5 14.5zM189 385q24 0 45.5 9.5t37.5 25t25 36.5t9 45t-9 45.5t-25 37t-37.5 25t-45.5 9.5
t-45 -9.5t-36.5 -25t-25 -37t-9.5 -45.5t9.5 -45t25 -36.5t36.5 -25t45 -9.5z" />
    <glyph glyph-name="guillemotright" unicode="&#xbb;" horiz-adv-x="711" 
d="M6 174l14 2q43 3 79 27l147 98l-156 103q-37 25 -83 28l69 117v-1q19 -39 57 -64l276 -183l-275 -183q-13 -9 -24.5 -20t-19.5 -24l-16 -23zM302 174l14 2q43 3 79 27l147 98l-156 103q-37 25 -83 28l69 117v-1q19 -39 57 -64l276 -183l-275 -183q-13 -9 -24.5 -20
t-19.5 -24l-16 -23z" />
    <glyph glyph-name="onequarter" unicode="&#xbc;" horiz-adv-x="719" 
d="M165 284h-146q33 30 33 74v326q0 14 -10 24.5t-24 10.5h-12l46 66h78v-426q0 -21 9 -40t25 -33zM94 -2l34 33q7 7 12 14t10 15l200 396q8 16 9 34t-6 35h176q-31 -22 -55.5 -50.5t-41.5 -61.5l-169 -335q-20 -39 -8 -80h-161zM711 29q-22 14 -45 14l-1 -111q0 -2 2.5 -11
t8 -20t14.5 -21t23 -14h-186q14 4 22.5 14t13.5 21.5t7 20.5t2 11v110h-222l160 271q8 13 7.5 28.5t-8.5 29.5h35h123h27q-27 -29 -27 -69l-1 -180q23 0 44 13l3 1v-108h-2zM572 262l-82 -138l82 -1v139z" />
    <glyph glyph-name="onehalf" unicode="&#xbd;" horiz-adv-x="653" 
d="M165 294h-146q33 30 33 74v326q0 14 -10 24.5t-24 10.5h-12l46 66h78v-426q0 -21 9 -40t25 -33zM46 -6l34 33q7 7 12 14t10 15l200 396q8 16 9 34t-6 35h176q-31 -22 -55.5 -50.5t-41.5 -61.5l-169 -335q-20 -39 -8 -80h-161zM564 -27q22 0 37.5 7.5t20.5 20.5v-108h-301
l212 324q8 11 15.5 28t8.5 33.5t-9.5 28t-38.5 11.5q-15 0 -26 -5.5t-17.5 -13t-10 -16t-3.5 -15.5l-19 12l-64 40q22 34 60.5 54.5t79.5 20.5q98 0 127 -57q13 -25 10 -52t-13 -51t-21.5 -41.5t-16.5 -23.5l-1 -2l-121 -195h91z" />
    <glyph glyph-name="threequarters" unicode="&#xbe;" horiz-adv-x="748" 
d="M217 613q26 -8 45 -26t30 -42q14 -29 15 -58t-3 -60q-5 -41 -21 -80t-53 -64q-20 -14 -44 -19.5t-48 -5.5q-51 0 -83 20t-49 40l70 66q0 -14 6 -23t15 -14.5t18.5 -7.5t16.5 -2q35 -2 58.5 17t34.5 51q7 23 5.5 47.5t-11 46.5t-26 39.5t-40.5 25.5q-16 5 -38 6.5t-40 0.5
l96 123h-92q-18 0 -32 -10v72h257l-91 -141l4 -2v0zM158 -2l34 33q7 7 12 14t10 15l200 396q8 16 9 34t-6 35h176q-31 -22 -55.5 -50.5t-41.5 -61.5l-169 -335q-20 -39 -8 -80h-161zM740 40q-22 14 -45 14l-1 -111q0 -2 2.5 -11t8 -20t14.5 -21t23 -14h-186q14 4 22.5 14
t13.5 21.5t7 20.5t2 11v110h-222l160 271q8 13 7.5 28.5t-8.5 29.5h35h123h27q-27 -29 -27 -69l-1 -180q23 0 44 13l3 1v-108h-2zM601 273l-82 -138l82 -1v139z" />
    <glyph glyph-name="questiondown" unicode="&#xbf;" horiz-adv-x="275" 
d="M118 457q0 20 14.5 34.5t34.5 14.5t34.5 -14.5t14.5 -34.5q0 -21 -14.5 -35t-34.5 -14t-34.5 14t-14.5 35zM118 382h108q-11 -30 -14 -59q-8 -72 -60 -123l-53 -54q-11 -11 -10 -21.5t3 -14.5q2 -5 8.5 -12t20.5 -7h2q12 0 24 4.5t21 13t13.5 19.5t0.5 24l87 -35
q-5 -14 -15.5 -33t-28.5 -36t-43 -29t-59 -12h-3q-35 1 -63.5 20.5t-41.5 51.5q-14 33 -7 66.5t32 58.5l53 54l2 2q23 24 29 55.5t-4 62.5z" />
    <glyph glyph-name="Agrave" unicode="&#xc0;" horiz-adv-x="947" 
d="M458 1065q-4 -9 1 -21l39 -88h-73l-41 91q-2 5 -6 8l-10 10h90zM661 -112q24 31 30.5 69.5t-6.5 75.5l-38 108l-293 211l-110 -319q-13 -37 -6.5 -75.5t30.5 -69.5h-262q35 25 60.5 59t39.5 74l142 409l-30 24q-31 26 -57.5 34t-43.5 -1q-3 -2 0 -5q21 4 35.5 -0.5
t21.5 -14.5t7 -23t-7 -25q-18 -29 -43 -32.5t-46 9t-33.5 38.5t-6.5 57q9 40 37.5 68t65.5 39.5t77 4t70 -37.5l81 258q4 12 3.5 20.5t-4.5 17t-10.5 17t-15.5 20.5h228q-11 -12 -18 -21t-9.5 -17t-1.5 -16.5t5 -20.5l270 -802q14 -40 39.5 -74t60.5 -59h-262zM571 360
l-107 305l-62 -180z" />
    <glyph glyph-name="Aacute" unicode="&#xc1;" horiz-adv-x="968" 
d="M480 1076h103l-12 -11q-4 -4 -7 -10l-47 -103h-83l45 100q6 11 1 24zM946 -111q-35 25 -60.5 59t-39.5 74l-270 802q-4 12 -5 20.5t1.5 16.5t9.5 17t18 21h-228q9 -12 15.5 -20.5t10.5 -17t4.5 -17t-3.5 -20.5l-81 -258q-30 30 -70 37.5t-77 -4t-65.5 -39.5t-37.5 -68
q-6 -31 6.5 -57t33.5 -38.5t46 -9t43 32.5q7 12 7 25t-7 23t-21.5 14.5t-35.5 0.5q-3 3 0 5q17 9 43.5 1t57.5 -34l30 -24l-142 -409q-14 -40 -39.5 -74t-60.5 -59h262q-24 31 -30.5 69.5t6.5 75.5l110 319l293 -211l38 -108q13 -37 6.5 -75.5t-30.5 -69.5h262zM425 486
l62 180l107 -305z" />
    <glyph glyph-name="Acircumflex" unicode="&#xc2;" horiz-adv-x="968" 
d="M599 1055q-4 -9 1 -21l39 -88h-73l-41 91q-2 5 -6 8l-10 10h90zM383 1054h96l-11 -10q-3 -3 -7 -9l-43 -96h-77l41 93q6 10 1 22zM684 -120q24 31 30.5 69.5t-6.5 75.5l-38 108l-293 211l-110 -319q-13 -37 -6.5 -75.5t30.5 -69.5h-262q35 25 60.5 59t39.5 74l142 409
l-30 24q-31 26 -57.5 34t-43.5 -1q-3 -2 0 -5q21 4 35.5 -0.5t21.5 -14.5t7 -23t-7 -25q-18 -29 -43 -32.5t-46 9t-33.5 38.5t-6.5 57q9 40 37.5 68t65.5 39.5t77 4t70 -37.5l81 258q4 12 3.5 20.5t-4.5 17t-10.5 17t-15.5 20.5h228q-11 -12 -18 -21t-9.5 -17t-1.5 -16.5
t5 -20.5l270 -802q14 -40 39.5 -74t60.5 -59h-262zM594 352l-107 305l-62 -180z" />
    <glyph glyph-name="Atilde" unicode="&#xc3;" horiz-adv-x="968" 
d="M549 936q-28 0 -52 15q-47 30 -69 15l-15 -11q-11 -7 -18 -22l-1 -2l-29 45q16 -2 29 8l15 10q41 29 107 -14q15 -10 33.5 -10t33.5 11h1q12 9 18 22l2 4l29 -47q-17 2 -31 -8q-23 -16 -53 -16zM946 -123q-35 25 -60.5 59t-39.5 74l-270 802q-4 12 -5 20.5t1.5 16.5
t9.5 17t18 21h-228q9 -12 15.5 -20.5t10.5 -17t4.5 -17t-3.5 -20.5l-81 -258q-30 30 -70 37.5t-77 -4t-65.5 -39.5t-37.5 -68q-6 -31 6.5 -57t33.5 -38.5t46 -9t43 32.5q7 12 7 25t-7 23t-21.5 14.5t-35.5 0.5q-3 3 0 5q17 9 43.5 1t57.5 -34l30 -24l-142 -409
q-14 -40 -39.5 -74t-60.5 -59h262q-24 31 -30.5 69.5t6.5 75.5l110 319l293 -211l38 -108q13 -37 6.5 -75.5t-30.5 -69.5h262zM425 474l62 180l107 -305z" />
    <glyph glyph-name="Adieresis" unicode="&#xc4;" horiz-adv-x="833" 
d="M742 -71q15 -26 34 -34.5t33 -13.5h-67h-103h-79q14 5 31 14t21 32l-58 171l-332 250l-142 -414q1 -14 6.5 -23t13.5 -15t16.5 -9t16.5 -6h-79h-108h-67q1 0 2 1q-12 2 -20 11t-8 21q0 14 9.5 24t23.5 10t24 -10t10 -24q0 -11 -6 -18q10 6 19.5 16t17.5 27l166 489
l-62 46q-29 29 -52 38t-46 -5q-3 -3 1 -5q20 4 33.5 -0.5t20.5 -14.5t7 -22.5t-7 -23.5q-18 -27 -42 -31t-44 8.5t-32 37t-6 54.5q8 39 33 65t59.5 36t73.5 3t75 -33l32 -24l76 223q8 26 3 52t-22 46h251l-3 -4q-14 -20 -17.5 -43.5t4.5 -46.5zM481 310l-136 397l-79 -231z
M309 965q0 -15 6 -30l-4 2q-6 1 -11.5 2t-12.5 1h-41q-6 0 -12 -1l-12 -2l-4 -2q5 17 5 30v41q0 14 -5 29l9 -2q5 -1 15 -1h49q11 0 15 1l9 2q-6 -14 -6 -29v-41zM451 965q0 -15 6 -30l-4 2l-12 2t-12 1h-42q-6 0 -11.5 -1t-11.5 -2l-4 -2q5 17 5 30v41q0 14 -5 29l8 -2
q5 -1 16 -1h49q10 0 15 1l9 2q-6 -14 -6 -29v-41z" />
    <glyph glyph-name="Aring" unicode="&#xc5;" horiz-adv-x="968" 
d="M484 944q-21 0 -39.5 8t-32.5 22t-22 32t-8 39t8 40t22 33t32.5 22t39.5 8t40 -8t33 -22t22 -33t8 -40t-8 -39t-22 -32t-33 -22t-40 -8zM484 1089q-17 0 -30 -12.5t-13 -31.5q0 -17 13 -30t30 -13q18 0 31 13t13 30q0 19 -13 31.5t-31 12.5zM946 -115q-35 25 -60.5 59
t-39.5 74l-270 802q-4 12 -5 20.5t1.5 16.5t9.5 17t18 21h-228q9 -12 15.5 -20.5t10.5 -17t4.5 -17t-3.5 -20.5l-81 -258q-30 30 -70 37.5t-77 -4t-65.5 -39.5t-37.5 -68q-6 -31 6.5 -57t33.5 -38.5t46 -9t43 32.5q7 12 7 25t-7 23t-21.5 14.5t-35.5 0.5q-3 3 0 5
q17 9 43.5 1t57.5 -34l30 -24l-142 -409q-14 -40 -39.5 -74t-60.5 -59h262q-24 31 -30.5 69.5t6.5 75.5l110 319l293 -211l38 -108q13 -37 6.5 -75.5t-30.5 -69.5h262zM425 482l62 180l107 -305z" />
    <glyph glyph-name="Ccedilla" unicode="&#xc7;" horiz-adv-x="990" 
d="M984 -103q-12 2 -24.5 -0.5t-24 -7t-21 -9.5t-14.5 -9q-70 -50 -153 -77.5t-175 -27.5q-28 0 -55 3q-5 0 -8.5 -3t-3.5 -8q0 -18 7 -22.5t33 -5.5h15q122 -11 122 -108q0 -38 -15 -58t-36 -29.5t-43 -11t-35 -1.5h-64q-9 0 -17 -3t-13 -7q-6 -4 -11 -10v110
q8 -8 17.5 -16.5t30.5 -8.5h57q24 0 37.5 2.5t19.5 7t7 11t1 14.5q0 19 -12 29t-52 14h-10q-10 0 -27.5 2t-34.5 11t-29.5 27.5t-12.5 52.5q0 12 3 23q-97 23 -179.5 77t-141 131t-89.5 172t-26 200q5 107 48.5 201.5t114.5 166.5t165 116.5t201 51.5q31 2 61.5 0.5
t60.5 -6.5q50 -8 98 -23.5t92 -40.5q16 -9 30.5 -10.5t28 2t26.5 10.5t28 15q-15 -23 -38.5 -55.5t-50.5 -69t-55.5 -74.5t-53 -72t-43.5 -61t-27 -41q-12 -22 -22.5 -49t-16.5 -55t-6 -56t9 -53q2 -8 4.5 -6.5t6.5 6t9 9.5t13 6q14 1 22.5 -8t10.5 -21.5t-2.5 -24
t-17.5 -15.5t-25 2t-20 16q-14 20 -19.5 43t-7.5 46q-2 47 10 94.5t34 88.5q17 30 36 58t35 59v1q13 25 12.5 52.5t-11.5 50.5t-32 40.5t-49 23.5q-44 10 -94 10q-98 0 -183 -38t-147.5 -103.5t-96.5 -153t-29 -185.5q4 -89 39.5 -166t94 -135t135.5 -93t166 -39
q19 -1 38 -1t38 2q28 2 55 8.5t53 17.5q25 11 48.5 25t42.5 35q6 7 10.5 14.5t8.5 15.5q2 5 4 9t4 9q1 2 3.5 8.5t1.5 7.5z" />
    <glyph glyph-name="Egrave" unicode="&#xc8;" horiz-adv-x="659" 
d="M351 1067q-4 -9 1 -21l39 -88h-73l-41 91q-2 5 -6 8l-10 10h90zM651 -78q5 -17 -4.5 -30.5t-26.5 -13.5h-120v1h-317l-115 -1h-60q23 5 35 11t18 18t6 25l-1 904q-3 13 -15.5 27.5t-44.5 21.5h60h1h544q17 0 26.5 -13t4.5 -30l-124 -319q-8 -21 -7.5 -37.5t22.5 -25.5
q2 -1 2 2q-9 9 -10.5 17.5t1.5 15.5t9.5 11t15.5 4q19 0 28.5 -11t9.5 -26t-8.5 -29t-25.5 -20q-23 -9 -46.5 -4t-41 20.5t-26 38t-2.5 47.5l47 223h-289v-325h199q18 0 32 8l5 2v-143l-10 7q-13 8 -30 8h-196v-292h298l-47 223q-6 25 2.5 47.5t26 38t40.5 20.5t46 -4
q18 -6 27 -20t8.5 -29t-10 -26t-29.5 -11q-8 0 -14.5 4.5t-9.5 11t-1 15t11 17.5q0 3 -2 2q-23 -9 -23.5 -25.5t7.5 -35.5z" />
    <glyph glyph-name="Eacute" unicode="&#xc9;" horiz-adv-x="659" 
d="M651 -70l-124 320q-8 19 -7.5 35.5t23.5 25.5q2 1 2 -2q-9 -9 -11 -17.5t1 -15t9.5 -11t14.5 -4.5q20 0 29.5 11t10 26t-8.5 29t-27 20q-23 9 -46 4t-40.5 -20.5t-26 -38t-2.5 -47.5l47 -223h-298v292h196q17 0 30 -8l10 -7v143l-5 -2q-14 -8 -32 -8h-199v325h289
l-47 -223q-6 -25 2.5 -47.5t26 -38t41 -20.5t46.5 4q17 6 25.5 20t8.5 29t-9.5 26t-28.5 11q-9 0 -15.5 -4t-9.5 -11t-1.5 -15.5t10.5 -17.5q0 -3 -2 -2q-22 9 -22.5 25.5t7.5 37.5l124 319q5 17 -4.5 30t-26.5 13h-544h-1h-60q32 -7 44.5 -21.5t15.5 -27.5l1 -904
q0 -13 -6 -25t-18 -18t-35 -11h60l115 1h317v-1h120q17 0 26.5 13.5t4.5 30.5zM315 1068h103l-12 -11q-4 -4 -7 -10l-47 -103h-83l45 100q6 11 1 24z" />
    <glyph glyph-name="Ecircumflex" unicode="&#xca;" horiz-adv-x="659" 
d="M651 -69q5 -17 -4.5 -30.5t-26.5 -13.5h-120v1h-317l-115 -1h-60q23 5 35 11t18 18t6 25l-1 904q-3 13 -15.5 27.5t-44.5 21.5h60h1h544q17 0 26.5 -13t4.5 -30l-124 -319q-8 -21 -7.5 -37.5t22.5 -25.5q2 -1 2 2q-9 9 -10.5 17.5t1.5 15.5t9.5 11t15.5 4q19 0 28.5 -11
t9.5 -26t-8.5 -29t-25.5 -20q-23 -9 -46.5 -4t-41 20.5t-26 38t-2.5 47.5l47 223h-289v-325h199q18 0 32 8l5 2v-143l-10 7q-13 8 -30 8h-196v-292h298l-47 223q-6 25 2.5 47.5t26 38t40.5 20.5t46 -4q18 -6 27 -20t8.5 -29t-10 -26t-29.5 -11q-8 0 -14.5 4.5t-9.5 11t-1 15
t11 17.5q0 3 -2 2q-23 -9 -23.5 -25.5t7.5 -35.5zM438 1035q-4 -9 1 -21l39 -88h-73l-41 91q-2 5 -6 8l-10 10h90zM222 1034h96l-11 -10q-3 -3 -7 -9l-43 -96h-77l41 93q6 10 1 22z" />
    <glyph glyph-name="Edieresis" unicode="&#xcb;" horiz-adv-x="659" 
d="M651 -75q5 -17 -4.5 -30.5t-26.5 -13.5h-120v1h-317l-115 -1h-60q23 5 35 11t18 18t6 25l-1 904q-3 13 -15.5 27.5t-44.5 21.5h60h1h544q17 0 26.5 -13t4.5 -30l-124 -319q-8 -21 -7.5 -37.5t22.5 -25.5q2 -1 2 2q-9 9 -10.5 17.5t1.5 15.5t9.5 11t15.5 4q19 0 28.5 -11
t9.5 -26t-8.5 -29t-25.5 -20q-23 -9 -46.5 -4t-41 20.5t-26 38t-2.5 47.5l47 223h-289v-325h199q18 0 32 8l5 2v-143l-10 7q-13 8 -30 8h-196v-292h298l-47 223q-6 25 2.5 47.5t26 38t40.5 20.5t46 -4q18 -6 27 -20t8.5 -29t-10 -26t-29.5 -11q-8 0 -14.5 4.5t-9.5 11t-1 15
t11 17.5q0 3 -2 2q-23 -9 -23.5 -25.5t7.5 -35.5zM299 974q0 -18 7 -35l-5 2q-7 2 -13.5 3t-14.5 1h-48q-7 0 -13.5 -1t-13.5 -3l-5 -2q6 18 6 35v47q0 17 -6 34l10 -2q5 -1 9 -1.5t9 -0.5h57q5 0 9 0.5t8 1.5l11 2q-7 -15 -7 -34v-47zM463 974q0 -18 7 -35l-5 2
q-7 2 -13.5 3t-14.5 1h-48q-7 0 -13.5 -1t-13.5 -3l-5 -2q6 18 6 35v47q0 17 -6 34l10 -2q5 -1 9 -1.5t9 -0.5h57q5 0 9 0.5t8 1.5l11 2q-7 -15 -7 -34v-47z" />
    <glyph glyph-name="Igrave" unicode="&#xcc;" horiz-adv-x="233" 
d="M180 255v-323q0 -13 10 -30t37 -24h-221q29 8 38 26t9 31v877q0 4 -2 12t-7 17t-14 16.5t-24 11.5h47h125h2h45q-22 -5 -33.5 -21.5t-11.5 -29.5v-563zM130 1048q-4 -9 1 -21l39 -88h-73l-41 91q-2 5 -6 8l-10 10h90z" />
    <glyph glyph-name="Iacute" unicode="&#xcd;" horiz-adv-x="233" 
d="M112 1061h103l-12 -11q-4 -4 -7 -10l-47 -103h-83l45 100q6 11 1 24zM180 850q0 13 11.5 29.5t33.5 21.5h-45h-2h-125h-47q15 -4 24 -11.5t14 -16.5t7 -17t2 -12v-905q0 -13 -9 -31t-38 -26h221q-27 7 -37 24t-10 30v351v563z" />
    <glyph glyph-name="Icircumflex" unicode="&#xce;" horiz-adv-x="233" 
d="M214 1044q-3 -11 1 -19l35 -79h-65l-37 81q-2 4 -5 8l-9 9h80zM21 1043h86l-10 -9q-4 -6 -6 -8l-38 -86h-69l37 83q5 9 0 20zM180 292v-351q0 -13 10 -30t37 -24h-221q29 8 38 26t9 31v905q0 4 -2 12t-7 17t-14 16.5t-24 11.5h47h125h2h45q-22 -5 -33.5 -21.5
t-11.5 -29.5v-563z" />
    <glyph glyph-name="Idieresis" unicode="&#xcf;" horiz-adv-x="243" 
d="M190 257v-323q0 -13 10 -30t37 -24h-221q29 8 38 26t9 31v877q0 4 -2 12t-7 17t-14 16.5t-24 11.5h47h125h2h45q-22 -5 -33.5 -21.5t-11.5 -29.5v-563zM97 964q0 -15 6 -30l-4 2q-6 1 -11.5 2t-12.5 1h-41q-6 0 -12 -1l-12 -2l-4 -2q5 17 5 30v41q0 14 -5 29l9 -2
q5 -1 15 -1h49q11 0 15 1l9 2q-6 -14 -6 -29v-41zM239 964q0 -15 6 -30l-4 2l-12 2t-12 1h-42q-6 0 -11.5 -1t-11.5 -2l-4 -2q5 17 5 30v41q0 14 -5 29l8 -2q5 -1 16 -1h49q10 0 15 1l9 2q-6 -14 -6 -29v-41z" />
    <glyph glyph-name="Eth" unicode="&#xd0;" horiz-adv-x="865" 
d="M825 686q22 -72 28 -150.5t6 -149.5q0 -81 -17.5 -162t-48.5 -145q-45 -93 -116 -142t-159 -49h-136h-128h-84q-8 0 -16 11t-8 23q0 14 9 23t23 11q9 1 17.5 -4.5t13.5 -13.5t5 -14.5t-2 -12.5q15 11 22 24q8 12 12 26.5t4 28.5v352h-151q-11 0 -23.5 -9.5t-17.5 -26.5
v176q3 -12 9.5 -19.5t13 -11.5t13 -5.5t9.5 -1.5h147v321h-71q-27 0 -43.5 -0.5t-27 -3t-17.5 -7t-15 -12.5q-2 -3 2 -5q18 11 33 11t24.5 -7t13.5 -19.5t1 -25.5q-8 -32 -29.5 -43.5t-45.5 -6t-43.5 25t-23.5 50.5t6 62.5t32 56.5t55.5 40.5t77.5 15.5l203 1l185 -1
q33 0 69.5 -8.5t71.5 -32t65.5 -64.5t51.5 -106zM675 137q25 51 39 117t14 132q0 196 -39 287.5t-122 91.5h-185v-321h104q10 0 24 7.5t19 29.5v-177q-6 23 -20.5 30.5t-25.5 7.5h-101v-323h136q99 0 157 118z" />
    <glyph glyph-name="Ntilde" unicode="&#xd1;" horiz-adv-x="705" 
d="M404 908q-52 0 -98 29q-89 56 -130 28l-29 -21q-11 -7 -19.5 -17.5t-13.5 -23.5l-2 -4l-55 85q14 -2 29 2.5t26 12.5l28 19q78 55 202 -27q28 -18 62.5 -18t63.5 20h2q23 18 34 42l3 7l55 -88q-16 2 -30.5 -2.5t-27.5 -12.5q-44 -31 -100 -31zM476 -118h223
q-27 7 -37 24.5t-10 29.5v326v568q0 13 11.5 30t32.5 22h-44h-3h-126h-47q15 -4 24 -12t14 -17t7 -17t2 -12v-524q-49 75 -101.5 125.5t-99.5 90.5q-34 29 -59.5 53t-43.5 48t-27 50.5t-10 59.5v103q0 13 11.5 30t33.5 22h-45h-3h-126h-47q15 -4 24 -12t14 -17t7 -17t2 -12
v-90v-13v-781q0 -13 -9 -31.5t-38 -26.5h223q-27 7 -37 24.5t-10 29.5v326v207q28 -26 56 -50q40 -35 81.5 -74t79.5 -91t70.5 -122t53.5 -166v-26q0 -13 -9 -31.5t-38 -26.5z" />
    <glyph glyph-name="Ograve" unicode="&#xd2;" horiz-adv-x="877" 
d="M397 1043q-4 -9 1 -21l39 -88h-73l-41 91q-2 5 -6 8l-10 10h90zM439 898q89 0 167.5 -40t137.5 -108.5t93 -160t34 -195.5t-34 -196t-93 -160.5t-137.5 -108.5t-167.5 -40t-168 40t-138 108.5t-93 160.5t-34 196t34 195.5t93 160t138 108.5t168 40zM439 20
q62 0 116.5 29.5t95.5 80.5t65 119t24 145q0 57 -13 109t-37 96.5t-57.5 79t-73.5 56.5q-12 -3 -22.5 -9t-19 -11t-14 -9l-5.5 -4q-28 -27 -33 -52.5t0 -45t13.5 -32t8.5 -13.5q-4 19 3 32.5t19.5 20t29 6.5t31.5 -7q18 -8 25 -21t6 -28t-9 -30t-20 -26q-18 -16 -41.5 -21.5
t-47.5 -1t-47 17.5t-41 34q-33 37 -43 85t7 94q9 24 20 46q-51 -13 -95.5 -46t-76.5 -81.5t-50.5 -109.5t-18.5 -129q0 -77 23.5 -145t64.5 -119t96 -80.5t117 -29.5z" />
    <glyph glyph-name="Oacute" unicode="&#xd3;" horiz-adv-x="877" 
d="M364 1069h103l-12 -11q-4 -4 -7 -10l-47 -103h-83l45 100q6 11 1 24zM439 895q-89 0 -168 -40t-138 -108.5t-93 -160t-34 -195.5t34 -196t93 -160.5t138 -108.5t168 -40t167.5 40t137.5 108.5t93 160.5t34 196t-34 195.5t-93 160t-137.5 108.5t-167.5 40zM439 17
q-62 0 -117 29.5t-96 80.5t-64.5 119t-23.5 145q0 68 18.5 129t50.5 109.5t76.5 81.5t95.5 46q-11 -22 -20 -46q-17 -46 -7 -94t43 -85q18 -21 41 -34t47 -17.5t47.5 1t41.5 21.5q12 11 20 26t9 30t-6 28t-25 21q-15 7 -31.5 7t-29 -6.5t-19.5 -20t-3 -32.5q0 1 -8.5 13.5
t-13.5 32t0 45t33 52.5l5.5 4t14 9t19 11t22.5 9q40 -22 73.5 -56.5t57.5 -79t37 -96.5t13 -109q0 -77 -24 -145t-65 -119t-95.5 -80.5t-116.5 -29.5z" />
    <glyph glyph-name="Ocircumflex" unicode="&#xd4;" horiz-adv-x="877" 
d="M546 1030q-4 -9 1 -21l39 -88h-73l-41 91q-2 5 -6 8l-10 10h90zM330 1029h96l-11 -10q-3 -3 -7 -9l-43 -96h-77l41 93q6 10 1 22zM439 890q89 0 167.5 -40t137.5 -108.5t93 -160t34 -195.5t-34 -196t-93 -160.5t-137.5 -108.5t-167.5 -40t-168 40t-138 108.5t-93 160.5
t-34 196t34 195.5t93 160t138 108.5t168 40zM439 12q62 0 116.5 29.5t95.5 80.5t65 119t24 145q0 57 -13 109t-37 96.5t-57.5 79t-73.5 56.5q-12 -3 -22.5 -9t-19 -11t-14 -9l-5.5 -4q-28 -27 -33 -52.5t0 -45t13.5 -32t8.5 -13.5q-4 19 3 32.5t19.5 20t29 6.5t31.5 -7
q18 -8 25 -21t6 -28t-9 -30t-20 -26q-18 -16 -41.5 -21.5t-47.5 -1t-47 17.5t-41 34q-33 37 -43 85t7 94q9 24 20 46q-51 -13 -95.5 -46t-76.5 -81.5t-50.5 -109.5t-18.5 -129q0 -77 23.5 -145t64.5 -119t96 -80.5t117 -29.5z" />
    <glyph glyph-name="Otilde" unicode="&#xd5;" horiz-adv-x="877" 
d="M443 929q-28 0 -52 15q-47 30 -69 15l-15 -11q-11 -7 -18 -22l-1 -2l-29 45q16 -2 29 8l15 10q41 29 107 -14q15 -10 33.5 -10t33.5 11h1q12 9 18 22l2 4l29 -47q-17 2 -31 -8q-23 -16 -53 -16zM439 891q-89 0 -168 -40t-138 -108.5t-93 -160t-34 -195.5t34 -196
t93 -160.5t138 -108.5t168 -40t167.5 40t137.5 108.5t93 160.5t34 196t-34 195.5t-93 160t-137.5 108.5t-167.5 40zM439 13q-62 0 -117 29.5t-96 80.5t-64.5 119t-23.5 145q0 68 18.5 129t50.5 109.5t76.5 81.5t95.5 46q-11 -22 -20 -46q-17 -46 -7 -94t43 -85
q18 -21 41 -34t47 -17.5t47.5 1t41.5 21.5q12 11 20 26t9 30t-6 28t-25 21q-15 7 -31.5 7t-29 -6.5t-19.5 -20t-3 -32.5q0 1 -8.5 13.5t-13.5 32t0 45t33 52.5l5.5 4t14 9t19 11t22.5 9q40 -22 73.5 -56.5t57.5 -79t37 -96.5t13 -109q0 -77 -24 -145t-65 -119t-95.5 -80.5
t-116.5 -29.5z" />
    <glyph glyph-name="Odieresis" unicode="&#xd6;" horiz-adv-x="877" 
d="M398 966q0 -15 6 -30l-4 2q-6 1 -11.5 2t-12.5 1h-41q-6 0 -12 -1l-12 -2l-4 -2q5 17 5 30v41q0 14 -5 29l9 -2q5 -1 15 -1h49q11 0 15 1l9 2q-6 -14 -6 -29v-41zM540 966q0 -15 6 -30l-4 2l-12 2t-12 1h-42q-6 0 -11.5 -1t-11.5 -2l-4 -2q5 17 5 30v41q0 14 -5 29l8 -2
q5 -1 16 -1h49q10 0 15 1l9 2q-6 -14 -6 -29v-41zM439 886q89 0 167.5 -40t137.5 -108.5t93 -160t34 -195.5t-34 -196t-93 -160.5t-137.5 -108.5t-167.5 -40t-168 40t-138 108.5t-93 160.5t-34 196t34 195.5t93 160t138 108.5t168 40zM439 8q62 0 116.5 29.5t95.5 80.5
t65 119t24 145q0 57 -13 109t-37 96.5t-57.5 79t-73.5 56.5q-12 -3 -22.5 -9t-19 -11t-14 -9l-5.5 -4q-28 -27 -33 -52.5t0 -45t13.5 -32t8.5 -13.5q-4 19 3 32.5t19.5 20t29 6.5t31.5 -7q18 -8 25 -21t6 -28t-9 -30t-20 -26q-18 -16 -41.5 -21.5t-47.5 -1t-47 17.5t-41 34
q-33 37 -43 85t7 94q9 24 20 46q-51 -13 -95.5 -46t-76.5 -81.5t-50.5 -109.5t-18.5 -129q0 -77 23.5 -145t64.5 -119t96 -80.5t117 -29.5z" />
    <glyph glyph-name="multiply" unicode="&#xd7;" horiz-adv-x="327" 
d="M230 419q1 1 4 6.5t5.5 13t3 15.5t-3.5 16l13.5 -13.5l27.5 -27.5l27.5 -27.5l13.5 -13.5q-8 4 -16 3.5t-15 -3.5t-12 -6t-6 -4l-25 -25l-41 -41l67 -67q1 -1 5 -4t10.5 -5.5t15 -3t17.5 4.5l-13.5 -13.5t-27.5 -27t-27 -27t-13 -13.5q5 9 4 17.5t-4 15.5q-4 8 -9 15
l-67 66l-67 -67q-1 -1 -4 -5t-6 -10.5t-3.5 -14.5t4.5 -17l-80 80q9 -5 17 -4t15 4q8 4 15 9l67 68l-65 66q-1 1 -6 4t-12.5 5.5t-16 3t-16.5 -3.5l13.5 13.5l27.5 27.5l27.5 27.5l13.5 13.5q-5 -8 -4 -16.5t4 -15.5t6.5 -12t3.5 -6q7 -6 25 -24.5t41 -41.5l66 65v0z" />
    <glyph glyph-name="Oslash" unicode="&#xd8;" horiz-adv-x="820" 
d="M663 703q68 -60 109 -147.5t41 -190.5q0 -89 -31 -168t-85 -137.5t-126 -92.5t-154 -34q-43 0 -83 10t-76 27l-9 -15q-10 -20 -3 -40.5t27 -28.5h-62h-1h-141h-63q41 18 73.5 47.5t53.5 68.5l22 40q-61 60 -97 143t-36 180q0 90 31 168.5t84.5 137.5t125.5 93t154 34
q36 0 70 -7t66 -20q3 11 8.5 27t10 33t5.5 33t-3 27h233l-39 -37q-14 -14 -25.5 -29t-21.5 -33zM125 365q0 -66 22.5 -124t62.5 -100l293 531q-21 6 -42 9.5t-44 3.5q-61 0 -114 -25t-92.5 -68.5t-62.5 -102t-23 -124.5zM417 46q60 0 113.5 25t93.5 68.5t63 101.5t23 124
q0 72 -27 134t-74 107l-298 -539q49 -21 106 -21z" />
    <glyph glyph-name="Ugrave" unicode="&#xd9;" horiz-adv-x="739" 
d="M687 106q0 -23 5.5 -35t12.5 -18q8 -7 19 -9q-22 0 -44 -12t-45.5 -29.5t-51 -38t-60 -38t-72.5 -29.5t-89 -12q-50 0 -89 12t-71 29.5t-57 38t-47 38t-42 29.5t-41 12q10 2 18 9q7 6 12.5 18t6.5 35v50q0 19 0.5 34.5t0.5 16.5v589v34q0 12 -10 29t-37 24h221
q-29 -8 -38 -26t-9 -31v-13v-607q2 -55 22 -97q8 -18 21 -35.5t32.5 -31t45.5 -22t61 -8.5q47 0 80 14.5t55 36t34 46.5t18.5 47t8 36.5l1.5 14.5v589v34q0 12 -10.5 29t-36.5 24h221q-29 -8 -38 -25.5t-9 -30.5v-14v-607zM323 1056q-4 -9 1 -21l39 -88h-73l-41 91
q-2 5 -6 8l-10 10h90z" />
    <glyph glyph-name="Uacute" unicode="&#xda;" horiz-adv-x="739" 
d="M349 1061h103l-12 -11q-4 -4 -7 -10l-47 -103h-83l45 100q6 11 1 24zM687 104l-1 100v634q0 13 9 30.5t38 25.5h-221q26 -7 36.5 -24t10.5 -29v-636l-1.5 -14.5t-8 -36.5t-18.5 -47t-34 -46.5t-55 -36t-80 -14.5q-35 0 -61 8.5t-45.5 22t-32.5 31t-21 35.5q-20 42 -22 97
v633q0 13 9 31t38 26h-221q27 -7 37 -24t10 -29v-636q0 -1 -0.5 -16.5t-0.5 -34.5v-50q-1 -23 -6.5 -35t-12.5 -18q-8 -7 -18 -9q21 0 41 -12t42 -29.5t47 -38t57 -38t71 -29.5t89 -12q49 0 89 12t72.5 29.5t60 38t51 38t45.5 29.5t44 12q-11 2 -19 9q-7 6 -12.5 18t-5.5 35
z" />
    <glyph glyph-name="Ucircumflex" unicode="&#xdb;" horiz-adv-x="739" 
d="M454 1045q-4 -9 1 -21l39 -88h-73l-41 91q-2 5 -6 8l-10 10h90zM238 1044h96l-11 -10q-3 -3 -7 -9l-43 -96h-77l41 93q6 10 1 22zM671 95q0 -23 5.5 -35t12.5 -18q8 -7 19 -9q-22 0 -44 -12t-45.5 -29.5t-51 -38t-60 -38t-72.5 -29.5t-89 -12q-50 0 -89 12t-71 29.5
t-57 38t-47 38t-42 29.5t-41 12q10 2 18 9q7 6 12.5 18t6.5 35v50q0 19 0.5 34.5t0.5 16.5v636q0 12 -10 29t-37 24h221q-29 -8 -38 -26t-9 -31v-633q2 -55 22 -97q8 -18 21 -35.5t32.5 -31t45.5 -22t61 -8.5q47 0 80 14.5t55 36t34 46.5t18.5 47t8 36.5l1.5 14.5v636
q0 12 -10.5 29t-36.5 24h221q-29 -8 -38 -25.5t-9 -30.5v-634z" />
    <glyph glyph-name="Udieresis" unicode="&#xdc;" horiz-adv-x="739" 
d="M309 963q0 -15 6 -30l-4 2q-6 1 -11.5 2t-12.5 1h-41q-6 0 -12 -1l-12 -2l-4 -2q5 17 5 30v41q0 14 -5 29l9 -2q5 -1 15 -1h49q11 0 15 1l9 2q-6 -14 -6 -29v-41zM451 963q0 -15 6 -30l-4 2l-12 2t-12 1h-42q-6 0 -11.5 -1t-11.5 -2l-4 -2q5 17 5 30v41q0 14 -5 29l8 -2
q5 -1 16 -1h49q10 0 15 1l9 2q-6 -14 -6 -29v-41zM687 101q0 -23 5.5 -35t12.5 -18q8 -7 19 -9q-22 0 -44 -12t-45.5 -29.5t-51 -38t-60 -38t-72.5 -29.5t-89 -12q-50 0 -89 12t-71 29.5t-57 38t-47 38t-42 29.5t-41 12q10 2 18 9q7 6 12.5 18t6.5 35v50q0 19 0.5 34.5
t0.5 16.5v636q0 12 -10 29t-37 24h221q-29 -8 -38 -26t-9 -31v-633q2 -55 22 -97q8 -18 21 -35.5t32.5 -31t45.5 -22t61 -8.5q47 0 80 14.5t55 36t34 46.5t18.5 47t8 36.5l1.5 14.5v636q0 12 -10.5 29t-36.5 24h221q-29 -8 -38 -25.5t-9 -30.5v-634z" />
    <glyph glyph-name="Yacute" unicode="&#xdd;" horiz-adv-x="576" 
d="M705 891h-226q16 -10 20.5 -22.5t-0.5 -25.5q-12 -30 -29 -75.5t-37.5 -101.5t-43 -120.5t-46.5 -131.5q-12 8 -25 21q-41 42 -66.5 97.5t-40.5 113t-21 110t-8 87.5q-2 19 6 29.5t25 18.5h-199q12 -6 24 -16t13 -25q1 -26 4.5 -63t10.5 -81t19.5 -92t31.5 -95.5
t45.5 -92t62.5 -81.5q17 -17 35 -31.5t37 -26.5q-35 -98 -68.5 -191t-60.5 -167t-46.5 -122t-25.5 -57q-17 -23 -35.5 -46.5t-43.5 -39.5q-31 -19 -64.5 -14t-61.5 25q-7 5 -17.5 14.5t-19 21t-10.5 23.5t7 21q4 4 5 3q9 -19 21.5 -26.5t24.5 -6.5t22 9.5t14 20.5
q10 31 -2.5 52t-35 29t-50 1.5t-46.5 -30.5q-30 -38 -31 -86.5t24 -89.5q32 -51 88.5 -76t115.5 -21q33 2 61.5 15t53.5 33t46.5 44t39.5 49q7 9 28 60t50.5 128.5t66 175t74.5 201.5q35 -7 77 -7v130h-15.5t-15.5 1q27 74 53.5 145t49.5 133t42 112.5t33 84.5q8 20 22.5 31
t37.5 21zM349 1051h103l-12 -11q-4 -4 -7 -10l-47 -103h-83l45 100q6 11 1 24z" />
    <glyph glyph-name="Thorn" unicode="&#xde;" horiz-adv-x="741" 
d="M441 654q46 0 98 -18t95.5 -54t72 -89.5t28.5 -124.5q0 -60 -18 -110.5t-51 -87.5t-78.5 -58t-100.5 -21h-251v-100q0 -2 4 -17t13 -33.5t24 -35t38 -22.5h-309q23 6 37.5 22.5t22.5 35.5t11 34.5t3 18.5v792q0 3 -2 17t-9.5 31t-22 33t-40.5 24h306q-26 -8 -40 -25
t-22 -35q-9 -21 -12 -45v-132h203zM487 253q32 0 50 16.5t27 37t11 39t2 22.5q0 34 -15 58.5t-36 39.5t-44.5 22t-40.5 7h-203v-242h249z" />
    <glyph glyph-name="agrave" unicode="&#xe0;" horiz-adv-x="507" 
d="M501 1h-40h-23h-57h-9h-69q5 1 11 4q5 2 11 5t12 8q11 6 15 17.5t0 23.5l-25 71q-38 6 -71 22t-61 36l-40 -125q-5 -16 2 -30.5t21 -21.5q8 -3 14.5 -5.5t6.5 -4.5h-193q0 2 17 9q31 15 44 48l59 187q-14 12 -30 25t-23 15l2 -1v92q22 0 41 -10t39 -27l43 130
q6 21 -14 33h124q-7 -5 -9.5 -13.5t0.5 -16.5l139 -406q16 -46 62 -65h1zM224 281q15 -12 31.5 -23.5t33.5 -19.5l-41 119zM262 682q-4 -9 1 -21l39 -88h-73l-41 91q-2 5 -6 8l-10 10h90z" />
    <glyph glyph-name="aacute" unicode="&#xe1;" horiz-adv-x="507" 
d="M255 676h103l-12 -11q-4 -4 -7 -10l-47 -103h-83l45 100q6 11 1 24zM500 1q-46 19 -62 65l-139 406q-3 8 -0.5 16.5t9.5 13.5h-124q20 -12 14 -33l-43 -130q-20 17 -39 27t-41 10v-92l-2 1q7 -2 23 -15t30 -25l-59 -187q-13 -33 -44 -48q-17 -7 -17 -9h193q0 2 -6.5 4.5
t-14.5 5.5q-14 7 -21 21.5t-2 30.5l40 125q28 -20 61 -36t71 -22l25 -71q4 -12 0 -23.5t-15 -17.5q-6 -5 -12 -8t-11 -5q-6 -3 -11 -4h69h9h57h23h40h-1zM224 281l24 76l41 -119q-17 8 -33.5 19.5t-31.5 23.5z" />
    <glyph glyph-name="acircumflex" unicode="&#xe2;" horiz-adv-x="507" 
d="M501 1h-40h-23h-57h-9h-69q5 1 11 4q5 2 11 5t12 8q11 6 15 17.5t0 23.5l-25 71q-38 6 -71 22t-61 36l-40 -125q-5 -16 2 -30.5t21 -21.5q8 -3 14.5 -5.5t6.5 -4.5h-193q0 2 17 9q31 15 44 48l59 187q-14 12 -30 25t-23 15l2 -1v92q22 0 41 -10t39 -27l43 130
q6 21 -14 33h124q-7 -5 -9.5 -13.5t0.5 -16.5l139 -406q16 -46 62 -65h1zM224 281q15 -12 31.5 -23.5t33.5 -19.5l-41 119zM270 558l-18 39l-18 -39h-42l23 50q3 6 0 13h22h30h21q-2 -7 1 -13l23 -50h-42z" />
    <glyph glyph-name="atilde" unicode="&#xe3;" horiz-adv-x="507" 
d="M296 565q-28 0 -52 15q-47 30 -69 15l-15 -11q-11 -7 -18 -22l-1 -2l-29 45q16 -2 29 8l15 10q41 29 107 -14q15 -10 33.5 -10t33.5 11h1q12 9 18 22l2 4l29 -47q-17 2 -31 -8q-23 -16 -53 -16zM500 1q-46 19 -62 65l-139 406q-3 8 -0.5 16.5t9.5 13.5h-124
q20 -12 14 -33l-43 -130q-20 17 -39 27t-41 10v-92l-2 1q7 -2 23 -15t30 -25l-59 -187q-13 -33 -44 -48q-17 -7 -17 -9h193q0 2 -6.5 4.5t-14.5 5.5q-14 7 -21 21.5t-2 30.5l40 125q28 -20 61 -36t71 -22l25 -71q4 -12 0 -23.5t-15 -17.5q-6 -5 -12 -8t-11 -5q-6 -3 -11 -4
h69h9h57h23h40h-1zM224 281l24 76l41 -119q-17 8 -33.5 19.5t-31.5 23.5z" />
    <glyph glyph-name="adieresis" unicode="&#xe4;" horiz-adv-x="507" 
d="M212 574q0 -15 6 -30l-4 2q-6 1 -11.5 2t-12.5 1h-41q-6 0 -12 -1l-12 -2l-4 -2q5 17 5 30v41q0 14 -5 29l9 -2q5 -1 15 -1h49q11 0 15 1l9 2q-6 -14 -6 -29v-41zM354 574q0 -15 6 -30l-4 2l-12 2t-12 1h-42q-6 0 -11.5 -1t-11.5 -2l-4 -2q5 17 5 30v41q0 14 -5 29l8 -2
q5 -1 16 -1h49q10 0 15 1l9 2q-6 -14 -6 -29v-41zM501 1h-40h-23h-57h-9h-69q5 1 11 4q5 2 11 5t12 8q11 6 15 17.5t0 23.5l-25 71q-38 6 -71 22t-61 36l-40 -125q-5 -16 2 -30.5t21 -21.5q8 -3 14.5 -5.5t6.5 -4.5h-193q0 2 17 9q31 15 44 48l59 187q-14 12 -30 25t-23 15
l2 -1v92q22 0 41 -10t39 -27l43 130q6 21 -14 33h124q-7 -5 -9.5 -13.5t0.5 -16.5l139 -406q16 -46 62 -65h1zM224 281q15 -12 31.5 -23.5t33.5 -19.5l-41 119z" />
    <glyph glyph-name="aring" unicode="&#xe5;" horiz-adv-x="507" 
d="M250 569q-24 0 -41 17t-17 42q0 24 17 41t41 17q25 0 42 -17t17 -41q0 -25 -17 -42t-42 -17zM250 653q-10 0 -17 -7t-7 -18t7 -18t17 -7q11 0 18.5 7t7.5 18t-7.5 18t-18.5 7zM500 1q-46 19 -62 65l-139 406q-3 8 -0.5 16.5t9.5 13.5h-124q20 -12 14 -33l-43 -130
q-20 17 -39 27t-41 10v-92l-2 1q7 -2 23 -15t30 -25l-59 -187q-13 -33 -44 -48q-17 -7 -17 -9h193q0 2 -6.5 4.5t-14.5 5.5q-14 7 -21 21.5t-2 30.5l40 125q28 -20 61 -36t71 -22l25 -71q4 -12 0 -23.5t-15 -17.5q-6 -5 -12 -8t-11 -5q-6 -3 -11 -4h69h9h57h23h40h-1z
M224 281l24 76l41 -119q-17 8 -33.5 19.5t-31.5 23.5z" />
    <glyph glyph-name="ccedilla" unicode="&#xe7;" horiz-adv-x="357" 
d="M351 91q-5 0 -11 -3q-5 -2 -12 -8t-15 -17q-17 -23 -39.5 -39t-49.5 -24v-1h-3q-10 -2 -19 -3.5t-19 -1.5h-20h-7q-3 0 -3 -4q0 -8 2.5 -10t15.5 -3h7q57 -5 57 -50q0 -18 -7 -27.5t-17 -14t-20 -5t-16 -0.5h-30q-5 0 -8.5 -1.5t-5.5 -3.5l-5 -5v52q3 -4 7 -8t15 -4h27
q23 0 26.5 4.5t3.5 12.5t-5 13t-24 7h-6q-5 0 -13 1t-15.5 5t-13.5 12.5t-6 24.5q0 10 -9 13q-47 16 -77 56.5t-30 92.5v201q0 33 12.5 62t33.5 50t49.5 33.5t61.5 12.5h20q32 0 60.5 -12t49.5 -33q8 -8 18 -8t18 7l4 4l-46 -124q0 14 -8.5 30.5t-31.5 27.5
q-28 14 -60.5 12.5t-58.5 -18.5q-15 -11 -23.5 -27.5t-8.5 -35.5v-166q0 -31 21 -52t51 -21q23 0 35 4.5t18 10.5q10 10 6 23q-2 6 -6 11z" />
    <glyph glyph-name="egrave" unicode="&#xe8;" horiz-adv-x="397" 
d="M391 -1h-291h-50h-1h-43q16 5 24.5 13.5t12.5 17.5q4 11 5 22v378q0 24 -11 43.5t-31 24.5h330v-79v-26q-5 6 -11 11q-5 5 -14 8.5t-21 3.5h-151v-154h31q12 0 19 10l5 8v-94l-6 10q-7 9 -17 9h-32v-123h139l-34 116q-5 20 3 38t22.5 31t33.5 17.5t38 -2.5
q14 -6 21.5 -18t7 -24.5t-9 -21.5t-24.5 -9q-13 0 -19 12.5t8 26.5l-1 1h-1q-18 -7 -18.5 -19.5t5.5 -29.5zM214 675q-4 -9 1 -21l39 -88h-73l-41 91q-2 5 -6 8l-10 10h90z" />
    <glyph glyph-name="eacute" unicode="&#xe9;" horiz-adv-x="397" 
d="M169 676h103l-12 -11q-4 -4 -7 -10l-47 -103h-83l45 100q6 11 1 24zM310 200q-6 17 -5.5 29.5t18.5 19.5h1l1 -1q-14 -14 -8 -26.5t19 -12.5q16 0 24.5 9t9 21.5t-7 24.5t-21.5 18q-19 7 -38 2.5t-33.5 -17.5t-22.5 -31t-3 -38l34 -116h-139v123h32q10 0 17 -9l6 -10v94
l-5 -8q-7 -10 -19 -10h-31v154h151q12 0 21 -3.5t14 -8.5q6 -5 11 -11v26v79h-330q20 -5 31 -24.5t11 -43.5v-378q-1 -11 -5 -22q-4 -9 -12.5 -17.5t-24.5 -13.5h43h1h50h291z" />
    <glyph glyph-name="ecircumflex" unicode="&#xea;" horiz-adv-x="691" 
d="M391 -1h-291h-50h-1h-43q16 5 24.5 13.5t12.5 17.5q4 11 5 22v378q0 24 -11 43.5t-31 24.5h330v-79v-26q-5 6 -11 11q-5 5 -14 8.5t-21 3.5h-151v-154h31q12 0 19 10l5 8v-94l-6 10q-7 9 -17 9h-32v-123h139l-34 116q-5 20 3 38t22.5 31t33.5 17.5t38 -2.5
q14 -6 21.5 -18t7 -24.5t-9 -21.5t-24.5 -9q-13 0 -19 12.5t8 26.5l-1 1h-1q-18 -7 -18.5 -19.5t5.5 -29.5zM181 570l-18 39l-18 -39h-42l23 50q3 6 0 13h22h30h21q-2 -7 1 -13l23 -50h-42z" />
    <glyph glyph-name="edieresis" unicode="&#xeb;" horiz-adv-x="699" 
d="M391 -1h-291h-50h-1h-43q16 5 24.5 13.5t12.5 17.5q4 11 5 22v378q0 24 -11 43.5t-31 24.5h330v-79v-26q-5 6 -11 11q-5 5 -14 8.5t-21 3.5h-151v-154h31q12 0 19 10l5 8v-94l-6 10q-7 9 -17 9h-32v-123h139l-34 116q-5 20 3 38t22.5 31t33.5 17.5t38 -2.5
q14 -6 21.5 -18t7 -24.5t-9 -21.5t-24.5 -9q-13 0 -19 12.5t8 26.5l-1 1h-1q-18 -7 -18.5 -19.5t5.5 -29.5zM178 574q0 -15 6 -30l-4 2q-6 1 -11.5 2t-12.5 1h-41q-6 0 -12 -1l-12 -2l-4 -2q5 17 5 30v41q0 14 -5 29l9 -2q5 -1 15 -1h49q11 0 15 1l9 2q-6 -14 -6 -29v-41z
M320 574q0 -15 6 -30l-4 2l-12 2t-12 1h-42q-6 0 -11.5 -1t-11.5 -2l-4 -2q5 17 5 30v41q0 14 -5 29l8 -2q5 -1 16 -1h49q10 0 15 1l9 2q-6 -14 -6 -29v-41z" />
    <glyph glyph-name="igrave" unicode="&#xec;" horiz-adv-x="188" 
d="M138 61q0 -1 2 -9.5t7 -19t13.5 -20t21.5 -12.5h-176q13 3 21 13t12.5 20.5t6.5 19t2 9.5v377q0 2 -1 10t-5 18t-12 19t-23 13h173q-14 -5 -22 -15t-12 -20q-4 -12 -6 -25zM108 675q-4 -9 1 -21l39 -88h-73l-41 91q-2 5 -6 8l-10 10h90z" />
    <glyph glyph-name="iacute" unicode="&#xed;" horiz-adv-x="188" 
d="M138 61l2 378q2 13 6 25q4 10 12 20t22 15h-173q15 -4 23 -13t12 -19t5 -18t1 -10v-377q0 -1 -2 -9.5t-6.5 -19t-12.5 -20.5t-21 -13h176q-13 3 -21.5 12.5t-13.5 20t-7 19t-2 9.5zM90 676h103l-12 -11q-4 -4 -7 -10l-47 -103h-83l45 100q6 11 1 24z" />
    <glyph glyph-name="icircumflex" unicode="&#xee;" horiz-adv-x="188" 
d="M138 61q0 -1 2 -9.5t7 -19t13.5 -20t21.5 -12.5h-176q13 3 21 13t12.5 20.5t6.5 19t2 9.5v377q0 2 -1 10t-5 18t-12 19t-23 13h173q-14 -5 -22 -15t-12 -20q-4 -12 -6 -25zM123 570l-23 51l-24 -51h-54l30 65q3 8 0 17h28h39h27q-2 -11 2 -17l29 -65h-54z" />
    <glyph glyph-name="idieresis" unicode="&#xef;" horiz-adv-x="188" 
d="M138 61q0 -1 2 -9.5t7 -19t13.5 -20t21.5 -12.5h-176q13 3 21 13t12.5 20.5t6.5 19t2 9.5v377q0 2 -1 10t-5 18t-12 19t-23 13h173q-14 -5 -22 -15t-12 -20q-4 -12 -6 -25zM74 584q0 -12 4 -21l-3 1q-4 1 -8 1.5t-9 0.5h-29q-5 0 -8.5 -0.5t-8.5 -1.5l-3 -1q2 5 3 10.5
t1 10.5v29q0 5 -1 10.5t-3 10.5l6 -1q4 -1 11 -1h35q8 0 11 1l6 1q-4 -8 -4 -21v-29zM175 584q0 -12 4 -21l-3 1q-10 2 -17 2h-30q-4 0 -7.5 -0.5t-8.5 -1.5l-3 -1q2 5 3 10.5t1 10.5v29q0 5 -1 10.5t-3 10.5l6 -1q3 -1 11 -1h35q7 0 11 1l6 1q-4 -8 -4 -21v-29z" />
    <glyph glyph-name="eth" unicode="&#xf0;" 
d="M178 502q31 0 59 -12t49 -33t33 -49t12 -59v-196q0 -32 -12 -59.5t-33 -48t-49 -32.5t-59 -12h-19q-32 0 -59.5 12t-48.5 32.5t-33 48t-12 59.5v196q0 31 12 59t33 49t48.5 33t59.5 12h19zM257 300l-16 -14q-12 -12 -24.5 -18t-32.5 -4q-15 2 -25.5 11.5t-13 21.5t3 22.5
t21.5 15.5q13 3 22 -7t-1 -29q0 -3 2 -1q4 3 10.5 9t12.5 14.5t10.5 19t4.5 22.5q0 3 -2 9.5t-9 14t-19 13t-32 5.5q-32 0 -53.5 -22t-21.5 -53v-158q0 -30 21.5 -52t53.5 -22q31 0 53 22t22 52v104zM201 689q2 2 7 12.5t-1 20.5q1 0 9 -8t17.5 -18t17.5 -18t9 -8
q-10 5 -20 -0.5t-12 -6.5q-4 -5 -15.5 -16.5t-26.5 -25.5l43 -43q1 -1 10 -6t21 1l-9 -9t-17.5 -17t-17.5 -17t-8 -9q2 5 2 10.5t-2 10.5t-6 10l-43 42q-14 -14 -25 -25.5t-18 -17.5q-1 -1 -6.5 -10t0.5 -20q0 1 -8 9l-17 17l-17 17t-9 8q6 -3 11 -2.5t10 2.5q4 2 9 6l43 43
l-41 43q-2 1 -12.5 6t-20.5 0q1 0 9 8t17.5 18t17.5 18l8 8q-5 -10 0.5 -20.5t6.5 -11.5q5 -4 16 -15.5t26 -26.5z" />
    <glyph glyph-name="ntilde" unicode="&#xf1;" horiz-adv-x="417" 
d="M239 0h172q-24 6 -32.5 22.5t-10.5 25.5v13v26.5v26.5v14v330q0 10 10 24t32 20h-170q23 -6 32 -21t9 -26v-145q-39 44 -79.5 74.5t-64.5 45.5v28q0 9 9.5 23.5t31.5 20.5h-128h-43q24 -6 33 -21t9 -26v-398q0 -5 -2 -13t-7 -17t-13.5 -16.5t-20.5 -10.5h172
q-24 6 -32 22.5t-9 25.5v271q21 -15 46 -44t46.5 -62t36.5 -67t15 -59v-39q0 -4 -2 -11t-7 -14t-13 -13.5t-20 -9.5zM237 555q-28 0 -52 15q-47 30 -69 15l-15 -11q-11 -7 -18 -22l-1 -2l-29 45q16 -2 29 8l15 10q41 29 107 -14q15 -10 33.5 -10t33.5 11h1q12 9 18 22l2 4
l29 -47q-17 2 -31 -8q-23 -16 -53 -16z" />
    <glyph glyph-name="ograve" unicode="&#xf2;" 
d="M178 502q31 0 59 -12t49 -33t33 -49t12 -59v-196q0 -32 -12 -59.5t-33 -48t-49 -32.5t-59 -12h-19q-32 0 -59.5 12t-48.5 32.5t-33 48t-12 59.5v196q0 31 12 59t33 49t48.5 33t59.5 12h19zM257 300l-16 -14q-12 -12 -24.5 -18t-32.5 -4q-15 2 -25.5 11.5t-13 21.5t3 22.5
t21.5 15.5q13 3 22 -7t-1 -29q0 -3 2 -1q4 3 10.5 9t12.5 14.5t10.5 19t4.5 22.5q0 3 -2 9.5t-9 14t-19 13t-32 5.5q-32 0 -53.5 -22t-21.5 -53v-158q0 -30 21.5 -52t53.5 -22q31 0 53 22t22 52v104zM174 675q-4 -9 1 -21l39 -88h-73l-41 91q-2 5 -6 8l-10 10h90z" />
    <glyph glyph-name="oacute" unicode="&#xf3;" 
d="M178 502h-19q-32 0 -59.5 -12t-48.5 -33t-33 -49t-12 -59v-196q0 -32 12 -59.5t33 -48t48.5 -32.5t59.5 -12h19q31 0 59 12t49 32.5t33 48t12 59.5v196q0 31 -12 59t-33 49t-49 33t-59 12zM244 276v-104q0 -30 -22 -52t-53 -22q-32 0 -53.5 22t-21.5 52v158q0 31 21.5 53
t53.5 22q20 0 32 -5.5t19 -13t9 -14t2 -9.5q0 -12 -4.5 -22.5t-10.5 -19t-12.5 -14.5t-10.5 -9q-2 -2 -2 1q10 19 1 29t-22 7q-16 -5 -21.5 -15.5t-3 -22.5t13 -21.5t25.5 -11.5q20 -2 32.5 4t24.5 18l16 14zM148 676h103l-12 -11q-4 -4 -7 -10l-47 -103h-83l45 100
q6 11 1 24z" />
    <glyph glyph-name="ocircumflex" unicode="&#xf4;" 
d="M193 570l-23 51l-24 -51h-54l30 65q3 8 0 17h28h39h27q-2 -11 2 -17l29 -65h-54zM178 502q31 0 59 -12t49 -33t33 -49t12 -59v-196q0 -32 -12 -59.5t-33 -48t-49 -32.5t-59 -12h-19q-32 0 -59.5 12t-48.5 32.5t-33 48t-12 59.5v196q0 31 12 59t33 49t48.5 33t59.5 12h19z
M257 300l-16 -14q-12 -12 -24.5 -18t-32.5 -4q-15 2 -25.5 11.5t-13 21.5t3 22.5t21.5 15.5q13 3 22 -7t-1 -29q0 -3 2 -1q4 3 10.5 9t12.5 14.5t10.5 19t4.5 22.5q0 3 -2 9.5t-9 14t-19 13t-32 5.5q-32 0 -53.5 -22t-21.5 -53v-158q0 -30 21.5 -52t53.5 -22q31 0 53 22
t22 52v104z" />
    <glyph glyph-name="otilde" unicode="&#xf5;" 
d="M178 502h-19q-32 0 -59.5 -12t-48.5 -33t-33 -49t-12 -59v-196q0 -32 12 -59.5t33 -48t48.5 -32.5t59.5 -12h19q31 0 59 12t49 32.5t33 48t12 59.5v196q0 31 -12 59t-33 49t-49 33t-59 12zM244 276v-104q0 -30 -22 -52t-53 -22q-32 0 -53.5 22t-21.5 52v158q0 31 21.5 53
t53.5 22q20 0 32 -5.5t19 -13t9 -14t2 -9.5q0 -12 -4.5 -22.5t-10.5 -19t-12.5 -14.5t-10.5 -9q-2 -2 -2 1q10 19 1 29t-22 7q-16 -5 -21.5 -15.5t-3 -22.5t13 -21.5t25.5 -11.5q20 -2 32.5 4t24.5 18l16 14zM226 555q-28 0 -52 15q-47 30 -69 15l-15 -11q-11 -7 -18 -22
l-1 -2l-29 45q16 -2 29 8l15 10q41 29 107 -14q15 -10 33.5 -10t33.5 11h1q12 9 18 22l2 4l29 -47q-17 2 -31 -8q-23 -16 -53 -16z" />
    <glyph glyph-name="odieresis" unicode="&#xf6;" 
d="M178 502q31 0 59 -12t49 -33t33 -49t12 -59v-196q0 -32 -12 -59.5t-33 -48t-49 -32.5t-59 -12h-19q-32 0 -59.5 12t-48.5 32.5t-33 48t-12 59.5v196q0 31 12 59t33 49t48.5 33t59.5 12h19zM257 300l-16 -14q-12 -12 -24.5 -18t-32.5 -4q-15 2 -25.5 11.5t-13 21.5t3 22.5
t21.5 15.5q13 3 22 -7t-1 -29q0 -3 2 -1q4 3 10.5 9t12.5 14.5t10.5 19t4.5 22.5q0 3 -2 9.5t-9 14t-19 13t-32 5.5q-32 0 -53.5 -22t-21.5 -53v-158q0 -30 21.5 -52t53.5 -22q31 0 53 22t22 52v104zM130 574q0 -15 6 -30l-4 2q-6 1 -11.5 2t-12.5 1h-41q-6 0 -12 -1l-12 -2
l-4 -2q5 17 5 30v41q0 14 -5 29l9 -2q5 -1 15 -1h49q11 0 15 1l9 2q-6 -14 -6 -29v-41zM272 574q0 -15 6 -30l-4 2l-12 2t-12 1h-42q-6 0 -11.5 -1t-11.5 -2l-4 -2q5 17 5 30v41q0 14 -5 29l8 -2q5 -1 16 -1h49q10 0 15 1l9 2q-6 -14 -6 -29v-41z" />
    <glyph glyph-name="divide" unicode="&#xf7;" horiz-adv-x="303" 
d="M212 481q0 -18 8 -39l-6 2q-17 5 -31 5h-54q-13 0 -30 -5l-6 -2q7 18 7 39v53q0 21 -7 38l11 -2q5 -1 10 -1.5t10 -0.5h65q5 0 9.5 0.5t9.5 1.5l12 2q-8 -19 -8 -38v-53zM215 130q0 -18 8 -39l-6 2q-17 5 -31 5h-54q-13 0 -30 -5l-6 -2q7 18 7 39v53q0 21 -7 38l11 -2
q5 -1 10 -1.5t10 -0.5h65q5 0 9.5 0.5t9.5 1.5l12 2q-8 -19 -8 -38v-53zM249 349q1 0 8 1.5t15 5.5t15 10.5t10 16.5v-134q-3 10 -10.5 16.5t-15.5 10t-14.5 4.5t-7.5 1h-198q-1 0 -7 -1t-13.5 -4t-14.5 -9.5t-10 -17.5v132q3 -11 10.5 -17t15.5 -9q9 -4 19 -5z" />
    <glyph glyph-name="oslash" unicode="&#xf8;" horiz-adv-x="455" 
d="M361 429q40 -30 64 -76t24 -100q0 -46 -17.5 -86.5t-47.5 -70.5t-70.5 -47t-86.5 -17q-28 0 -57 8q-2 -11 -0.5 -20.5t4.5 -20.5h-157l33 33q14 12 21 28l12 25q-35 30 -56 73.5t-21 94.5q0 45 17.5 85t47.5 70t70 47.5t86 17.5q12 0 23.5 -1t22.5 -3q3 20 -6 40h171
q-47 -33 -77 -80zM96 253q0 -50 31 -84l107 214q-1 1 -7 1q-27 0 -51 -10.5t-41.5 -28.5t-28 -41.5t-10.5 -50.5zM227 121q27 0 51 10.5t42 28.5t28 42t10 51q0 28 -11 52t-30 42l-113 -224q5 -2 11 -2h12z" />
    <glyph glyph-name="ugrave" unicode="&#xf9;" horiz-adv-x="408" 
d="M402 505q-1 -2 -2 -2.5t-2 -2.5l-3 -3l-26 -27v-450q0 -3 3 -6l10 -5l9 -7v-2h-136v2l12 7l10 6q3 1 3 5v77l-12 -29q-4 -10 -12 -21.5t-21 -21.5t-31 -17t-42 -7q-47 0 -72 20t-36 44q-13 28 -14 64v341l-27 27q-2 1 -3 3q-3 3 -4 5h156q-1 -2 -2 -2.5t-2 -2.5l-3 -3
l-26 -27l2 -333q2 -12 7 -22q5 -8 12.5 -14.5t21.5 -6.5q16 0 29.5 12t24.5 32t19.5 45t14.5 51q11 43 15.5 86t4.5 88v62l-27 27q-2 1 -3 3q-3 3 -4 5h156zM214 675q-4 -9 1 -21l39 -88h-73l-41 91q-2 5 -6 8l-10 10h90z" />
    <glyph glyph-name="uacute" unicode="&#xfa;" horiz-adv-x="408" 
d="M246 505q1 -2 4 -5q1 -2 3 -3l27 -27v-62q0 -45 -4.5 -88t-15.5 -86q-6 -26 -14.5 -51t-19.5 -45t-24.5 -32t-29.5 -12q-14 0 -21.5 6.5t-12.5 14.5q-5 10 -7 22l-2 333l26 27l3 3q1 2 2 2.5t2 2.5h-156q1 -2 4 -5q1 -2 3 -3l27 -27v-341q1 -36 14 -64q11 -24 36 -44
t72 -20q24 0 42 7t31 17t21 21.5t12 21.5l12 29v-77q0 -4 -3 -5l-10 -6l-12 -7v-2h136v2l-9 7l-10 5q-3 3 -3 6v450l26 27l3 3q1 2 2 2.5t2 2.5h-156zM196 676h103l-12 -11q-4 -4 -7 -10l-47 -103h-83l45 100q6 11 1 24z" />
    <glyph glyph-name="ucircumflex" unicode="&#xfb;" horiz-adv-x="398" 
d="M402 505q-1 -2 -2 -2.5t-2 -2.5l-3 -3l-26 -27v-450q0 -3 3 -6l10 -5l9 -7v-2h-136v2l12 7l10 6q3 1 3 5v77l-12 -29q-4 -10 -12 -21.5t-21 -21.5t-31 -17t-42 -7q-47 0 -72 20t-36 44q-13 28 -14 64v341l-27 27q-2 1 -3 3q-3 3 -4 5h156q-1 -2 -2 -2.5t-2 -2.5l-3 -3
l-26 -27l2 -333q2 -12 7 -22q5 -8 12.5 -14.5t21.5 -6.5q16 0 29.5 12t24.5 32t19.5 45t14.5 51q11 43 15.5 86t4.5 88v62l-27 27q-2 1 -3 3q-3 3 -4 5h156zM257 570l-18 39l-18 -39h-42l23 50q3 6 0 13h22h30h21q-2 -7 1 -13l23 -50h-42z" />
    <glyph glyph-name="udieresis" unicode="&#xfc;" horiz-adv-x="408" 
d="M402 505q-1 -2 -2 -2.5t-2 -2.5l-3 -3l-26 -27v-450q0 -3 3 -6l10 -5l9 -7v-2h-136v2l12 7l10 6q3 1 3 5v77l-12 -29q-4 -10 -12 -21.5t-21 -21.5t-31 -17t-42 -7q-47 0 -72 20t-36 44q-13 28 -14 64v341l-27 27q-2 1 -3 3q-3 3 -4 5h156q-1 -2 -2 -2.5t-2 -2.5l-3 -3
l-26 -27l2 -333q2 -12 7 -22q5 -8 12.5 -14.5t21.5 -6.5q16 0 29.5 12t24.5 32t19.5 45t14.5 51q11 43 15.5 86t4.5 88v62l-27 27q-2 1 -3 3q-3 3 -4 5h156zM178 574q0 -15 6 -30l-4 2q-6 1 -11.5 2t-12.5 1h-41q-6 0 -12 -1l-12 -2l-4 -2q5 17 5 30v41q0 14 -5 29l9 -2
q5 -1 15 -1h49q11 0 15 1l9 2q-6 -14 -6 -29v-41zM320 574q0 -15 6 -30l-4 2l-12 2t-12 1h-42q-6 0 -11.5 -1t-11.5 -2l-4 -2q5 17 5 30v41q0 14 -5 29l8 -2q5 -1 16 -1h49q10 0 15 1l9 2q-6 -14 -6 -29v-41z" />
    <glyph glyph-name="yacute" unicode="&#xfd;" horiz-adv-x="417" 
d="M249 59l1 202l8 15l96 176q5 10 9.5 17.5t10.5 13.5t14.5 11t22.5 10h-5h-155h-3q14 -26 1 -49l-45 -83l-44 83q-6 11 -5 23.5t9 22.5h-31h-4h-123q13 -5 20 -9t11.5 -9.5t8 -12t9.5 -16.5l97 -178l6 -13v-203q0 -2 -2 -11t-6.5 -20t-13.5 -21t-22 -13h181
q-14 3 -22.5 13t-14 21t-7.5 19.5t-2 10.5zM212 645h52l-6 -6q-1 -1 -1.5 -2t-1.5 -2l-31 -69h-42l30 67q3 6 0 12z" />
    <glyph glyph-name="thorn" unicode="&#xfe;" horiz-adv-x="373" 
d="M279 378q38 -17 63 -51t25 -78q0 -30 -9 -55t-25.5 -43t-39 -28.5t-49.5 -10.5q-32 0 -62.5 5.5t-60.5 15.5v-76q0 -2 1.5 -9.5t6 -16.5t12 -17.5t19.5 -11.5h-154q12 3 19 11.5t11.5 18t6 17t1.5 8.5v391q0 2 -1 9t-4.5 15.5t-11 16.5t-20.5 12h151q-14 -5 -20.5 -13.5
t-10.5 -17.5q-4 -11 -5 -22v-72q38 12 79.5 15t77.5 -13zM247 192q22 3 31.5 20t9.5 37q0 28 -19 42.5t-45.5 19t-54.5 0.5t-47 -11l-1 -95q31 -8 63.5 -12.5t62.5 -0.5z" />
    <glyph glyph-name="ydieresis" unicode="&#xff;" horiz-adv-x="833" 
d="M368 59q0 -2 2 -10.5t7.5 -19.5t14 -21t22.5 -13h-181q13 3 22 13t13.5 21t6.5 20t2 11v203l-6 13l-97 178q-6 10 -9.5 16.5t-8 12t-11.5 9.5t-20 9h123h4h31q-8 -10 -9 -22.5t5 -23.5l44 -83l45 83q13 23 -1 49h3h155h5q-14 -5 -22.5 -10t-14.5 -11t-10.5 -13.5
t-9.5 -17.5l-96 -176l-8 -15zM303 574q0 -15 6 -30l-4 2q-6 1 -11.5 2t-12.5 1h-41q-6 0 -12 -1l-12 -2l-4 -2q5 17 5 30v41q0 14 -5 29l9 -2q5 -1 15 -1h49q11 0 15 1l9 2q-6 -14 -6 -29v-41zM445 574q0 -15 6 -30l-4 2l-12 2t-12 1h-42q-6 0 -11.5 -1t-11.5 -2l-4 -2
q5 17 5 30v41q0 14 -5 29l8 -2q5 -1 16 -1h49q10 0 15 1l9 2q-6 -14 -6 -29v-41z" />
    <glyph glyph-name="dotlessi" unicode="&#x131;" horiz-adv-x="297" 
d="M291 -1h-129q11 16 17 34t6 37v324h-123q-26 0 -47 -9l-9 -4v123q31 -24 72 -24h192v-414q0 -38 21 -66v-1z" />
    <glyph glyph-name="Lslash" unicode="&#x141;" horiz-adv-x="690" 
d="M651 -43q8 -18 16.5 -36.5t16.5 -36.5l-42.5 -0.5t-106 -0.5h-137h-136.5h-127h-1h-46q24 7 34 23t12 27v425l-76 -68q-32 -28 -51 -67l-1 -1v180q5 -10 15 -12t18 5l95 85v345q0 4 -2 12t-7 17t-14 16.5t-24 11.5h47h125h3h45q-22 -5 -33.5 -21.5t-11.5 -29.5v-237
l116 103q32 29 50 66v-21v-16v-102v-4v-47q-6 13 -19 15.5t-24 -6.5l-123 -110v-403q0 -26 19 -45t45 -19h164l-108 245q-3 6 -9 23t-9 39t0 47.5t18 48.5q12 20 31 32.5t41 17.5q31 8 67 6.5t65 -15.5q22 -11 34.5 -30.5t17.5 -42.5q2 -14 3 -29t-2 -29q-2 -10 -7.5 -20.5
t-14 -19.5t-18.5 -14.5t-21 -6.5q-19 -2 -33.5 10t-14.5 32q1 15 11 27t24 14q11 2 20 -1t17 -9q-1 1 -1.5 5.5t-1.5 6.5q-5 11 -15.5 19.5t-24 13t-26.5 3t-22 -11.5q-8 -8 -11 -19.5t-4 -22.5q0 -10 3 -18.5t7 -18.5q3 -7 14 -31.5t25.5 -57.5t31.5 -71.5t32 -72.5
t26.5 -60.5t15.5 -36.5z" />
    <glyph glyph-name="lslash" unicode="&#x142;" horiz-adv-x="346" 
d="M24 -2q16 5 24.5 14t12.5 18q4 11 5 23v145l-29 -27q-20 -19 -31 -39v-1v107q3 -6 8.5 -7t10.5 3l41 36v188q-2 15 -10 28t-32 20h173q-22 -6 -30 -17t-10 -28v-111l71 64q17 14 30 39v-13v-9v-61v-3v-27q-4 8 -12 9t-14 -4l-75 -69v-193h58l-8 78q-5 21 2.5 40t22.5 32
t34.5 17.5t38.5 -2.5q15 -6 22.5 -18t7 -24t-8.5 -21.5t-25 -9.5q-7 0 -12.5 3.5t-8 9t-1 12.5t9.5 15q0 2 -2 2q-20 -8 -20 -21.5t7 -31.5l66 -166h-316v0z" />
    <glyph glyph-name="Scaron" unicode="&#x160;" horiz-adv-x="735" 
d="M324 1013l23 -51l24 51h56l-30 -66q-5 -9 0 -17h-30h-39h-28q2 10 -2 17l-30 66h56zM545 414q26 -17 58 -40.5t60 -54t47 -69t19 -86.5q0 -62 -25 -114t-70 -89.5t-108 -58t-138 -20.5q-67 0 -117.5 16.5t-87 42t-61 57t-39.5 61.5q-11 20 -24 36t-25 27q-14 13 -28 23
l204 85q-12 -16 -17 -36q-5 -17 -4.5 -40.5t13.5 -50.5q19 -39 64.5 -67t121.5 -28q48 0 88 11.5t68 32t43.5 49t15.5 63.5q0 21 -10.5 39.5t-28 36.5t-40.5 34.5t-48 33.5q-27 18 -55 33t-58 32q-38 20 -77 42t-77 50q-41 30 -63.5 60.5t-33 59t-10.5 54.5t5 47
q7 33 24.5 60.5t40 49t49 37t51.5 24.5q81 30 162.5 24t146.5 -48q16 -11 34.5 -7t28.5 21l20 35v-95v-188q0 -15 0.5 -32t-1 -34t-7 -32.5t-16.5 -27.5q-10 -10 -26 -14t-32.5 -1.5t-29.5 11t-17 24.5q-2 9 0.5 18.5t8.5 16.5t15 11.5t18 4.5q14 0 27 -10q0 60 -19.5 109.5
t-72.5 83.5q-38 25 -90.5 28.5t-104.5 -16.5q-29 -11 -55 -32t-32 -49q-1 -4 -2 -12t3.5 -20t17 -27t36.5 -33q31 -23 65.5 -42.5t71.5 -39.5q31 -16 62 -33t61 -37z" />
    <glyph glyph-name="scaron" unicode="&#x161;" horiz-adv-x="363" 
d="M184 645l23 -51l24 51h56l-30 -66q-5 -9 0 -17h-30h-39h-28q2 10 -2 17l-30 66h56zM260 277q33 -22 59 -53t26 -74q0 -34 -14 -62q-10 -22 -27.5 -39t-39.5 -28q-10 -5 -19.5 -8t-20.5 -6q-37 -11 -73.5 -5.5t-74.5 10.5q-12 2 -24.5 -0.5t-21.5 -11.5v30v161
q5 -14 13.5 -30t13.5 -23q12 -15 29.5 -25t36.5 -16q26 -8 55 -6t52 19q19 13 22 31.5t-12 35.5q-14 15 -35 26.5t-40 22.5q-24 13 -51 27.5t-49.5 33.5t-37.5 43t-15 56q0 10 2.5 24.5t11.5 29t25 28t43 21.5q2 1 10.5 3.5t20.5 5t28 4.5t33 1q31 -1 57 -11t46.5 -18
t35 -10t22.5 13q3 5 5 8t7 3h7l-67 -153q1 0 2 1q14 0 22.5 -10t6.5 -23t-11 -21t-23 -6t-20 16t-6 26v57q0 20 -9 33.5t-23 21t-31.5 9.5t-33.5 0q-11 -2 -23.5 -5t-23.5 -8.5t-18.5 -14.5t-7.5 -22t10 -23.5t23.5 -19t28.5 -15.5t24 -12q19 -10 37.5 -20t36.5 -22z" />
    <glyph glyph-name="Ydieresis" unicode="&#x178;" horiz-adv-x="561" 
d="M705 748q-23 -10 -37.5 -21t-22.5 -31q-14 -34 -33 -84.5t-42 -112.5t-49.5 -133t-53.5 -145q8 -1 15.5 -1h15.5v-130q-42 0 -77 7q-38 -104 -74.5 -201.5t-66 -175t-50.5 -128.5t-28 -60q-18 -25 -39.5 -49t-46.5 -44t-53.5 -33t-61.5 -15q-59 -4 -115.5 21t-88.5 76
q-25 41 -24 89.5t31 86.5q19 24 46.5 30.5t50 -1.5t35 -29t2.5 -52q-4 -12 -14 -20.5t-22 -9.5t-24.5 6.5t-21.5 26.5q-1 1 -5 -3q-9 -9 -7 -21t10.5 -23.5t19 -21t17.5 -14.5q28 -20 61.5 -25t64.5 14q25 16 43.5 39.5t35.5 46.5q6 9 25.5 57t46.5 122t60.5 167t68.5 191
q-19 12 -37 26.5t-35 31.5q-36 37 -62.5 81.5t-45.5 92t-31.5 95.5t-19.5 92t-10.5 81t-4.5 63q-1 15 -13 25t-24 16h199q-17 -8 -25 -18.5t-6 -29.5q2 -35 8 -87.5t21 -110t40.5 -113t66.5 -97.5q13 -13 25 -21q24 67 46.5 131.5t43 120.5t37.5 101.5t29 75.5
q5 13 0.5 25.5t-20.5 22.5h226zM303 816q0 -15 6 -30l-4 2q-6 1 -11.5 2t-12.5 1h-41q-6 0 -12 -1l-12 -2l-4 -2q5 17 5 30v41q0 14 -5 29l9 -2q5 -1 15 -1h49q11 0 15 1l9 2q-6 -14 -6 -29v-41zM445 816q0 -15 6 -30l-4 2l-12 2t-12 1h-42q-6 0 -11.5 -1t-11.5 -2l-4 -2
q5 17 5 30v41q0 14 -5 29l8 -2q5 -1 16 -1h49q10 0 15 1l9 2q-6 -14 -6 -29v-41z" />
    <glyph glyph-name="Zcaron" unicode="&#x17d;" horiz-adv-x="710" 
d="M384 1089v-6q3 -17 14 -29l44 -55l48 58q12 15 12 31l54 -25h-1q-8 -5 -15.5 -9.5t-12.5 -12.5l-84 -104l-85 103q-8 10 -20 17l-11 7zM633 269q-6 -18 9 -38q29 -35 42.5 -78t10.5 -88q-2 -50 -25.5 -94.5t-61.5 -76.5l-17 -14h-603l509 901h-292q-8 0 -18 -4t-20 -12
t-17.5 -19.5t-9.5 -26.5q-2 -18 -1 -28.5t3 -15.5q2 -6 6 -8q1 5 5.5 11.5t11.5 6.5q8 0 13.5 -8.5t5.5 -19.5t-3.5 -17t-8 -8.5t-9.5 -3t-7 -0.5q-17 0 -25 11.5t-8 27.5v40v221h1l1 -1q11 -10 26 -15t29 -5h532l-507 -901h292q29 0 51.5 19.5t23.5 50.5q0 15 -3 27t-8 25
q-7 12 -21 17t-27 -2l120 129v-3z" />
    <glyph glyph-name="zcaron" unicode="&#x17e;" horiz-adv-x="460" 
d="M330 88q45 0 86 25l23 15v-40v-93h-433l273 419h-152q-22 0 -36.5 -9.5t-30.5 -24.5v127h394l-274 -419h150zM244 704v-6q2 -17 14 -31l47 -59l51 62q13 16 13 33l58 -27h-1q-9 -5 -17 -10t-14 -13l-89 -111l-90 110q-9 10 -21 18l-12 7z" />
    <glyph glyph-name="florin" unicode="&#x192;" horiz-adv-x="690" 
d="M788 839q25 -14 47 -5t45 21q-7 -10 -26.5 -39.5t-45 -67.5t-54 -80t-53.5 -78t-42.5 -60.5t-21.5 -27.5q-10 -8 -22.5 -8.5t-23 5.5t-17 16.5t-4.5 24.5q2 15 11 23.5t19.5 9t20 -6.5t13.5 -22q14 28 26.5 49.5t24.5 44.5q4 8 7.5 16.5t5.5 17.5q6 24 -0.5 44.5t-21 36
t-35 25t-42.5 11.5q-29 2 -51.5 -8.5t-47.5 -23.5q-17 -8 -35 -16t-36 -15q-4 -2 -8 -3t-9 -3v-283h64q2 0 4.5 0.5t4.5 0.5h9t9 -1h9t9 1q8 2 15.5 5t14.5 8q17 12 21 29v-42v-110v-3v-38q-5 18 -20 28t-26 9l-52 1h-62v-239q0 -52 -17 -107t-49 -103.5t-77 -85t-102 -50.5
l-14 -4q-29 -8 -55 -22t-48 -34l-44 164q31 -9 63.5 -8t63.5 10.5t58 27.5t47 43q28 35 45 79.5t17 89.5v611h-20q-59 0 -101 21t-67 45q-7 7 -13.5 10.5t-23.5 3.5l108 75l20 14q0 -2 -1 -4t-1 -4q-1 -3 -1 -10q-2 -12 8 -20q5 -5 11.5 -7.5t13.5 -4.5q29 -10 60.5 -9
t60.5 9t55 21.5t53 28.5q36 20 76 29.5t82 4.5q29 -4 55.5 -14t53.5 -21l30 -12t29 -14z" />
    <glyph glyph-name="circumflex" unicode="&#x2c6;" horiz-adv-x="289" 
d="M6 517l13 9q15 10 24 25l102 153l102 -154q13 -20 36 -31v-1l-65 -38q-2 25 -15 46l-58 87l-54 -82q-13 -19 -15 -44l-1 -8z" />
    <glyph glyph-name="caron" unicode="&#x2c7;" horiz-adv-x="289" 
d="M283 719l-13 -9q-15 -10 -24 -25l-102 -153l-102 154q-13 20 -36 31v1l65 38q2 -25 15 -46l58 -87l54 82q13 19 15 44l1 8z" />
    <glyph glyph-name="breve" unicode="&#x2d8;" horiz-adv-x="361" 
d="M67 661q0 -9 4.5 -17.5t11.5 -13.5q35 -30 84 -35q11 -2 20.5 -1.5t19.5 2.5q32 6 56 26.5t35 50.5l57 -65q-14 -2 -25 -11t-22 -17q-32 -24 -69.5 -35t-76.5 -7q-70 6 -123 54q-7 6 -14 12.5t-19 8.5z" />
    <glyph glyph-name="pi" unicode="&#x3c0;" horiz-adv-x="297" 
d="M491 450q1 0 8 1.5t15 5.5t15 10.5t10 16.5v-134q-3 10 -10.5 16.5t-15.5 10t-14.5 4.5t-7.5 1h-440q-1 0 -7 -1t-13.5 -4t-14.5 -9.5t-10 -17.5v132q3 -11 10.5 -17t15.5 -9q9 -4 19 -5zM85 385l-1 -456q-1 -10 -5 -19q-3 -8 -9 -15.5t-17 -10.5h132q-11 3 -17.5 10
t-9.5 14.5t-4 13.5t-1 7v456q0 1 1 7.5t4.5 14.5t10 15.5t16.5 10.5h-134q10 -3 16.5 -10t10.5 -15t5.5 -15t1.5 -8zM389 385l-1 -456q-1 -10 -5 -19q-3 -8 -9 -15.5t-17 -10.5h132q-11 3 -17.5 10t-9.5 14.5t-4 13.5t-1 7v456q0 1 1 7.5t4.5 14.5t10 15.5t16.5 10.5h-134
q10 -3 16.5 -10t10.5 -15t5.5 -15t1.5 -8z" />
    <glyph glyph-name="endash" unicode="&#x2013;" horiz-adv-x="303" 
d="M249 313q1 0 8 1.5t15 5.5t15 10.5t10 16.5v-134q-3 10 -10.5 16.5t-15.5 10t-14.5 4.5t-7.5 1h-198q-1 0 -7 -1t-13.5 -4t-14.5 -9.5t-10 -17.5v132q3 -11 10.5 -17t15.5 -9q9 -4 19 -5l198 -1v0z" />
    <glyph glyph-name="emdash" unicode="&#x2014;" horiz-adv-x="630" 
d="M576 313q1 0 8 1.5t15 5.5t15 10.5t10 16.5v-134q-3 10 -10.5 16.5t-15.5 10t-14.5 4.5t-7.5 1h-525q-1 0 -7 -1t-13.5 -4t-14.5 -9.5t-10 -17.5v132q3 -11 10.5 -17t15.5 -9q9 -4 19 -5l525 -1v0z" />
    <glyph glyph-name="quoteleft" unicode="&#x2018;" horiz-adv-x="117" 
d="M55 470q-15 1 -28 11t-18 24q-8 26 8 47q2 4 4.5 6.5t4.5 5.5q14 14 28.5 27t28.5 27l-11 -25q-4 -8 -1.5 -15.5t9.5 -12.5q10 -6 19.5 -15t10.5 -20q4 -25 -12.5 -43.5t-42.5 -16.5z" />
    <glyph glyph-name="quoteright" unicode="&#x2019;" horiz-adv-x="117" 
d="M69 603q15 -3 26.5 -14.5t14.5 -26.5q2 -13 -2 -25t-12 -21q-3 -4 -11 -10q-16 -12 -32 -23.5t-32 -22.5l15 23q5 7 3.5 15.5t-8.5 13.5q-8 8 -16.5 18t-8.5 21q0 25 18.5 41t44.5 11z" />
    <glyph glyph-name="quotesinglbase" unicode="&#x201a;" horiz-adv-x="117" 
d="M69 102q15 -3 26.5 -14.5t14.5 -26.5q2 -13 -2 -25t-12 -21q-3 -4 -11 -10q-16 -12 -32 -23.5t-32 -22.5l15 23q5 7 3.5 15.5t-8.5 13.5q-8 8 -16.5 18t-8.5 21q0 25 18.5 41t44.5 11z" />
    <glyph glyph-name="quotedblleft" unicode="&#x201c;" horiz-adv-x="258" 
d="M55 480q-15 1 -28 11t-18 24q-8 26 8 47q2 4 4.5 6.5t4.5 5.5q14 14 28.5 27t28.5 27l-11 -25q-4 -8 -1.5 -15.5t9.5 -12.5q10 -6 19.5 -15t10.5 -20q4 -25 -12.5 -43.5t-42.5 -16.5zM196 470q-15 1 -28 11t-18 24q-8 26 8 47q2 4 4.5 6.5t4.5 5.5q14 14 28.5 27t28.5 27
l-11 -25q-4 -8 -1.5 -15.5t9.5 -12.5q10 -6 19.5 -15t10.5 -20q4 -25 -12.5 -43.5t-42.5 -16.5z" />
    <glyph glyph-name="quotedblright" unicode="&#x201d;" horiz-adv-x="237" 
d="M69 591q15 -3 26.5 -14.5t14.5 -26.5q2 -13 -2 -25t-12 -21q-3 -4 -11 -10q-16 -12 -32 -23.5t-32 -22.5l15 23q5 7 3.5 15.5t-8.5 13.5q-8 8 -16.5 18t-8.5 21q0 25 18.5 41t44.5 11zM189 591q15 -3 26.5 -14.5t14.5 -26.5q2 -13 -2 -25t-12 -21q-3 -4 -11 -10
q-16 -12 -32 -23.5t-32 -22.5l15 23q5 7 3.5 15.5t-8.5 13.5q-8 8 -16.5 18t-8.5 21q0 25 18.5 41t44.5 11z" />
    <glyph glyph-name="quotedblbase" unicode="&#x201e;" horiz-adv-x="237" 
d="M69 102q15 -3 26.5 -14.5t14.5 -26.5q2 -13 -2 -25t-12 -21q-3 -4 -11 -10q-16 -12 -32 -23.5t-32 -22.5l15 23q5 7 3.5 15.5t-8.5 13.5q-8 8 -16.5 18t-8.5 21q0 25 18.5 41t44.5 11zM189 102q15 -3 26.5 -14.5t14.5 -26.5q2 -13 -2 -25t-12 -21q-3 -4 -11 -10
q-16 -12 -32 -23.5t-32 -22.5l15 23q5 7 3.5 15.5t-8.5 13.5q-8 8 -16.5 18t-8.5 21q0 25 18.5 41t44.5 11z" />
    <glyph glyph-name="dagger" unicode="&#x2020;" horiz-adv-x="684" 
d="M623 494q13 0 30.5 10.5t24.5 37.5v-223q-8 29 -26.5 38t-31.5 9h-214v-242v-326q0 -14 10 -31t37 -24h-223q30 8 39 26t9 32v565h-214q-5 0 -13 -2t-17 -7t-16.5 -14t-11.5 -24v47v125v3v45q5 -21 21.5 -33t30.5 -12h220v192q0 4 -2 12.5t-7.5 17.5t-14.5 16.5t-24 11.5
h48h126h2h45q-22 -5 -33.5 -21.5t-11.5 -30.5v-198h217v0z" />
    <glyph glyph-name="daggerdbl" unicode="&#x2021;" horiz-adv-x="686" 
d="M407 380v-219h218q13 0 30.5 10.5t24.5 36.5v-224q-8 30 -26.5 39t-31.5 9h-215v-222q0 -13 10.5 -30.5t37.5 -24.5h-224q30 8 39 26.5t9 31.5v219h-215q-4 0 -12 -2t-17 -7.5t-17 -14.5t-12 -24v48v126v3v45q5 -21 21.5 -33t30.5 -12h221v219h-215q-4 0 -12 -2t-17 -7
t-17 -14t-12 -24v47v126v3v45q5 -22 21.5 -33.5t30.5 -11.5h221v193q0 4 -2 12t-7.5 17t-14.5 16.5t-24 11.5h48h126h2h46q-22 -5 -34 -21.5t-12 -29.5v-199h218q13 0 30.5 10t24.5 38v-224q-8 29 -26.5 38t-31.5 9h-215z" />
    <glyph glyph-name="bullet" unicode="&#x2022;" horiz-adv-x="163" 
d="M157 322q0 -31 -22 -53.5t-54 -22.5t-53.5 22.5t-21.5 53.5q0 32 21.5 53.5t53.5 21.5t54 -21.5t22 -53.5z" />
    <glyph glyph-name="ellipsis" unicode="&#x2026;" horiz-adv-x="524" 
d="M130 93q10 -11 27 -19l-5 -2q-12 -7 -22 -14l-33 -31q-8 -8 -15 -20l-2 -5q-8 16 -18 27l-30 33q-6 6 -12 11t-14 8l8 5q3 2 6.5 4.5t7.5 6.5l39 36q3 3 5.5 6t4.5 6l6 8q3 -8 7 -15t10 -12zM305 93q10 -11 27 -19l-5 -2q-12 -7 -22 -14l-33 -31q-8 -8 -15 -20l-2 -5
q-8 16 -18 27l-30 33q-6 6 -12 11t-14 8l8 5q3 2 6.5 4.5t7.5 6.5l39 36q3 3 5.5 6t4.5 6l6 8q3 -8 7 -15t10 -12zM491 93q10 -11 27 -19l-5 -2q-12 -7 -22 -14l-33 -31q-8 -8 -15 -20l-2 -5q-8 16 -18 27l-30 33q-6 6 -12 11t-14 8l8 5q3 2 6.5 4.5t7.5 6.5l39 36
q3 3 5.5 6t4.5 6l6 8q3 -8 7 -15t10 -12z" />
    <glyph glyph-name="guilsinglleft" unicode="&#x2039;" horiz-adv-x="415" 
d="M341 -6l-16 23q-19 26 -45 44l-274 183l276 183q36 24 56 64l1 1l69 -117q-23 -2 -44 -8.5t-39 -19.5l-156 -103l147 -98q34 -24 78 -27l15 -2z" />
    <glyph glyph-name="guilsinglright" unicode="&#x203a;" horiz-adv-x="415" 
d="M6 127l14 2q43 3 79 27l147 98l-156 103q-37 25 -83 28l69 117v-1q19 -39 57 -64l276 -183l-275 -183q-13 -9 -24.5 -20t-19.5 -24l-16 -23z" />
    <glyph glyph-name="fraction" unicode="&#x2044;" horiz-adv-x="527" 
d="M6 2l34 33q7 7 12 14t10 15l280 504q8 16 9 34t-6 35h176q-31 -22 -55.5 -50.5t-41.5 -61.5l-249 -443q-20 -39 -8 -80h-161z" />
    <glyph glyph-name="Euro" unicode="&#x20ac;" horiz-adv-x="677" 
d="M530 41q7 7 12.5 19t6.5 23l122 -17q-14 -8 -23 -16t-15.5 -16t-11.5 -16t-12 -15q-42 -45 -99 -70.5t-123 -24.5q-58 1 -109.5 23t-90.5 60t-63 89t-28 108h-56q-8 0 -19 -7.5t-14 -21.5v11.5v26t-0.5 33.5t-0.5 33.5v26v11.5q3 -10 8 -16t10.5 -9t11 -4.5t8.5 -1.5h52
v97h-56q-8 1 -19 -6.5t-14 -21.5v23t-0.5 48t-0.5 47.5v23.5q3 -10 8 -16t10.5 -9t11 -4.5t8.5 -1.5h52v15q0 61 23 115.5t62.5 95.5t93 65t114.5 25q72 1 132 -29.5t102 -82.5q16 -19 37 -34l11 -7l-123 -26q0 11 -1.5 19t-6.5 17q-9 18 -25.5 29.5t-36.5 18.5t-42.5 9.5
t-43.5 2.5q-44 0 -83 -16.5t-68 -45.5t-46 -68t-17 -83v-20h382q8 0 19 6.5t16 23.5v-143q-5 19 -17 24.5t-20 5.5h-380v-97h382q8 0 19 6.5t16 23.5v-143q-5 20 -17 25.5t-20 5.5h-379q3 -41 21 -77t46.5 -63t66 -42.5t79.5 -15.5q44 0 76.5 11.5t61.5 39.5z" />
    <glyph glyph-name="trademark" unicode="&#x2122;" horiz-adv-x="533" 
d="M93 567q-18 0 -27 -14l-16 -21v79h269q-2 -1 -3.5 -1.5t-3.5 -2.5q-14 -9 -5 -23l37 -54q3 -4 7 0l40 54q5 6 3.5 13.5t-8.5 11.5l-4 2h101q-13 -5 -17.5 -14t-5.5 -15v-210q1 -6 5.5 -15t17.5 -14h-103q13 5 17.5 14t5.5 14v136l-50 -73q-5 -5 -10 0l-46 73v-139
q2 -6 6.5 -13t15.5 -12h-102q13 5 17.5 14t5.5 14v196h-62l-1 -184q0 -1 1.5 -6.5t4.5 -12.5t8.5 -13t13.5 -8h-112q9 2 14.5 8.5t8.5 13t4 12.5t1 7v183h-28v0z" />
    <glyph glyph-name="Omega" unicode="&#x2126;" horiz-adv-x="519" 
d="M469 79q19 0 26 3t18 19v-99h-228q1 0 3.5 3.5t4.5 7.5t3.5 7.5t1.5 4.5q4 9 11.5 29t15.5 46t15 57t11 62t3.5 61.5t-8.5 54.5t-25 39t-46 15t-47.5 -14t-29.5 -37t-15.5 -52t-3.5 -59q1 -32 6 -63.5t11.5 -59.5t13 -49t11.5 -30q0 -1 2 -4.5t4 -7.5t4 -7.5t3 -3.5h-228
v99q11 -16 18.5 -19t27.5 -3h39q-26 75 -25 150.5t25.5 136t69.5 98.5t107 38q46 0 82 -18.5t61 -50t38.5 -73.5t16 -89t-6.5 -96.5t-30 -95.5h40v0z" />
    <glyph glyph-name="partialdiff" unicode="&#x2202;" horiz-adv-x="431" 
d="M391 412q13 -20 19 -39q15 -42 14.5 -87t-15.5 -92q-14 -41 -38 -79.5t-62 -63.5q-20 -12 -40 -22t-41 -18q-41 -14 -82.5 -11.5t-74 20t-51 49.5t-12.5 78q5 42 30.5 78.5t67.5 62.5q28 17 58.5 26t59.5 10q12 0 23.5 6t19.5 17l-21 -120q-21 10 -49 6t-53 -19
q-14 -8 -28 -23.5t-17 -39.5q-4 -28 13.5 -43.5t40.5 -19.5q26 -4 55 5t58 29q34 23 51 55.5t20.5 65t-3 61.5t-19.5 46q-50 63 -152 63l22 120v-1q11 -28 44 -33q64 -8 102.5 -34.5t59.5 -52.5z" />
    <glyph glyph-name="Delta" unicode="&#x2206;" horiz-adv-x="468" 
d="M462 0h-456l228 486l228 -486v0zM129 53h207l-102 224l-105 -224v0z" />
    <glyph glyph-name="product" unicode="&#x220f;" horiz-adv-x="362" 
d="M320 58q1 -15 5 -26t10.5 -20t20.5 -14h-140q13 5 20 15.5t10 20.5q4 11 3 25l-1 399h-137v-401q1 -14 5 -25q4 -10 10.5 -20t20.5 -15h-141q14 5 21 15.5t10 20.5q4 11 4 25v450h278l1 -450v0z" />
    <glyph glyph-name="summation" unicode="&#x2211;" horiz-adv-x="532" 
d="M524 31q4 -11 -3 -21.5t-21 -10.5h-90h-301h-103l213 380l-212 382h76h307h91q12 0 19.5 -10.5t3.5 -21.5l-92 -240q-7 -16 -6.5 -27t17.5 -19q2 0 2 3q-14 14 -8 24.5t18 10.5q15 0 22.5 -8.5t8 -19.5t-6.5 -21.5t-20 -15.5q-18 -7 -35 -3t-30 15.5t-19.5 28t-2.5 34.5
l35 170h-219l156 -282l-157 -279h240l-35 167q-5 19 2 36t20 28.5t30.5 15.5t34.5 -2q13 -5 19.5 -16.5t6.5 -22.5t-7.5 -19.5t-22.5 -8.5q-12 0 -18 11.5t8 25.5l-1 1h-1q-17 -6 -17.5 -18t5.5 -28l93 -239v0z" />
    <glyph glyph-name="minus" unicode="&#x2212;" horiz-adv-x="509" 
d="M455 355q1 0 8 1.5t15 5.5t15 10.5t10 16.5v-134q-3 10 -10.5 16.5t-15.5 10t-14.5 4.5t-7.5 1h-404q-1 0 -7 -1t-13.5 -4t-14.5 -9.5t-10 -17.5v132q3 -11 10.5 -17t15.5 -9q9 -4 19 -5l404 -1v0z" />
    <glyph glyph-name="A.alt1" horiz-adv-x="1364" 
d="M1146 -302q11 2 27.5 8.5t28.5 29.5q11 19 11 45v298l-293 218q-8 -29 -15.5 -59.5t-15.5 -64.5l-3 -14q-17 -71 -41 -139.5t-61.5 -126t-91.5 -101t-132 -64.5q-65 -17 -131.5 -13t-128.5 26.5t-115.5 62.5t-90.5 96q-35 51 -83 86l168 83q-1 -49 19.5 -89.5t54.5 -71
t77.5 -49t88.5 -22.5q56 -5 100 6.5t79 35.5t61.5 58.5t46 75t33.5 85.5t25 90l4 14q11 48 22.5 91.5t22.5 83.5l-51 37q-8 7 -18.5 16t-22.5 15t-25.5 6.5t-29.5 -10.5q-3 -3 1 -5q19 4 32.5 -0.5t20 -14t6.5 -21.5t-7 -23q-17 -26 -40 -30t-43 8t-31.5 36t-5.5 53
q8 38 35 64.5t62 37t72 3.5t65 -36l17 -13q35 106 72.5 180t81 120t95 67.5t114.5 24.5v1h125v-1120q0 -26 16 -48q12 -16 26 -21t23 -6h-257zM1213 232v535q-34 -2 -65.5 -14t-62.5 -48.5t-63 -103.5t-66 -179z" />
    <glyph glyph-name="B.alt1" horiz-adv-x="994" 
d="M909 341q28 -38 46 -80.5t26 -87.5t5.5 -90t-15.5 -87q-22 -68 -71 -124t-123 -97q-60 -33 -131.5 -52t-141.5 -21q-4 -1 -8 -1h-9q-52 0 -111 10.5t-117 34t-110.5 62t-90.5 94.5q-8 11 -19 21.5t-29 14.5l163 83q-8 -17 -8 -31.5t6 -27.5t16 -24.5t22 -21.5
q26 -21 58 -39t70 -31v808q1 19 -7.5 32.5t-19.5 21.5q-13 10 -30 16h235q-17 -5 -29 -15q-11 -8 -19.5 -21.5t-8.5 -33.5v-296q37 9 69.5 28t55.5 46t36.5 60.5t13.5 70.5q0 63 -39 116q-33 45 -86 70.5t-109 23.5q-26 -2 -52.5 -6.5t-51 -13.5t-47 -24t-38.5 -36
q-27 -35 -31.5 -80.5t11.5 -86.5q2 -5 7 -5.5t8 3.5q12 14 30 9t21 -28q2 -12 -4 -22t-15.5 -15t-21 -5t-20.5 8q-4 2 -16 18t-29 39.5t-37.5 52t-40.5 57t-37.5 53.5t-28.5 42q2 -3 10 -3.5t17.5 0t18.5 2t12 2.5q25 3 46 15q19 9 34.5 21.5t31.5 26.5q45 40 105 64.5
t120 29.5q23 2 45 0t45 -8q55 -14 103 -44t83.5 -72t56 -94t20.5 -110q0 -26 -4 -50t-12 -47q50 -15 93.5 -46.5t77.5 -78.5zM856 32q18 57 6 121.5t-50 116.5q-8 11 -20.5 24.5t-29.5 26t-38.5 22t-47.5 13.5q-40 -48 -96 -79t-122 -42v-412q21 -1 43 0q53 1 109 16
t105.5 41.5t87 64.5t53.5 87z" />
    <glyph glyph-name="C.alt1" horiz-adv-x="827" 
d="M1024 -163q-12 3 -25.5 0.5t-25.5 -7t-21.5 -10t-14.5 -9.5q-73 -52 -159.5 -80.5t-182.5 -28.5q-84 0 -161 22.5t-144 63t-121 97t-91.5 125.5t-56 148t-14.5 164q5 111 50 209t119.5 173t172.5 121.5t209 53.5q63 5 128 -6q51 -8 101 -24.5t95 -42.5q17 -9 32 -10.5
t29 2t28 10.5t29 15q-15 -24 -39.5 -57.5t-52.5 -71.5t-58 -77.5t-55.5 -75t-45.5 -63.5t-28 -43q-12 -23 -23 -51t-17 -57t-5.5 -58.5t9.5 -55.5q2 -8 4.5 -6.5t6 6.5t9 10.5t13.5 5.5q14 1 23 -8.5t11 -22.5t-3 -25t-18 -16t-25.5 2.5t-20.5 17.5q-15 20 -20.5 44t-7.5 47
q-2 49 10.5 99t35.5 92q17 32 36.5 61t36.5 61v1q14 27 13.5 55.5t-12 53t-33.5 42.5t-51 24q-48 9 -98 9q-102 0 -190.5 -39.5t-153.5 -107.5t-100.5 -159t-30.5 -194q5 -92 42 -172t97.5 -140.5t141 -97t172.5 -40.5q20 -2 39.5 -1.5t39.5 2.5q29 3 57.5 9.5t55.5 17.5
q26 11 50 25.5t44 36.5q7 7 11.5 15.5t9.5 16.5q2 5 4 9.5t4 9.5q1 1 3.5 8.5t1.5 8.5z" />
    <glyph glyph-name="D.alt1" horiz-adv-x="1126" 
d="M1119 319q4 -85 -14.5 -164t-56 -148t-92 -126t-121.5 -98t-145 -63.5t-162 -22.5q-111 0 -208.5 38t-176.5 104q-29 26 -60.5 45.5t-66.5 33.5l-10 4l218 102q-8 -46 11.5 -87.5t59.5 -64.5q47 -27 100 -42.5t111 -17.5v16v777q0 11 -9 26.5t-32 21.5h197
q-26 -7 -34 -23.5t-8 -27.5v-782q79 16 148 56.5t120.5 99.5t82 132.5t34.5 156.5q5 103 -30.5 194.5t-101 159.5t-154.5 108t-191 40q-52 0 -98 -10q-29 -6 -51 -24t-34 -42.5t-12.5 -52.5t13.5 -55q0 -1 1 -2q16 -32 36 -61.5t36 -60.5q24 -43 36 -93t10 -99
q0 -24 -6 -48.5t-21 -44.5q-8 -11 -20.5 -17t-26.5 -2q-13 4 -18 16t-3 25t11 22.5t24 8.5q8 0 13.5 -5.5t9 -10.5t6.5 -6.5t5 6.5q9 26 9 55.5t-6 59t-17 57.5t-23 51q-9 15 -28.5 43.5t-45.5 64t-55.5 75.5t-58 78t-53 72t-40.5 58q15 -9 29 -16.5t28.5 -11t29 -2
t31.5 11.5q93 52 199 67q63 11 128 6q112 -7 210.5 -53.5t172.5 -121.5t119.5 -174.5t50.5 -211.5z" />
    <glyph glyph-name="E.alt1" horiz-adv-x="473" 
d="M774 -129q-72 -8 -130 -52l-59 -47q-49 -40 -106.5 -60t-117.5 -20q-77 0 -149 33q-50 23 -89 58.5t-65 79.5t-39.5 95.5t-11.5 105.5q1 54 15 104t39.5 93.5t63 79.5t85.5 62q5 2 9.5 4.5t9.5 4.5q-26 23 -47 51t-35 61q-33 77 -22 152t65 132q29 31 65 51t77 28
q42 9 87 1q26 -5 50 -14.5t48 -19.5q14 -6 29.5 -12t29.5 -14q12 -7 23.5 -7.5t23 2.5t22.5 9l22 12q-7 -10 -26.5 -39.5t-45 -67.5t-54 -80t-53 -78t-42 -61t-21.5 -28q-11 -8 -23.5 -8.5t-23 5.5t-17 16.5t-4.5 24.5q2 15 11 23.5t19.5 9t20.5 -6.5t14 -22q13 28 26 49.5
t25 44.5q8 17 12 34q7 29 -2 53.5t-33 41.5q-20 14 -45.5 20.5t-50.5 1.5q-36 -7 -62 -28t-40 -50t-15 -63t13 -67q9 -21 24 -40.5t35 -35.5t44.5 -25.5t52.5 -9.5l5 -113l-13.5 -1.5t-35 -6t-48.5 -13t-55 -23.5q-32 -17 -58 -41.5t-44 -56.5q-28 -48 -35 -103.5t5.5 -108
t45.5 -96.5t86 -68q64 -29 132.5 -20.5t122.5 53.5h1l72 57q24 20 43 44.5t30 53.5z" />
    <glyph glyph-name="F.alt1" horiz-adv-x="612" 
d="M794 839q25 -14 47 -5t45 21q-7 -10 -26.5 -39.5t-45 -67.5t-54 -80t-53.5 -78t-42.5 -60.5t-21.5 -27.5q-10 -8 -22.5 -8.5t-23 5.5t-17 16.5t-4.5 24.5q2 15 11 23.5t19.5 9t20 -6.5t13.5 -22q14 28 26.5 49.5t24.5 44.5q4 8 7.5 16.5t5.5 17.5q6 24 -0.5 44.5t-21 36
t-35 25t-42.5 11.5q-29 2 -51.5 -8.5t-47.5 -23.5q-17 -8 -35 -16t-36 -15q-4 -2 -8 -3t-9 -3v-283h64q2 0 4.5 0.5t4.5 0.5h9t9 -1h9t9 1q8 2 15.5 5t14.5 8q17 12 21 29v-42v-110v-3v-38q-5 18 -20 28t-26 9l-52 1h-62v-239q0 -52 -17 -107t-49 -103.5t-77 -85t-102 -50.5
l-14 -4q-29 -8 -55 -22t-48 -34l-44 164q31 -9 63.5 -8t63.5 10.5t58 27.5t47 43q28 35 45 79.5t17 89.5v611h-20q-59 0 -101 21t-67 45q-7 7 -13.5 10.5t-23.5 3.5l108 75l20 14q0 -2 -1 -4t-1 -4q-1 -3 -1 -10q-2 -12 8 -20q5 -5 11.5 -7.5t13.5 -4.5q29 -10 60.5 -9
t60.5 9t55 21.5t53 28.5q36 20 76 29.5t82 4.5q29 -4 55.5 -14t53.5 -21l30 -12t29 -14z" />
    <glyph glyph-name="G.alt1" horiz-adv-x="843" 
d="M829 450q-30 -44 -30 -97v-121h1v-102q0 -33 -1 -69.5t-7 -73.5t-19.5 -73.5t-37.5 -69.5q-18 -26 -41 -49t-49 -43q-43 -30 -92 -47.5t-101 -22t-103.5 4.5t-98.5 31q-36 17 -67.5 40t-63.5 45q-28 20 -59.5 30.5t-65.5 10.5l112 162q27 -64 83 -103q23 -16 46 -33
t46 -31q44 -26 94 -33t98 2.5t91 36.5t73 69q10 14 17 33.5t11.5 41t7 43.5t3.5 40q-32 -32 -86.5 -53.5t-123.5 -21.5q-96 0 -179.5 36.5t-146 99t-98.5 146.5t-36 180q0 95 36 179t98.5 146.5t146 99t179.5 36.5q64 0 114 -7t87 -17.5t62.5 -22.5t41.5 -23q17 -11 36 -10
t35 12l28 19q-65 -94 -118 -169q-23 -32 -44.5 -63t-39.5 -55.5t-30 -41t-15 -18.5q-11 -9 -25 -9t-25 6.5t-18 18t-5 25.5q2 13 9 22t16 12t19 0.5t17 -11.5q5 -5 10 -4t7 6q7 19 14.5 45.5t4 54t-23.5 53t-68 44.5q-25 10 -55 12t-60 -2t-58 -12t-49 -18q-44 -20 -81 -51
t-64 -71t-42 -87t-15 -99q0 -87 40 -159q15 -29 35 -53.5t45 -45.5q26 -23 57.5 -42t64.5 -31q46 -19 97.5 -14.5t96.5 21.5q48 19 76.5 57.5t28.5 91.5v80q0 45 -22 84l-1 2h180v0z" />
    <glyph glyph-name="H.alt1" horiz-adv-x="643" 
d="M638 890q30 -4 49 -23t24 -42t-6 -44t-42 -28q-12 -3 -24 1t-18.5 13.5t-7 23.5t10.5 31q-2 4 -4 3q-8 -8 -12.5 -15t-7 -17t-3 -26t-0.5 -42v-41v-582v-320q0 -12 10 -29t37 -24h-220q15 4 24 11t14 15t7 16t2 14v403h-276q-1 -22 -1 -40v-31v-28v-179q0 -46 -1.5 -91.5
t-11.5 -90.5q-11 -44 -27 -85.5t-41 -79.5q-30 -45 -66.5 -78.5t-75.5 -62.5q-26 -20 -43 -51l-107 117l8 2q40 13 75 39q31 24 57.5 48.5t46.5 55.5q29 44 44.5 95t15.5 103v711v11v89q0 4 -2 12t-7 16.5t-14 16t-24 11.5h47h123h3h44q-21 -5 -32.5 -21.5t-11.5 -28.5v-100
q0 -18 0.5 -44.5t0.5 -58v-66.5v-69h276v368v47q0 42 15 74.5t38.5 54t53.5 31t60 5.5z" />
    <glyph glyph-name="I.alt1" horiz-adv-x="275" 
d="M269 -277q0 -8 -3.5 -13.5t-7.5 -8.5q-4 -4 -10 -5h-220l-3 0.5t-7.5 3.5t-8 8.5t-3.5 14.5q0 12 9 20.5t21 6.5q10 -1 16.5 -7.5t7.5 -15.5q1 -7 -2 -15q11 10 14 21.5t3 19.5v1086q0 4 -2 12t-7 17t-14 16.5t-24 11.5h218q-21 -5 -33 -21.5t-11 -29.5v-774v-321
q0 -8 3.5 -18t12.5 -19q-2 4 -2 13q1 9 7.5 16t16.5 8q12 2 20.5 -6.5t8.5 -20.5z" />
    <glyph glyph-name="J.alt1" horiz-adv-x="727" 
d="M721 898q-20 -5 -30 -20t-10 -27l-1 -719q0 -33 -3 -64q-8 -73 -36 -140.5t-75 -119t-110.5 -82.5t-141.5 -31q-62 0 -122.5 23t-103.5 68q-35 36 -56 83t-25 98q-2 21 0 42q5 62 32 120.5t75 99.5q26 21 57.5 34t65.5 16.5t67.5 -4t62.5 -26.5t50 -46.5t31 -60.5
q7 -21 5 -41.5t-11.5 -38t-25.5 -31.5t-37 -21q-13 -5 -30 -6.5t-32.5 2t-26.5 13.5t-11 29q0 11 6 21t17 14q10 3 20 -0.5t15 -12.5q4 -7 4 -18q0 -2 -0.5 -10.5t-1.5 -8.5q5 -1 8 3.5t5 10.5t2.5 12.5t0.5 9.5q0 13 -6 25t-13 23q-15 23 -35.5 33.5t-42.5 10.5t-44 -10
t-40 -28q-35 -35 -46 -83t0.5 -93.5t43 -81.5t82.5 -47q44 -10 86 -4t78.5 25t66 50.5t47.5 72.5q17 40 25 83t8 87l-1 719q-1 13 -10 27t-32 20h199v0z" />
    <glyph glyph-name="K.alt1" horiz-adv-x="1121" 
d="M1948 -385q11 -11 18.5 -19.5t10.5 -11.5q-23 14 -41 8t-25 -11l-3 -3q-2 -1 -3 -2l-3 -3l-81 -72q-76 -66 -168 -100t-189 -34q-51 0 -100.5 9t-97.5 29q-5 2 -9 4t-9 4q-85 38 -143 108t-80 161l-97 393q-20 78 -70 139.5t-122 95.5q-5 -5 -17 -16.5t-24 -23.5
q-14 -14 -31 -30q0 -27 0.5 -46.5t0.5 -32.5v-25q0 -115 -39 -207t-112 -151q-57 -46 -128.5 -63t-141 -5t-128.5 52.5t-92 109.5q-29 61 -29 127t29 124q21 49 61 88t89 58t101.5 13.5t99.5 -45.5q7 -5 18 -16.5t30 -13.5l-124 -93q2 4 2 6.5t1 4.5q2 8 1 15t-6 13
q-8 10 -20.5 13t-24.5 4q-21 1 -40 -6.5t-34.5 -21t-28 -30.5t-20.5 -35l-2 -4q-16 -36 -15.5 -76t16.5 -75.5t45 -61.5t70 -35q73 -16 130 6t96.5 68.5t60 109t20.5 127.5v712q0 12 -10.5 26.5t-29.5 19.5h42h155q-14 -3 -22 -10t-12.5 -15t-6.5 -15t-2 -11v-11v-432
q6 5 22 21.5t37.5 39.5t46.5 51t51 57q60 67 131 149q33 41 41 93t-12 101l-2 3q-2 5 -7 5.5t-8 -3.5l3 -13q2 -12 -3.5 -22.5t-16.5 -15.5q-1 -1 -2 -1q-6 -2 -10 -2q-18 0 -31 13t-13 31q0 12 6 22t15 17t19.5 11t19.5 4q51 0 80 -26.5t43 -61.5q20 -54 12.5 -110
t-42.5 -101q-22 -29 -50.5 -66t-58 -74.5t-57.5 -72t-50 -58.5q78 -48 133 -122.5t78 -166.5l97 -392q8 -32 36 -72t71.5 -75t101 -58.5t125.5 -23.5q75 0 146 27.5t129 78.5l86 76q1 1 2 1.5t2 1.5l1 1q8 8 12 26t-6 35q3 -3 10 -10.5t17 -18.5l2 -2l77 -82v0z" />
    <glyph glyph-name="L.alt1" horiz-adv-x="463" 
d="M1408 -208q-8 -47 -23.5 -86t-39.5 -74q-50 -71 -124 -114t-157 -51q-4 0 -7.5 -0.5t-7.5 -0.5h-20q-59 0 -108 16t-91.5 42t-80.5 59t-75 67l-10 9q-97 90 -172.5 149t-133.5 93t-99.5 46t-70.5 8.5t-47.5 -19.5t-29.5 -39l-83 140q37 25 74 38.5t76 15.5v755q0 4 -2 11
t-6.5 15t-12.5 15.5t-21 10.5h42h114h3h40q-20 -5 -30.5 -20t-9.5 -27v-513v-267q85 -31 193 -111t255 -216l10 -9q36 -33 69 -62t67 -50t71.5 -32t82.5 -9q3 0 5.5 0.5t5.5 0.5q57 5 109 35.5t87 80.5q17 23 23.5 53.5t-7.5 66.5z" />
    <glyph glyph-name="M.alt1" horiz-adv-x="1040" 
d="M2066 -481q-40 9 -77 -13l-143 -90q-72 -47 -152 -69t-161 -22q-91 0 -178 27t-164 82t-138 125.5t-103 152.5t-64.5 172.5t-22.5 185.5v589l-279 -495q-8 -15 -14.5 -31t-8 -32t4 -31t21.5 -28q0 20 12.5 33.5t29.5 18.5t34.5 0.5t28.5 -20.5q8 -13 10.5 -28t-1.5 -29
q-5 -17 -17 -27.5t-27.5 -15t-32.5 -4.5t-32 3q-27 7 -52.5 23t-47 37.5t-39.5 46t-30 49.5l-255 509v-896q0 -11 10.5 -26t29.5 -20h-16h-37t-47.5 -0.5t-47.5 -0.5h-37.5h-16.5q19 5 27 16t12 21q4 11 4 24v1062q0 14 -4 27t-11 23l-16 25h198l-4 -7q-19 -40 1 -78
l283 -562l315 563q11 20 11.5 42t-10.5 42h195l-13 -24q-13 -17 -13 -45v-754q0 -81 19 -158t55 -146.5t87.5 -129.5t117.5 -106q58 -42 124.5 -64t134.5 -23.5t135.5 16.5t128.5 56l154 98q23 15 34 34l12 22z" />
    <glyph glyph-name="N.alt1" horiz-adv-x="916" 
d="M920 893q30 -4 49.5 -23.5t25 -42.5t-6 -44.5t-42.5 -28.5q-13 -3 -25 1t-19 13.5t-7 23.5t11 32q-2 4 -5 2q-8 -8 -12.5 -14.5t-7 -17t-3 -26.5t-0.5 -42v-634v-326q0 -13 10 -30t37 -25h-223q15 4 24.5 11t14.5 15.5t7 17t2 14.5v68t-11 67q-11 29 -23.5 56.5
t-30.5 52.5q-36 51 -81.5 92.5t-92.5 81.5l-52 46t-51 49v-190v-182q0 -48 -1 -93.5t-12 -92.5q-11 -45 -27.5 -87t-41.5 -80q-30 -46 -67.5 -80.5t-76.5 -63.5q-29 -21 -44 -52l-109 119l7 3q43 12 77 39q32 24 58.5 49t47.5 56q29 45 45 97t16 105v825q0 4 -2 12t-7.5 17
t-14.5 17t-24 12h48h126h2h45q-21 -6 -33 -22.5t-12 -29.5v-102q1 -43 16 -78.5t40 -67.5t58.5 -63t72.5 -64q39 -34 78.5 -70t76.5 -79v590q0 42 15 75t39.5 54.5t55 31.5t60.5 6z" />
    <glyph glyph-name="O.alt1" horiz-adv-x="836" 
d="M418 -310q-85 0 -160 32.5t-131 88.5t-88.5 131t-32.5 160v369q0 85 32.5 160t88.5 131t131 88.5t160 32.5t160 -32.5t131 -88.5t88.5 -131t32.5 -160v-369q0 -85 -32.5 -160t-88.5 -131t-131 -88.5t-160 -32.5zM418 768q-62 0 -116 -23.5t-94 -63.5t-63.5 -94.5
t-23.5 -115.5v-369q0 -62 23.5 -116t63.5 -94t94 -63.5t116 -23.5q61 0 115.5 23.5t94.5 63.5t63.5 94t23.5 116v369q0 61 -23.5 115.5t-63.5 94.5t-94.5 63.5t-115.5 23.5zM398 268q-5 -27 -4.5 -61t10 -67t31 -62t57.5 -48q-17 23 -26 56q-8 28 -9 69.5t15 98.5l1 7
q7 34 5.5 72t-13.5 76t-36 75t-61 69q20 -42 31 -88q10 -39 13 -89t-13 -101z" />
    <glyph glyph-name="P.alt1" horiz-adv-x="885" 
d="M410 881q97 0 182 -37t149 -101t101 -149t37 -182q0 -90 -34 -174t-95 -149q-37 -39 -82 -67t-94.5 -45.5t-101.5 -24t-104 -1.5v-203q0 -11 8.5 -26.5t33.5 -22.5h-199q26 7 34 24t8 28v228q-35 14 -66.5 34.5t-59.5 46.5q-23 22 -43.5 46.5t-36 51.5t-24 57t-8.5 63
q0 50 18.5 98.5t50.5 87.5t75.5 66t93.5 34v52q0 11 -10 26t-30 20h197q-13 -3 -21 -10t-12.5 -15t-6.5 -15t-2 -11v-58q70 -21 124 -72q14 -14 27 -32l-108 -94l-1 1q2 24 -5 38.5t-28 28.5q-2 2 -4.5 2.5t-4.5 2.5v-366q69 -11 137.5 8t124.5 64q63 51 98.5 124t35.5 154
q0 73 -28 137.5t-76 112.5t-112.5 76t-137.5 28q-39 0 -83 -9.5t-83 -29.5t-67 -51.5t-33 -75.5q-3 1 -23.5 13t-45 26l-45.5 26t-24 14q27 11 45.5 33t38.5 41q22 20 45.5 37.5t49.5 31.5q52 29 108.5 44t116.5 15zM245 109l4 -2t4 -3v341q-11 -2 -21.5 -7t-20.5 -11
q-21 -14 -37.5 -33.5t-27.5 -42.5t-15 -48t0 -50q8 -48 42 -83t72 -61z" />
    <glyph glyph-name="Q.alt1" horiz-adv-x="882" 
d="M1529 -332l-5 -8q-13 -23 -23 -46t-17 -48q-19 -69 -60.5 -127.5t-99.5 -98.5q-49 -34 -104 -51t-113 -17q-19 0 -38 1.5t-38 5.5q-10 2 -15 4q-61 15 -106.5 43.5t-81 66t-63.5 81.5t-55 88l-6 12q-29 48 -55.5 90t-49.5 77q-42 -20 -87 -30.5t-93 -10.5
q-86 0 -161 32.5t-131 88.5t-88.5 131t-32.5 161v371q0 85 32.5 160t88.5 131.5t131 89t161 32.5q85 0 160.5 -32.5t131.5 -89t88.5 -131.5t32.5 -160v-371q0 -92 -37 -171.5t-101 -136.5q26 -38 53 -81t56 -91l6 -12q25 -42 48.5 -78.5t50.5 -66t59.5 -50.5t75.5 -31
q3 -1 11 -3q54 -11 106.5 0t98.5 43q62 43 95 111q14 29 15.5 61t-9.5 62zM121 113q0 -9 0.5 -18t1.5 -18l81 35q57 18 108 16t101.5 -26.5t102.5 -74t111 -127.5q42 41 66 95.5t24 117.5v371q0 61 -23.5 115.5t-64 95t-95 64t-115.5 23.5q-62 0 -116 -23.5t-94.5 -64
t-64 -95t-23.5 -115.5v-371zM419 -185q59 0 112 22q-53 70 -94 108.5t-74.5 54t-62.5 14t-59 -10.5l-82 -35q19 -34 46.5 -62t61 -48.5t72 -31.5t80.5 -11z" />
    <glyph glyph-name="R.alt1" horiz-adv-x="864" 
d="M448 669q-23 -6 -30 -22.5t-8 -23.5v-884q0 -10 8 -24t30 -19h-178q24 6 31 20.5t7 25.5v885q0 11 -9 24t-26 17h14h32t41 0.5t41 0.5h32.5h14.5zM2209 -78q-9 -5 -18 -13q-8 -7 -17.5 -18t-18.5 -28l-140 -215q-63 -97 -151.5 -167t-197.5 -110q-59 -21 -119 -32
t-121 -11q-105 0 -204 31l-18 6q-89 30 -168 79.5t-144.5 115t-114.5 145t-78 169.5l-86 261q-8 -8 -16 -17t-16 -19q-9 -11 -24 -27t-27.5 -34t-20 -37t-2.5 -35q2 -7 4 -5.5t5.5 5.5t8.5 9t12 5q13 1 21 -7.5t10 -20t-2.5 -22.5t-16.5 -15q-11 -3 -23 2.5t-19 15.5
q-14 17 -19.5 39t-5.5 44q0 21 11.5 48.5t29 57.5t38 60.5t40 57t35 47.5t22.5 32q18 30 24.5 65.5t6.5 71.5q0 65 -25 122.5t-67.5 100.5t-100 68t-122.5 25q-34 0 -73.5 -8.5t-74 -26.5t-59.5 -46t-30 -67v-1q-3 2 -22 13t-42 24q-26 15 -59 34q24 10 40.5 29.5t34.5 36.5
q20 17 41 32.5t44 28.5q46 26 96.5 39.5t103.5 13.5q86 0 162 -33t133 -90t90 -133t33 -162q0 -69 -23.5 -119.5t-58.5 -94.5q-5 -5 -8.5 -10.5t-8.5 -10.5l103 -316q25 -78 68 -147.5t100 -126.5t125.5 -100t146.5 -69q5 -2 8.5 -3t7.5 -2q94 -29 191.5 -25.5t187 36
t167 92.5t132.5 144l88 136q25 39 9 82h182z" />
    <glyph glyph-name="S.alt1" horiz-adv-x="723" 
d="M722 771q14 6 30.5 15t35.5 23q-1 -1 -17 -23.5t-42 -59t-59 -83.5t-67.5 -97.5t-69 -101.5t-62.5 -94l-3 -5q11 -6 21.5 -12t21.5 -13q43 -26 82 -64.5t66.5 -87t40 -104.5t2.5 -116q-14 -85 -70 -146.5t-145 -88.5q-62 -20 -124 -20q-40 0 -79 7t-75.5 21t-69 34.5
t-57.5 47.5q-35 36 -54 80t-21 91t11.5 94t43.5 91q9 13 14.5 31t8.5 38l128 -118q-13 3 -29 -2.5t-21 -13.5q-22 -30 -30.5 -59.5t-6.5 -56.5t13 -50t28 -41q24 -25 57.5 -42t71.5 -25t78 -6.5t78 13.5q16 5 36 14.5t39.5 26t35.5 41t22 59.5q6 39 -3 76.5t-28.5 69.5
t-47 58.5t-57.5 44.5q-12 8 -23.5 14.5t-22.5 12.5q-17 -26 -39 -62t-40.5 -70t-29.5 -60t-5 -31v1q0 14 8.5 23t21.5 9q15 0 22 -9.5t7 -20.5t-7 -20.5t-21 -10.5q-18 -2 -36 7t-22 27q-4 21 2 43t15 41q1 3 9.5 18t20.5 37t26.5 48t28.5 52q-36 21 -71 43t-67.5 49.5
t-61.5 61.5t-53 78q-26 49 -33.5 99t1.5 95.5t34.5 85t66.5 67.5q39 27 79.5 38t80.5 11t79 -9t76 -24q32 -12 59.5 -31.5t54.5 -40.5q23 -18 53.5 -23.5t59.5 5.5zM558 619q13 32 -2.5 58t-41.5 42q-30 20 -66.5 33.5t-72.5 19.5q-34 5 -66.5 -0.5t-61.5 -25.5
q-27 -18 -39 -42.5t-14 -50t5 -51.5t19 -47q17 -33 39 -59t47.5 -47.5t54.5 -39.5t61 -36l2 4q29 54 59.5 107.5t62.5 107.5q4 7 7.5 13t6.5 14z" />
    <glyph glyph-name="T.alt1" horiz-adv-x="1039" 
d="M1826 1259q36 -120 15 -243q-12 -66 -41 -125t-71 -107.5t-95 -85.5t-113.5 -59t-125.5 -28t-132 7q-72 14 -139.5 43.5t-133.5 61.5l-15 8q-2 0 -2.5 0.5t-1.5 0.5v-595q0 -42 -1.5 -81.5t-10.5 -80.5q-8 -38 -23 -75t-37 -70q-26 -40 -58 -69.5t-67 -55.5
q-24 -18 -38 -45l-95 103l7 2q18 6 35 14.5t31 19.5q28 22 51 43.5t41 48.5q26 39 39.5 84t13.5 92v112q0 51 0.5 114.5t0.5 131.5v358q0 1 -0.5 1t-0.5 1q-166 76 -281 116t-194 53q-54 8 -104 -11.5t-81 -63.5q-13 -18 -19.5 -37.5t-1.5 -38.5v-2q10 -34 23.5 -66
t24.5 -65q14 -46 16 -96t-9 -97q-6 -23 -16.5 -45t-27.5 -39q-10 -8 -24 -11.5t-26 2.5t-14.5 19t2.5 25t15 19.5t24 3.5q8 -2 12.5 -8.5t7 -11.5t5 -7t5.5 5q14 23 19.5 51t5.5 57.5t-5 58.5t-13 54q-5 16 -18.5 47t-31.5 70t-39 83t-40.5 86.5t-37 79.5t-27.5 63
q13 -11 25 -21t25 -16t27.5 -7.5t32.5 4.5q32 11 64 16.5t64 9.5q26 3 53.5 5t53.5 0q55 -5 122 -21.5t149.5 -45.5t181 -72t216.5 -100l16 -7q51 -25 105.5 -49.5t111.5 -39.5t114.5 -16t114.5 23q46 19 87 49t73.5 68t54.5 82.5t31 94.5q7 40 6 81q-1 31 -12.5 59.5
t-31.5 51t-47 37t-58 18.5l260 135l-18 -44q-23 -56 -4 -115z" />
    <glyph glyph-name="U.alt1" horiz-adv-x="1311" 
d="M1305 887q-27 -26 -41 -60.5t-14 -71.5v-633q0 -64 -19.5 -127t-55.5 -117q-30 -45 -69 -79.5t-83.5 -58.5t-93 -36.5t-98.5 -12.5q-64 0 -127 21q-61 21 -114 59.5t-92 90.5q-43 57 -65.5 125t-22.5 139v763q0 36 -12 69.5t-35 61.5q-21 26 -51 39.5t-62 12.5
q-30 -2 -55 -15.5t-42 -37.5t-22 -56q-2 -14 0.5 -25.5t8 -19.5t11.5 -13.5t10 -8.5q18 -12 38.5 -13.5t39.5 9.5l77 44l55 -98l-77 -43q-47 -26 -99 -24t-97 32q-44 30 -65 77t-13 98q7 57 41 104q32 47 80 73.5t105 28.5q59 2 112.5 -22.5t91.5 -70.5q35 -43 53.5 -95
t18.5 -107v-763q0 -53 16.5 -103.5t48.5 -92.5q29 -39 69 -67.5t85 -44.5q46 -16 94.5 -15t93.5 17.5t84.5 46.5t68.5 73q27 41 41.5 87.5t14.5 94.5v630q0 38 -14.5 72.5t-40.5 60.5l-2 2h224v0z" />
    <glyph glyph-name="V.alt1" horiz-adv-x="829" 
d="M2031 1067q12 -6 23 -5.5t22.5 4t22.5 9t22 11.5q-7 -10 -26.5 -40t-45.5 -69t-55 -81.5t-54.5 -79.5t-43.5 -62t-22 -28q-11 -8 -23.5 -8.5t-23.5 5.5t-17.5 17t-4.5 25q2 15 11 23.5t20 9t21 -6.5t14 -22q14 28 26.5 50t25.5 46q5 8 8 16.5t4 16.5q4 29 -4.5 51.5
t-19.5 37.5q-13 18 -32 30q-44 28 -101 61t-120 60.5t-127 44t-122 11.5q-89 -8 -169 -37.5t-145 -76t-113 -108t-73 -134.5l-14 -40t-38 -107.5t-55 -155.5t-65 -184.5t-69 -195t-66 -186.5t-56 -159.5t-39 -113.5h-133l-374 1133q-8 25 -30 42l-31 24h202
q-13 -18 -17 -39.5t3 -41.5l315 -956q23 69 51 150t57.5 165.5t59.5 169.5t58 163q65 183 132 369q30 89 88 164.5t136 132t173.5 92t201.5 45.5q46 4 109 -11.5t131.5 -41.5t136 -58t122.5 -60t91 -48.5t42 -22.5z" />
    <glyph glyph-name="W.alt1" horiz-adv-x="1045" 
d="M1763 749q16 -2 18 -18q2 -8 -2 -15t-12 -10q-9 -3 -16.5 0.5t-12.5 10.5q-13 20 -11.5 44t17.5 41q20 25 44 52q20 23 45 52t51 59q15 17 12 39.5t-23 34.5l-78 49q-62 39 -130.5 57.5t-138 16.5t-136.5 -24t-127 -64q-66 -47 -118.5 -108t-89 -131.5t-55.5 -148.5
t-19 -159v-765q0 -26 13 -46l14 -23h-197q13 13 15.5 31.5t-6.5 34.5l-330 588l-287 -569q-19 -38 0 -78l3 -7h-201l17 24q16 24 16 51l-1 1077q0 12 -3 23q-4 11 -13 22t-28 16h16.5h38t48.5 -0.5t48 -0.5h37.5h16.5q-20 -5 -30 -19.5t-11 -26.5v-907q72 143 129 257
q24 48 47.5 94.5t42 82.5t29.5 58.5l11 22.5q28 44 56.5 87.5t67.5 78.5q15 14 36 27t43.5 20.5t45.5 7.5t43 -12q24 -16 31 -44t-10 -52q-11 -16 -29 -20.5t-35.5 0.5t-29.5 18.5t-12 33.5q-16 -13 -30.5 -32t-22.5 -42.5t-7 -50.5t16 -54l283 -504v598q0 96 22.5 187.5
t65.5 174.5t104.5 154.5t139.5 127.5q78 55 166.5 82.5t179.5 27.5q83 0 163.5 -22.5t154.5 -69.5l83 -52q59 -38 130 -38l-316 -336q-10 -10 -13 -21q4 4 9 6.5t12 0.5z" />
    <glyph glyph-name="X.alt1" horiz-adv-x="962" 
d="M1483 -52l-25 -29q-16 -21 -29 -44q-43 -75 -110 -131t-151 -83q-67 -22 -140 -22q-79 0 -141.5 23.5t-111.5 63.5t-86 94.5t-65 116t-48.5 127.5t-36.5 130l-336 -600q-27 -47 -13 -98h-177l35 63l448 796q-27 96 -53.5 178.5t-46.5 130.5q-11 25 -32.5 51.5t-48.5 44
t-57.5 21.5t-59.5 -14q-19 -12 -31 -31t-17 -40.5t-2.5 -44.5t11.5 -42q1 -1 1 -2q17 -32 38 -62t38 -63q23 -44 36 -95t11 -101q-1 -25 -7 -50t-21 -45q-8 -11 -21.5 -17.5t-27.5 -2.5t-18.5 16.5t-2.5 26t11 23.5t24 9q8 -1 14 -6.5t9.5 -10.5t6.5 -6.5t5 6.5q9 27 9.5 57
t-6 60t-17.5 58.5t-24 52.5q-9 16 -31 47.5t-51.5 71t-62 83t-62.5 84.5q-24 34 -45.5 63.5t-35.5 50.5q16 -8 30.5 -15.5t29 -11.5t29.5 -2.5t32 11.5q42 23 84.5 38.5t90.5 12.5q44 -3 87 -15.5t80 -35t66 -55.5t45 -75q14 -37 33.5 -92t39.5 -121l177 314
q11 20 10.5 42.5t-12.5 41.5h197l-26 -32q-16 -17 -29 -42l-272 -480q-1 -1 3 -19t10.5 -45t15 -58.5t16 -60t13.5 -50.5t8 -29q16 -61 40 -120.5t70 -105.5q31 -32 71 -53.5t84 -32t90 -9.5t88 14q56 17 101.5 52t79.5 83q7 11 5 23t-13 19h180z" />
    <glyph glyph-name="Y.alt1" horiz-adv-x="865" 
d="M1136 891q-17 -7 -27.5 -19.5t-18.5 -27.5q-22 -41 -53.5 -100t-68.5 -128t-77.5 -143.5t-79 -146.5t-73 -136.5t-61 -113.5t-42 -78l-15.5 -29q-37 -68 -81 -118t-89.5 -83.5t-90.5 -52.5t-83 -25q-23 -4 -51 -4q-82 0 -153.5 39.5t-117.5 112.5q-53 84 -51.5 177.5
t55.5 174.5l1 1l156 217q71 98 111 217l3 7l228 -391q2 -4 4 -9.5t2 -10.5q-1 -14 -8.5 -25.5t-20.5 -16.5q-6 -2 -9 -2q-14 0 -23 11t-5 25q2 8 7.5 13.5t13.5 7.5q9 2 17 -1t13 -9v2l-155 236l-16 -19l-227 -316q-21 -31 -29 -63t-6.5 -62t10.5 -57t23 -48t34.5 -41.5
t47 -34.5t59 -21t69.5 -1q27 4 60.5 19t69 42t70 67t64.5 95q34 63 33 133.5t-36 132.5l-304 535q-11 20 -26.5 37t-33.5 31h182q-7 -14 -6.5 -30.5t8.5 -31.5l317 -558q49 92 125.5 233.5t186.5 346.5q5 10 1.5 22t-18.5 18h185z" />
    <glyph glyph-name="Z.alt1" horiz-adv-x="738" 
d="M1153 -62q-29 -35 -56.5 -71.5t-59.5 -68.5q-40 -39 -88 -68t-100 -48t-107 -28.5t-110 -9.5q-72 0 -140 15.5t-130 46.5l-1 1q-4 2 -19 9t-36 17.5l-47 23.5l-52 26l-138 69l-58 29l712 918q-9 1 -49.5 1t-97.5 0.5t-124 0.5h-130.5h-116.5h-81q-2 -8 2.5 -27t10.5 -41
t12.5 -42t9.5 -28v-1q11 -35 26.5 -68.5t27.5 -68.5q16 -48 20 -100.5t-7 -102.5q-5 -24 -15.5 -48t-28.5 -42q-10 -9 -24.5 -13t-27.5 2t-16 19.5t1.5 26t15.5 21t25 4.5q8 -2 13 -8.5t8 -12t5.5 -7.5t5.5 6q14 25 19 55t4.5 61t-6.5 61t-15 56q-4 11 -19 42.5t-35 72.5
t-43 87t-43 85.5t-34 67.5t-17 35h928l-753 -975q70 -35 114.5 -57t70.5 -35t36.5 -18.5t13.5 -6.5q94 -47 203 -50.5t212 35.5q27 10 56.5 26t55.5 36q21 16 25 41.5t-10 48.5h202v0z" />
    <glyph glyph-name="zero.osf" horiz-adv-x="472" 
d="M236 0q-48 0 -89.5 20t-73 54t-49.5 80t-18 98t18 97.5t49.5 80t73 54.5t89.5 20t89.5 -20t73 -54.5t49.5 -80t18 -97.5t-18 -98t-49.5 -80t-73 -54t-89.5 -20zM236 394q-25 0 -46.5 -11t-38 -30.5t-26 -45.5t-9.5 -55q0 -30 9.5 -56t26 -45.5t38 -30.5t46.5 -11t47 11
t38.5 30.5t26 45.5t9.5 56q0 29 -9.5 55t-26 45.5t-38.5 30.5t-47 11z" />
    <glyph glyph-name="one.osf" horiz-adv-x="171" 
d="M118 55q0 -2 1 -9t5.5 -15t14 -16.5t27.5 -12.5h-193q18 4 28 12.5t15.5 17t7 15.5t1.5 9v294q0 3 -1.5 14t-7 24t-16.5 25.5t-31 18.5q2 0 16.5 10t36 25t47.5 32t52 31v-66l-3 -409v0z" />
    <glyph glyph-name="two.osf" horiz-adv-x="377" 
d="M300 95q26 0 44.5 9t26.5 24v-129h-361l192 300q10 13 19.5 33t10 39.5t-11.5 33.5t-46 14q-19 0 -31.5 -6.5t-21 -15.5t-12 -19t-4.5 -18l-23 14l-76 48q26 41 72.5 65.5t95.5 24.5q117 0 153 -68q15 -30 11.5 -62.5t-15 -61t-25.5 -50t-20 -28.5l-2 -1l-88 -146h112z
" />
    <glyph glyph-name="three.osf" horiz-adv-x="339" 
d="M314 242q17 -37 18.5 -80t-12.5 -80q-15 -41 -39 -75t-51.5 -61t-54.5 -47t-48 -33q-15 -9 -18.5 -22.5t-4.5 -27.5l-1 -6l-5 2q-1 0 -2.5 2t-9 15.5t-23.5 42t-45 81.5l-7 13l12 -7q3 -2 7 -3q10 -2 20 -2q12 0 25 5q39 17 69 39.5t49 51.5q10 14 18.5 34.5t12 42.5
t0.5 43.5t-17 39.5q-13 16 -30.5 28.5t-37.5 19.5q-18 6 -28.5 8t-30.5 2h-13l88 149h-95q-16 0 -26.5 -6.5t-18.5 -22.5l-9 -16v129h325l-4 -7q-29 -45 -48 -75t-31 -49t-18.5 -29.5t-9.5 -14.5q40 -11 61.5 -36t32.5 -48z" />
    <glyph glyph-name="four.osf" horiz-adv-x="378" 
d="M185 -196q13 4 21 13t11.5 19.5t5 21.5t3.5 19v210q-29 20 -82.5 29.5t-137.5 16.5l192 316q2 4 3 10.5t-1.5 14.5t-8.5 15.5t-18 13.5h208q-17 -5 -26.5 -14.5t-14.5 -17.5q-6 -11 -7 -21l-1 -272q13 -5 20.5 -7t12 -2.5t7.5 0t6 1.5v-149q-5 10 -18.5 22t-27.5 12
l-1 -168q0 -2 0.5 -13.5t4.5 -25.5t13.5 -27t26.5 -17h-191zM152 220q5 -2 15.5 -3t21.5 -2.5t21.5 -3t15.5 -3.5l-1 128z" />
    <glyph glyph-name="five.osf" horiz-adv-x="366" 
d="M308 324q32 -35 42 -73t10 -76q0 -61 -22 -110t-55 -89t-71 -72.5t-70 -60.5q-14 -12 -18.5 -24.5t-5.5 -27.5l-91 151l9 -3q0 -1 7.5 -4t18.5 -3q15 0 27 6q78 34 120 93q13 18 24.5 39t18 43.5t7 45.5t-7.5 46q-14 37 -48.5 59.5t-74.5 21.5h-2q-23 0 -44 -7t-36 -22
l-40 30v218h318v-113l-8 15q-8 14 -22 16.5t-15 2.5h-161v-43q31 3 59.5 1t54.5 -10q45 -16 76 -50z" />
    <glyph glyph-name="six.osf" horiz-adv-x="466" 
d="M224 407q47 0 88.5 -19.5t72.5 -52.5t49 -78t18 -96t-18 -95.5t-49 -77.5t-72.5 -52.5t-88.5 -19.5q-31 0 -61 9q-49 15 -86.5 50t-57.5 81q-26 58 -20.5 119t32.5 118q14 30 30 59t32 59q10 18 31.5 50.5t44 67t39.5 63.5t17 41h154q-1 0 -9.5 -3.5t-17.5 -13.5
q-2 -2 -5.5 -6t-6.5 -8q-4 -4 -7 -9q-27 -39 -50 -74q-20 -30 -39.5 -61.5t-30.5 -51.5q2 0 5 0.5t6 0.5zM224 24q25 0 46.5 11t38 29.5t26 43.5t9.5 53t-9.5 53.5t-26 44t-38 29.5t-46.5 11t-46.5 -11t-38 -29.5t-26 -44t-9.5 -53.5t9.5 -53t26 -43.5t38 -29.5t46.5 -11z
" />
    <glyph glyph-name="seven.osf" horiz-adv-x="232" 
d="M44 426q-22 0 -39 -14v91l320 1l-231 -606q-6 -12 -4 -26q1 -8 2 -17.5t3 -14.5h-154q5 6 10 13q5 6 10.5 13.5t10.5 17.5q12 21 27.5 55.5t32.5 76.5t34.5 88.5t34.5 92.5q40 106 82 229h-139z" />
    <glyph glyph-name="eight.osf" horiz-adv-x="507" 
d="M362 392q31 -15 56.5 -37.5t44 -51.5t28.5 -62.5t10 -70.5q0 -51 -19.5 -96t-53 -79t-78.5 -53.5t-96 -19.5t-96 19.5t-79 53.5t-53.5 79t-19.5 96q0 69 34.5 125.5t89.5 88.5q-17 20 -28 47t-11 57q0 31 12 58.5t32.5 47.5t48 32t59.5 12q31 0 58.5 -12t48.5 -32
t33 -47.5t12 -58.5q0 -28 -9 -52.5t-24 -43.5zM243 549q-26 0 -44 -18t-18 -43q0 -27 18 -44.5t44 -17.5q25 0 43.5 17.5t18.5 44.5q0 25 -18.5 43t-43.5 18zM254 35q28 0 52.5 10.5t43 29t29 43t10.5 52.5t-10.5 53t-29 43.5t-43 29t-52.5 10.5t-52.5 -10.5t-43 -29
t-29 -43.5t-10.5 -53t10.5 -52.5t29 -43t43 -29t52.5 -10.5z" />
    <glyph glyph-name="nine.osf" horiz-adv-x="466" 
d="M234 14q-47 0 -88.5 19.5t-72.5 52.5t-49 77.5t-18 95.5t18 95.5t49 77.5t72.5 52.5t88.5 19.5q31 0 61 -9q49 -14 86.5 -49.5t57.5 -81.5q26 -58 20.5 -119t-32.5 -118q-5 -10 -18.5 -33t-31 -52.5t-37 -61.5t-35.5 -60.5t-26.5 -50t-10.5 -29.5h-153q1 0 9 3.5t17 13.5
l5.5 5.5t6.5 7.5q4 4 7 9l32 48q14 20 28 43.5t25 43.5h-11zM234 396q-25 0 -47 -10.5t-38 -29.5t-25.5 -44t-9.5 -53q0 -29 9.5 -54t25.5 -43.5t38 -29.5t47 -11t46.5 11t37.5 29.5t25.5 43.5t9.5 54q0 28 -9.5 53t-25.5 44t-37.5 29.5t-46.5 10.5z" />
    <glyph glyph-name="r.ss02" horiz-adv-x="563" 
d="M587 108q43 -22 67 -58t31.5 -77.5t-1.5 -84t-32.5 -77t-60.5 -56t-87 -21.5q-68 0 -123.5 45t-84.5 123q-1 4 -11.5 29t-24.5 61t-31 78t-32 79t-26 64.5t-14 34.5q-12 -6 -19.5 -11.5t-9.5 -22.5v-174q7 -25 21 -32t21 -8h-174q7 1 22 8t23 33v408q-2 13 -6 24
q-4 10 -12 18.5t-23 12.5h217q31 0 53 -15t35 -38.5t16 -51t-4 -53.5t-25 -46.5t-47 -28.5q33 -84 56 -142t38 -95.5t23 -58t12 -30t4.5 -11.5l0.5 -2q8 -20 21 -40.5t29.5 -36t37.5 -24.5t46 -7q36 4 58 29.5t27.5 58.5t-7 66t-45.5 51q-29 15 -56 4t-33 -48l-66 103
q6 -3 15 1t18.5 10t19.5 12.5t17 8.5q63 20 126 -12zM128 317q9 1 20 4q9 2 19 4.5t21 4.5q14 4 33.5 13t28.5 24q3 6 3.5 14.5t-1.5 17.5t-6 16.5t-10 11.5q-3 2 -8 3t-16 1.5t-30.5 0.5h-53.5v-115z" />
    <glyph glyph-name="a.ss02" horiz-adv-x="482" 
d="M565 -261q-43 14 -73.5 39t-52.5 56.5t-38.5 66.5t-30.5 69q-15 35 -27 67q-11 27 -21.5 53.5t-16.5 40.5q-32 8 -63 23.5t-55 33.5l-40 -127q-5 -15 2 -29.5t21 -21.5q8 -4 14 -6t6 -4h-193q0 1 17 8q33 16 44 50l59 186q-14 12 -29.5 25t-22.5 15h2v91q22 0 41 -10
t39 -27l42 131q3 10 -1 19t-12 14h124q-15 -12 -10 -30q51 -142 91 -255q17 -48 34 -94.5t30.5 -83.5t22 -61t10.5 -27q20 -45 43 -74.5t58 -44.5q6 -3 16 -2.5t21 7.5zM216 280q15 -12 31.5 -23t33.5 -20l-41 119z" />
    <glyph glyph-name="k.ss02" horiz-adv-x="416" 
d="M485 -288q-7 10 -21 15q-38 15 -65.5 39.5t-48 55t-36 64t-28.5 66.5l-7 15q-8 19 -14 41t-12 47q-6 20 -13.5 45.5t-16.5 48t-19.5 38t-22.5 15.5h-11l-34 -48v-105q0 -4 2 -11t6.5 -15t12.5 -15t21 -10h-42h-87h-3h-40q19 5 28 17t12 23v426q-3 11 -12 23t-28 17h40h3
h87h42q-13 -3 -21 -10t-12.5 -15t-6.5 -15t-2 -11v-149q0 -2 1 -3l104 161q7 13 -3 23q-5 6 -11.5 11t-17.5 8h148h27q-12 -5 -21 -13.5t-16 -16.5q-8 -10 -14 -21l-102 -167l-2 -3q24 -12 41.5 -34.5t30.5 -50.5t22.5 -59t17.5 -61q5 -22 10.5 -41.5t11.5 -33.5l7 -17
q15 -38 29.5 -68t31.5 -53t38.5 -38t51.5 -22q8 -2 18 -1.5t21 8.5z" />
    <glyph glyph-name="m.ss02" horiz-adv-x="440" 
d="M389 100q0 -62 18.5 -121t61.5 -106q11 -12 27.5 -26.5t35.5 -25t38.5 -13.5t35.5 9l-25 -118q-5 9 -15 11q-58 15 -108 52.5t-88 93.5q-22 32 -35.5 67.5t-21 72.5t-10.5 75.5t-3 76.5v189l-80 -115q-2 -4 -7 -4t-7 4l-74 115v-298q3 -11 12 -23.5t29 -17.5h-41h-2h-86
h-1h-42q23 6 31.5 21t10.5 25v413q-2 11 -10.5 26t-31.5 21h22h21h87h22h21q-9 -3 -18 -8q-9 -6 -11 -17t4 -20l58 -85q6 -8 12 0l63 85q8 10 5 22t-14 18q-3 2 -6 2.5t-7 2.5h20h23h86h21h21q-23 -7 -32 -23t-10 -25v-356v0z" />
    <glyph glyph-name="n.ss02" horiz-adv-x="417" 
d="M391 8q8 -33 21 -63t36 -55q36 -42 85 -63q14 -6 31.5 -4t27.5 7l-28 -120q-11 11 -24 14.5t-25 8.5q-42 16 -77.5 41.5t-63.5 59t-47.5 73t-28.5 83.5q-6 35 -9 70.5t-14 69.5q-6 19 -15 37t-20 35q-21 32 -47 61.5t-55 57.5v-274q1 -9 9.5 -26t32.5 -23h-174
q13 3 21 11t13 16.5t7 17t2 13.5v402q0 10 -9 26t-33 22h43h129q-22 -6 -31.5 -21t-9.5 -24v-28q26 -26 66.5 -67t79.5 -86v46.5t0.5 50t0.5 46v35.5q0 11 -10 26.5t-33 21.5h172q-21 -6 -31 -20.5t-10 -24.5v-24v-215q0 -50 2 -105.5t16 -108.5z" />
    <glyph glyph-name="q.ss02" horiz-adv-x="357" 
d="M765 -105q-13 -9 -22 -27t-16.5 -37.5t-16.5 -39t-22 -31.5q-22 -24 -50 -37q-43 -20 -92.5 -16t-89.5 33q-38 27 -65.5 65t-46.5 81q-8 21 -15 41t-13 40q-7 22 -14 42.5t-16 41.5q-21 -23 -50 -36t-62 -13h-19q-31 0 -58.5 12t-48.5 33t-33 48.5t-12 58.5v195
q0 31 12.5 59t35 48.5t54 32.5t69.5 12q31 0 59 -12t48.5 -32.5t32.5 -48.5t12 -59v-201q18 -23 30.5 -51t23 -58t20 -61t21.5 -59q14 -33 35.5 -64t52.5 -50q29 -17 62.5 -14.5t58.5 28.5q11 12 19.5 25.5t13.5 28.5q5 16 6 30.5t-8 29.5zM165 98q17 0 32.5 7.5t25.5 20.5
q-12 7 -28.5 11.5t-33.5 5.5t-32.5 -1.5t-25.5 -9.5q10 -16 26 -25t36 -9zM253 301l-16 -14q-12 -13 -24.5 -19t-32.5 -4q-15 2 -25 11.5t-12.5 21t3 22.5t20.5 15q12 3 21.5 -6.5t-0.5 -27.5q0 -4 2 -2q4 3 10.5 9t12.5 14.5t10.5 19t4.5 23.5q0 2 -2 8.5t-9 13t-19 12
t-32 5.5q-30 0 -52.5 -21t-22.5 -53v-111q32 11 74 8.5t75 -16.5v66z" />
    <glyph glyph-name="l.ss02" horiz-adv-x="469" 
d="M487 139q49 -13 83 -45t53 -75t22 -91.5t-9.5 -94t-42 -83.5t-75.5 -58q-20 -9 -41.5 -13t-44.5 -4q-46 0 -91 16.5t-77 48.5q-28 26 -45.5 57.5t-32.5 64.5q-27 62 -51.5 96t-62.5 41h-67q13 3 21.5 13t13.5 21.5t6.5 20.5t1.5 11v376q0 2 -1 10t-5 18t-12.5 19
t-23.5 14h176q-15 -5 -23.5 -14.5t-12.5 -20.5q-5 -12 -6 -26l-2 -378q27 -13 47 -32.5t35 -42t26.5 -46t20.5 -43.5q13 -29 26.5 -53t32.5 -43q14 -14 33.5 -23.5t41 -13.5t42.5 -2t39 10q41 18 60.5 59t17 86t-26 83t-67.5 50q-30 9 -61 4t-59 -25q-10 -5 -20 -21.5
t-12 -36.5l-73 97q5 6 13.5 8t14.5 7q50 42 104.5 54.5t113.5 -0.5z" />
    <glyph glyph-name="x.ss02" horiz-adv-x="428" 
d="M533 -274q-2 4 -4 7.5t-5 4.5q-50 11 -84 36t-59 57.5t-42 69.5t-32 73l-88 175l-50 -94q-7 -14 -4.5 -29.5t13.5 -26.5h-176l22 14q28 17 45 49l98 185l-104 195q-8 16 -18 27t-20 19q-11 9 -23 14h168q-10 -11 -11.5 -25.5t5.5 -27.5l55 -104l55 104q7 13 5.5 27.5
t-11.5 25.5h169q-13 -5 -24 -14q-10 -8 -20.5 -19t-17.5 -27l-104 -195l29 -54q3 -5 11 -21.5t19 -37.5t22.5 -44.5t21 -43.5t16 -33.5t7.5 -14.5q15 -35 28.5 -63.5t30 -50.5t38 -36t50.5 -21q17 -5 38 6l-49 -107v0z" />
    <glyph glyph-name="h.ss02" horiz-adv-x="438" 
d="M470 -117q10 -12 27 -26.5t35.5 -25.5t38 -13.5t35.5 9.5l-27 -118q-5 10 -13 11q-59 14 -108.5 51.5t-87.5 93.5q-34 51 -50.5 101t-20.5 110v157h-160l-1 -170q0 -2 2.5 -10.5t7.5 -19.5t14 -20.5t22 -12.5h-179q13 3 21.5 13t13 20.5t6.5 19.5t2 11v379q0 2 -1 10.5
t-5 18t-12.5 19t-23.5 13.5h176q-15 -5 -23.5 -14.5t-12.5 -20.5q-5 -12 -6 -26l-1 -129h160v129q0 2 -1 10.5t-5 18t-12.5 19t-23.5 13.5h176q-15 -5 -23.5 -14.5t-12.5 -20.5q-5 -12 -6 -26l-2 -287q1 -28 2 -52l2 -40t3 -29q8 -42 25.5 -81t48.5 -71z" />
    <glyph glyph-name="uta" horiz-adv-x="1014" 
d="M401 391q-23 -6 -33 -21t-10 -26v-149q1 -55 -15 -97q-7 -18 -18 -35.5t-27.5 -31t-39.5 -22t-54 -8.5q-32 0 -55.5 8t-40 21.5t-27.5 31t-18 35.5q-16 42 -14 97v268q0 11 -9 27t-34 23h176q-26 -8 -34.5 -25t-8.5 -27v-265q0 -28 7 -50q6 -19 18.5 -34t37.5 -15
q26 0 40 15t20 34q7 22 7 50v144q0 11 -9 28t-35 24h176zM1008 1h-42h-22h-59h-9h-71q5 1 11 4q5 2 11.5 5t12.5 7q11 8 15 20t0 24l-126 352v-341q0 -25 10.5 -45t31.5 -26h-136h-43q10 3 17.5 9.5t12.5 14.5t8 16.5t4 14.5v17l1 259v5q0 8 -3.5 22.5t-11 28.5t-20 24.5
t-31.5 10.5h-43l-2 -359q0 -2 2.5 -10.5t7.5 -19.5t14 -21t22 -13h-181q13 4 22 14t13.5 21t6.5 19.5t2 10.5v358h-172q-28 0 -44 -22l-26 -35v147h620q-17 -12 -11 -30l143 -415q17 -48 64 -67h1z" />
    <glyph glyph-name="g.ss02" horiz-adv-x="364" 
d="M368 228v-4q-6 -1 -11 -5t-8.5 -10.5t-4.5 -17.5l1 -242q0 -48 -16.5 -86t-43 -65t-60 -41t-67.5 -14q-36 0 -70 9.5t-59.5 28t-41 47.5t-15.5 68q0 21 6.5 41t20.5 37q4 5 4 18l78 -79q-7 -1 -12 -5.5t-5 -11.5q0 -18 8.5 -30t22 -19t30.5 -10t33 -3q17 0 34 8.5
t30.5 23.5t22 36t8.5 47v62q-15 -5 -32 -9t-44 -4q-33 0 -63 10.5t-52.5 30t-36.5 48.5t-16 66v196q0 31 12 59t32.5 49t48.5 33.5t60 12.5h20q23 0 46.5 -8t42.5 -17q22 -11 43 -25q4 -2 8 -1t7 4t4.5 6.5t2.5 5.5q2 5 4.5 8.5t7.5 3.5h6l-75 -181h2q13 0 22 -9t9 -21
t-9 -20.5t-22 -8.5q-17 0 -23.5 14t-6.5 29v64q0 28 -24 43t-53 14t-53 -19t-24 -57v-154q0 -30 19.5 -54t50.5 -24q15 0 31 4t29 13t21 23.5t8 35.5q0 3 -0.5 11t-4 16t-12 14.5t-23.5 6.5l-2 7z" />
    <glyph glyph-name="a.ss01" horiz-adv-x="439" 
d="M764 -54q-6 -17 -3 -31q10 -48 -8.5 -93t-62.5 -73q-20 -14 -42.5 -21t-45.5 -7q-62 0 -110 46q-14 14 -25.5 29.5t-19.5 33.5l-1 1q-34 80 -62 144q-12 27 -23.5 53.5t-21 48t-16 36t-7.5 17.5q-32 8 -63.5 24t-55.5 34l-40 -127q-5 -16 1.5 -30.5t21.5 -21.5
q8 -4 14 -6t6 -4h-194l17 9q33 14 44 50l60 186q-14 13 -29.5 25.5t-23.5 14.5h2v92q22 0 41.5 -10t39.5 -27l42 132q3 9 -1 18t-12 14h125q-17 -10 -10 -29q33 -95 65 -183q13 -38 27.5 -77.5t28 -77t26 -71.5t21.5 -59l60 -137q10 -21 27 -36q21 -21 44 -20t40 12
q13 8 23 23t9 35q0 6 -2 11.5t-14 10.5zM226 281q31 -27 66 -44l-42 120z" />
    <glyph glyph-name="h.ss01" horiz-adv-x="446" 
d="M443 -128q17 -19 39 -31.5t48 -19.5q11 -3 23 2.5t21 17.5v-116q-59 0 -110 22t-89 62q-72 80 -75 204v8.5t-0.5 16.5t-0.5 18.5v15.5v107l-159 63l-1 -179q0 -2 2 -10.5t7.5 -19t14 -20.5t21.5 -13h-178q13 4 21.5 14t13 20.5t6.5 19t2 10.5v380q0 2 -1 10t-5.5 18
t-13 19.5t-23.5 13.5h177q-15 -5 -23.5 -14.5t-12.5 -20.5q-5 -12 -6 -26l-1 -117l159 -63v180q0 2 -1 10t-5 18t-12.5 19.5t-23.5 13.5h176q-15 -5 -23.5 -14.5t-12.5 -20.5q-5 -12 -6 -26l-2 -372v-61q2 -45 16 -79t38 -60z" />
    <glyph glyph-name="v.ss01" horiz-adv-x="500" 
d="M402 852q56 -44 78.5 -109.5t5.5 -132.5q-1 -2 -1.5 -5t-2.5 -6q-10 -39 -18 -67.5t-16.5 -57.5t-19 -63.5t-26 -84.5t-38 -120.5t-53.5 -171.5q-3 -10 1 -19t12 -14h-125q16 11 10 29l-139 407q-16 45 -63 66h-1h198q-6 -1 -11 -4q-11 -6 -23 -13q-10 -7 -14 -18.5
t0 -23.5l104 -298l142 477l3 9q5 20 4 41.5t-7 42t-17 37t-26 26.5q-10 7 -26 2l63 91q1 -9 2 -13t4 -7z" />
    <glyph glyph-name="r.ss01" horiz-adv-x="374" 
d="M695 -166h-3q-22 -5 -40 -22q-37 -32 -81 -52.5t-86 -20.5q-41 0 -83 17q-33 13 -60 34.5t-46.5 48.5t-30.5 58t-11 64v33q0 25 -0.5 51t-4 49.5t-11.5 43t-23 31.5l-23 18q-31 7 -57 30l-1 -155q0 -2 2 -10.5t7 -19t13 -20t21 -12.5h-173q13 3 21 13t12.5 20.5t6 19
t1.5 10.5v383q0 1 -1 9t-5 17.5t-12 18.5t-22 14h171q-14 -5 -22 -14.5t-12 -19.5q-4 -11 -6 -25l-1 -136l8 -10l8.5 -8.5t13.5 -11.5t17.5 -11t19.5 -6q35 -5 52 22q10 14 14.5 33.5t4.5 40.5t-4 40t-11 33q-5 11 -10 13t-9 2q-8 0 -10 -2v-4q0 -1 1 -1h3q3 0 7 -1t8 -4
q6 -8 8 -17t-2 -17q-2 -5 -10.5 -14t-28.5 -9q-24 0 -40 20t-16 41q0 18 8 30.5t20 19.5t25 10t22 3q47 0 80 -22q19 -14 28.5 -37t13 -46t2.5 -43.5t-2 -30.5q-5 -35 -20 -64.5t-39 -47.5q18 -23 27.5 -50.5t13.5 -56t4.5 -57t0.5 -53.5v-32q1 -38 26.5 -72.5t65.5 -51.5
q19 -7 54 -5.5t73 24.5q20 11 30 29t12 39z" />
    <glyph glyph-name="r.ss03" horiz-adv-x="382" 
d="M443 -32q10 13 22.5 13.5t22.5 -7t15 -20.5t1 -28q-6 -20 -23 -33t-37.5 -17t-41.5 2t-36 25l-208 342l-18 -6l-1 -178q0 -1 0.5 -9.5t5 -19t13.5 -20t26 -12.5h-178q15 5 23.5 15t12.5 20t5 17.5t1 9.5v379q0 2 -1 10.5t-5 18.5t-12 19t-23 13h216q29 0 51.5 -14
t36 -36.5t18.5 -49.5t0.5 -53t-20 -48t-42.5 -33q-3 -1 -5 -1.5t-4 -1.5l161 -312q10 -17 20.5 -24t27.5 2q3 1 0 4q-11 -2 -17.5 1t-9.5 8.5t-2 12t5 11.5zM140 312q9 2 24 5.5t30 7.5q17 5 35 13.5t29 23.5q5 10 4.5 21.5t-5.5 21.5t-13.5 17.5t-20.5 8.5h-83v-119z" />
    <glyph glyph-name="e.ss01" horiz-adv-x="294" 
d="M616 -70q15 -43 -2 -90q-13 -37 -40 -65q-33 -32 -76.5 -39.5t-85.5 10.5q-40 18 -71.5 49.5t-59.5 65.5q-15 19 -32 42t-36.5 43t-42 35t-49.5 19h-113q14 3 22.5 13t13.5 21.5t7 20.5t2 11v64v303q0 26 -10 45.5t-32 25.5h275v-80v-28q-5 7 -12 12q-6 5 -14.5 8.5
t-20.5 3.5h-92v-150h33q10 0 19 9l5 8v-94l-6 9q-8 8 -18 8h-33v-119q9 -4 17 -7q7 -2 13 -4.5t8 -2.5q29 -13 54 -34t47 -43q26 -29 49.5 -59.5t49.5 -59.5q9 -11 21 -22.5t26 -19.5t29 -11.5t31 2.5q11 5 20 16t14 23v1q5 13 -0.5 25.5t-17.5 17.5l-11 4l110 70v-4
q-2 -27 9 -53z" />
    <glyph glyph-name="j.ss01" horiz-adv-x="205" 
d="M194 507q-15 -5 -23 -14.5t-12 -20.5q-4 -12 -6 -26v-512q0 -48 -16.5 -86t-42.5 -64.5t-59.5 -40.5t-66.5 -14q-83 0 -132 39q-53 42 -53 112q0 40 22 73q2 2 5.5 9t1.5 15l84 -78q-11 1 -16 -5t-5 -14q0 -27 17 -41q25 -19 76 -19q17 0 33.5 8t30 23t21.5 36t8 47v208
v304q0 2 -1 10.5t-5 18t-12.5 19t-23.5 13.5h175v0z" />
    <glyph glyph-name="k.ss01" horiz-adv-x="401" 
d="M716 -163h-4q-25 -8 -42 -24q-38 -32 -84.5 -54t-89.5 -22q-44 0 -89 17q-34 14 -62.5 36.5t-48.5 50.5t-31.5 60.5t-12.5 67.5v37v52.5t-4 51t-12.5 44.5t-24.5 34l-26 21l-10 -12l-36 -50v-94q0 -4 2 -11.5t7 -15.5t13 -15t22 -11h-44h-1h-88h-2h-42q20 5 29.5 17.5
t12.5 23.5v421q-3 11 -12.5 23.5t-29.5 17.5h42h2h88h1h44q-14 -4 -22 -11t-13 -15t-7 -15.5t-2 -11.5v-148q0 -2 1 -4l104 162q8 12 -2 24q-10 13 -30 19h153h26q-11 -5 -20.5 -13.5t-16.5 -17.5q-8 -11 -15 -22l-99 -164l30 -24q30 -24 45.5 -55.5t23 -66t8 -69.5t0.5 -66
v-34q1 -41 27.5 -76.5t68.5 -52.5q20 -8 56.5 -6.5t77.5 25.5q20 11 31.5 29.5t12.5 41.5z" />
    <glyph glyph-name="g.ss01" horiz-adv-x="384" 
d="M380 223v-3q-7 -1 -12 -5t-8.5 -11t-4.5 -18v-1v-248q0 -50 -17 -89.5t-44 -67.5t-61.5 -42.5t-68.5 -14.5q-43 0 -77.5 10t-59.5 31q-27 21 -41.5 51t-14.5 66q0 22 7.5 43t20.5 38q5 5 5 18l81 -81q-19 -3 -19 -18q0 -26 19 -43q26 -20 79 -20q18 0 35 8.5t31 24.5
t22.5 37.5t8.5 48.5v64q-31 -14 -65 -14h-12h-3q-2 0 -2.5 0.5t-2.5 0.5h-8q-33 0 -62 12.5t-50.5 34t-34 50.5t-12.5 62v202q0 33 12.5 61.5t34 50.5t50.5 34.5t62 12.5h20q24 0 48.5 -8t44.5 -18q23 -11 44 -26q4 -2 8 -1t7 4t4.5 6.5t2.5 5.5q2 5 4.5 8.5t7.5 3.5h7
l-78 -186h3q12 0 21.5 -8.5t9.5 -22.5q0 -12 -9.5 -21t-21.5 -9q-19 0 -25.5 15t-6.5 30v66q0 29 -25 44.5t-55 14.5t-55 -20t-25 -58v-159q0 -32 21 -56.5t52 -24.5h17q32 0 53.5 23t21.5 55q0 3 -0.5 11t-4 16.5t-12 15t-24.5 6.5l-2 8h159z" />
    <glyph glyph-name="m.ss01" horiz-adv-x="438" 
d="M666 -31q-5 -24 -5 -42t-1 -39q-3 -74 -58 -120q-30 -26 -63.5 -35t-66 -4.5t-62.5 21.5t-53 42.5t-37 58t-14 68.5v12.5t-0.5 32t-0.5 45v51.5v139v139l-81 -116q-2 -4 -7 -4t-7 4l-74 115v-298q3 -11 12 -23.5t29 -17.5h-41h-2h-85h-1h-42q23 6 31.5 21t10.5 25v413
q-2 10 -11 25.5t-31 20.5h21h22h86h22h21q-5 -1 -9.5 -3t-8.5 -4q-9 -6 -11 -17t4 -21l58 -84q6 -8 12 0l63 85q8 10 5 22t-14 18q-4 2 -12 4h19h24h84h22h21q-23 -6 -31.5 -22t-10.5 -26v-255l1 -280q0 -19 7.5 -36.5t19.5 -31t28 -22.5t34 -11q35 -3 59 18q11 11 18 24.5
t7 29.5q1 5 -3 17t-12 17z" />
    <glyph glyph-name="l.ss01" horiz-adv-x="306" 
d="M601 -69q14 -42 -1 -90q-13 -35 -40 -61q-32 -31 -74.5 -39t-84.5 10q-40 17 -71 48t-57 63q-15 19 -32 41.5t-36 42.5t-41.5 34.5t-49.5 19.5h-108q13 3 21.5 12.5t13.5 20t6.5 19t1.5 10.5v379q0 2 -1 10t-5.5 18t-12.5 19t-23 14h176q-16 -5 -24.5 -14.5t-13.5 -20.5
q-5 -12 -6 -26l-1 -353q42 -9 76.5 -33.5t63.5 -55.5q26 -28 48 -57.5t48 -58.5q9 -11 21 -22t25.5 -19.5t28.5 -11.5t30 3q11 4 20 14.5t14 24.5q5 13 -1 24.5t-18 16.5l-9 5l109 69l-1 -4q-1 -13 1.5 -26t6.5 -26z" />
    <glyph glyph-name="n.ss01" horiz-adv-x="422" 
d="M677 711q-9 -5 -25 -13.5t-33 -18.5t-33 -19t-25 -14q10 19 8.5 32.5t-9.5 24.5q-22 25 -61 25q-54 0 -83 -29q-16 -16 -24.5 -36t-12.5 -37.5t-4.5 -30l-0.5 -12.5v-2l-2 -455v-3l-1 -59q0 -2 2 -10.5t7.5 -19t14 -20.5t21.5 -13h-177q13 3 21.5 13t13 21t6.5 19.5
t2 10.5v44q-6 38 -21.5 71t-36 61t-42.5 50.5t-42 39.5l-2 -267q0 -2 2 -10.5t7.5 -19t14 -20.5t21.5 -13h-177q13 3 21.5 13t13 21t6.5 19.5t2 10.5v376q0 2 -1 10.5t-5.5 18t-12.5 19t-23 13.5h175q-13 -4 -21 -12t-12.5 -17t-6 -17t-2.5 -12q21 -14 61.5 -46t80.5 -82v58
l2 208q0 4 1 23.5t7.5 45.5t20 56t38.5 55q56 58 148 58q38 0 71.5 -15t57.5 -43q13 -15 25 -38q3 -6 10 -8.5t14 -4.5z" />
    <glyph glyph-name="s.ss01" horiz-adv-x="328" 
d="M288 128q31 -51 41.5 -109.5t-6.5 -116.5q-8 -25 -21 -48t-33 -40q-34 -31 -79 -49.5t-101 -18.5q-38 0 -72.5 8.5t-61 28t-41 51t-12.5 76.5q0 8 -1 15.5t-9 18.5l117 -24q-25 -13 -26 -30t13.5 -32.5t40.5 -26t55 -10.5q35 0 61.5 12t50.5 38q21 23 31 52t10 59
t-9.5 59t-27.5 53q-15 20 -34 39.5t-39.5 38.5t-41 36.5t-38.5 34.5q-19 18 -32.5 41t-18.5 48t-0.5 51t20.5 50q18 26 44.5 43t56.5 23q26 5 47 0t43 -14q10 -4 15 11v-142q-9 32 -26 45t-37 17q-22 4 -43 -7t-29 -32q-7 -17 -3.5 -36t14.5 -33q21 -27 50.5 -50t55.5 -44
q22 -17 41 -39t35 -47z" />
    <glyph glyph-name="w.ss01" horiz-adv-x="810" 
d="M791 609q0 -1 -8 -26t-20 -66t-27.5 -92.5t-31.5 -105.5q-38 -127 -87 -286q-3 -9 1 -18t12 -14h-124q7 5 10 13t0 16l-108 313l-98 -309q-2 -9 1 -18t13 -14h-125q8 5 10 13t0 16l-139 405q-16 49 -63 66h-1h198q-6 -1 -11 -4q-5 -2 -11 -5t-11 -7q-11 -7 -15.5 -18.5
t0.5 -23.5l104 -297l92 294q5 15 -2 30t-21 21q-8 4 -14 6.5t-6 3.5h193h8q-6 -1 -11 -4q-5 -2 -10.5 -5.5t-11.5 -7.5q-11 -7 -15 -18.5t0 -23.5l104 -297l88 282l54 194q2 6 2 9q5 19 4.5 41t-6.5 42t-17 37t-26 27q-10 5 -26 2l63 90q0 -14 6 -20q56 -43 78.5 -108.5
t4.5 -132.5z" />
    <glyph glyph-name="ampersand.ss01" horiz-adv-x="1114" 
d="M779 -1036q-70 0 -137 19.5t-125 59.5q-4 3 -7.5 5.5t-6.5 5.5q-60 45 -95 109t-43 139q-8 76 15.5 149t74.5 130l19 22q50 57 117.5 89t142.5 34q66 2 127.5 -18.5t112.5 -62.5q13 -11 35 -14l-123 -161q-4 39 -10.5 59.5t-19.5 28.5q-53 31 -118 29q-47 -2 -87.5 -21.5
t-72.5 -54.5l-15 -17q-30 -34 -46.5 -76.5t-14.5 -87.5q2 -51 24 -93.5t61 -71.5q4 -4 10 -7q44 -31 97.5 -44t108.5 -9.5t107.5 24t94.5 56.5q41 36 69 84.5t41.5 103.5t11 112.5t-21.5 110.5q-15 41 -37.5 78.5t-50.5 72.5t-59 68.5t-62 66.5q-36 38 -87.5 96
t-110.5 126.5t-121.5 142.5t-120.5 144h-3q-37 -39 -72 -75.5t-65 -68t-53.5 -56t-37.5 -38.5q-44 -48 -66.5 -106.5t-15.5 -109.5q9 -68 70 -107q29 -18 61.5 -25.5t64.5 -4.5t62 17t55 38q37 35 46 85q7 39 -5 76q-9 29 -35 45t-56 12l148 143q2 -17 7 -32.5t16 -28.5
q36 -44 52.5 -96t14 -105t-24.5 -104t-62 -91q-42 -42 -93.5 -67t-107 -31t-111.5 7t-106 45q-58 36 -92 88.5t-42 118.5q-5 41 0.5 84t21 86t40 83.5t57.5 75.5l2 2q13 13 36.5 37t53.5 55.5t64.5 68t71.5 75.5q-54 64 -106.5 140t-116.5 176h724q-58 -59 -101.5 -103
t-78.5 -79.5t-64 -66t-58 -60.5q58 -71 121.5 -146t123.5 -145t112 -129t88 -96q33 -35 68 -72.5t67 -78.5t59 -87t46 -97q27 -74 30.5 -152t-15 -152.5t-58 -141t-97.5 -117.5q-66 -57 -148.5 -86.5t-168.5 -29.5zM411 664q11 -14 24 -29.5t27 -32.5q30 33 59 62h-110z" />
    <glyph glyph-name="t.ss01" horiz-adv-x="220" 
d="M570 644q14 -12 27 -18l-74 -82q0 14 -5 24.5t-10 15.5q-38 34 -89.5 44.5t-101.5 -6.5l-155 -55l-6 -511q0 -2 2 -10t6.5 -18t13 -19.5t20.5 -12.5h-167q12 3 20 12.5t12.5 19.5t6 18.5t1.5 9.5v479l-14 -4q-42 -16 -91 -16q-64 0 -124 29l-60 30q-27 13 -59 10l56 113
q17 -33 53 -52l48 -24q35 -17 73.5 -19.5t75.5 10.5l260 91q36 13 74 15t74.5 -6t70.5 -25t62 -43z" />
    <glyph glyph-name="e.ss02" horiz-adv-x="460" 
d="M493 144q40 -10 72 -33.5t53 -57t30.5 -75.5t5.5 -88q-7 -67 -42 -119.5t-89 -75.5q-20 -10 -41.5 -14t-44.5 -4q-48 0 -86 15t-68 40.5t-53.5 60.5t-41.5 74q-27 60 -52 92.5t-63 38.5h-67q13 3 21.5 13t13 21t6.5 20t2 10v372q0 26 -9.5 45t-29.5 24h323v-105
q-4 7 -10 12q-5 5 -14 8.5t-22 3.5h-147l1 -148h31q9 0 24 16v-91q-8 11 -13 14t-10 3h-32l-1 -145q27 -13 47 -33t35.5 -43t27 -47t21.5 -45q13 -32 34.5 -62.5t49 -50.5t61 -25.5t71.5 11.5q19 9 33 23t23.5 30.5t14.5 34.5t7 35q2 24 -2.5 49t-15.5 47.5t-30 39t-47 23.5
q-31 7 -61.5 2.5t-59.5 -22.5q-10 -7 -19.5 -24t-11.5 -36l-74 98q6 6 14 8t15 7q50 43 105 55.5t115 -2.5z" />
    <glyph glyph-name="z.ss02" horiz-adv-x="689" 
d="M682 -18q8 -34 7 -72t-12 -74.5t-32.5 -68.5t-55.5 -53q-23 -16 -49.5 -23t-53.5 -7q-45 0 -90 19.5t-85 56.5q-6 4 -30.5 23.5t-58.5 46.5t-72.5 57.5t-71.5 56.5t-55 43.5t-23 19.5l264 406h-147q-22 0 -36.5 -9t-28.5 -23v122h380l-309 -481q62 -48 104 -81
t69.5 -54.5t42.5 -33.5t22 -17.5t8.5 -6.5l1.5 -1l1 -1q15 -15 35.5 -27.5t43 -19.5t45 -5.5t43.5 15.5q20 13 33 33t19.5 43.5t7 48t-5.5 45.5q-7 29 -26.5 53t-45.5 35q-14 7 -34 9t-44 -10q-11 -5 -19 -13t-13 -17l-62 86q17 6 28 13t25 13q37 19 77.5 19t81.5 -18
q44 -20 76.5 -60t44.5 -88z" />
    <glyph glyph-name="y.ss02" horiz-adv-x="347" 
d="M348 503q-7 -11 -11 -22.5t-4 -24.5v-511q1 -47 -14.5 -84t-41 -62.5t-57.5 -39.5t-65 -14q-36 0 -68.5 9t-57 27t-39 45.5t-14.5 65.5q0 43 26 75q4 7 4 17l76 -74q-8 -2 -13 -6.5t-5 -11.5q0 -17 7.5 -28.5t20.5 -18.5t29.5 -9.5t33.5 -2.5q16 0 32 7.5t29 21.5t21 33
t9 43v108q-37 -17 -79 -15t-77.5 21t-58.5 52t-21 78v274q0 25 -14 45h114q-15 -20 -15 -47v-251q0 -14 6 -28t16.5 -24.5t24 -17t28.5 -6.5q27 0 42.5 12t23.5 26q9 17 12 38v255q0 12 -2.5 23t-10.5 22h114h-1v0z" />
    <glyph glyph-name="s.ss02" horiz-adv-x="341" 
d="M261 153q34 -29 53 -65.5t22.5 -77.5t-8 -83.5t-39.5 -81.5q-42 -60 -104 -93t-137 -33q-68 0 -124.5 24.5t-95.5 69.5q-34 39 -48.5 89t-6.5 99q6 33 22.5 65.5t41.5 58.5t56.5 43t66.5 20q39 3 76.5 -9t67.5 -38l26 -23l-80 -105l-1 17q-2 20 -13 35.5t-26.5 23.5
t-34 9t-36.5 -8q-32 -15 -50.5 -41.5t-24 -57t2.5 -62.5t30 -57q9 -11 22 -22t31.5 -20t42.5 -14.5t55 -5.5q52 0 95.5 22.5t72.5 63.5q21 31 27.5 59t3 52.5t-15.5 44t-27 32.5q-3 2 -12 8.5t-21 16t-27 21t-30 23.5q-35 27 -79 60l-4 4l-9 7q-23 21 -36 48.5t-16 57
t4.5 59t25.5 54.5q25 33 62 49.5t78 11.5q29 -3 53.5 -16.5t43.5 -33.5q18 -18 32 -10l-84 -103q0 1 0.5 6.5t0 13t-3.5 16t-11 15.5q-20 19 -42.5 19t-40.5 -12t-26.5 -33.5t1.5 -46.5q6 -13 17 -25t24 -23t26.5 -20.5t24.5 -17.5q27 -20 53.5 -38.5t51.5 -40.5l1 -1v0z
" />
    <glyph glyph-name="ampersand.alt1" horiz-adv-x="873" 
d="M124 25q6 -2 9 -2q2 -1 4 -1q-18 -4 -32.5 -6.5t-28 -4t-27.5 -2t-32 -0.5l11 5q19 10 26 32q6 18 10.5 32t8.5 27t8.5 27t10.5 32q-9 7 -18 13.5t-12 7.5h3v57q22 1 47 -16q4 12 7 22t5.5 19.5t5.5 20t7 23.5q2 5 -1 10.5t-8 7.5q23 4 38 8t38 10q-10 -10 -6 -19
q13 -34 23.5 -61t20 -52t19.5 -51t22 -59q12 -25 39 -28q-5 -2 -11.5 -4t-12.5 -5q-3 -1 -7.5 -2t-7.5 -2q-10 -5 -17 -7t-17 -5q-2 -1 -7 -1q-8 -4 -21.5 -7.5t-19.5 -5.5q3 1 7 4q8 6 14 12q5 5 8 13t1 15q-5 11 -7.5 19.5t-7.5 19.5q-24 -3 -44.5 2t-37.5 12
q-4 -12 -7 -21.5t-6 -18.5t-6 -18.5t-6 -21.5q-3 -10 1.5 -19t13.5 -11zM167 248q-5 -14 -8 -24.5t-8 -26.5q9 -5 19.5 -9.5t21.5 -7.5q-8 21 -12.5 34.5t-12.5 33.5zM474 138q15 9 20.5 21.5t5.5 16.5q0 7 -0.5 13t-0.5 11q0 16 -8.5 33t-21.5 32.5t-29.5 27t-32.5 16.5
v-167q0 -6 6.5 -14t21.5 -6q-1 0 -16.5 -6.5t-34.5 -14t-34.5 -14t-16.5 -7.5q15 10 22 25t7 21v246q0 7 -7 14t-21 6q4 1 8 2.5t14 5.5t28.5 11.5t51.5 20.5q-14 -9 -21.5 -20t-7.5 -17v-17q22 -3 44 -12.5t44 -27.5v91q0 6 -3.5 13t-18.5 5q1 1 17.5 7t36 12.5t35.5 12.5
t17 7q-14 -8 -18.5 -19t-4.5 -17v-205v-49q1 -5 5.5 -13.5t19.5 -6.5q-1 0 -17.5 -6t-36 -13t-36 -13t-17.5 -6zM722 524q9 1 20.5 -0.5t23.5 -8t23 -19t17 -34.5q14 -41 12.5 -91t-20.5 -92q-30 -60 -90 -71q-17 -3 -27.5 -5.5t-27.5 -6.5q-13 -4 -20.5 -6.5t-18.5 -5.5
q-9 -3 -16 -5t-9 -3q16 9 21 20.5t5 16.5v5v243v5q0 6 -5 15t-21 7q2 2 9 4t16 4q17 6 27.5 9t27.5 6l7.5 3t5.5 2q13 2 20.5 3.5t19.5 4.5zM755 318q9 30 8 63t-12 61q-3 14 -10 19t-21 4q-2 0 -18.5 -4t-28.5 -7v-199q6 2 12.5 3t12.5 3t13 3q19 3 29 20.5t15 33.5z
M802 130q11 -19 12 -40.5t-6 -41t-21 -35.5t-34 -23q-16 -5 -35 -3t-34 10.5t-22 23t2 35.5q4 13 11.5 18.5t13.5 7.5q8 2 9 2h3q-1 -1 -3 -1q-2 -1 -4 -1t-4 -2q-12 -6 -18 -25q-4 -17 2.5 -27t18 -15t25.5 -4.5t25 5.5q11 6 20 17t13.5 24.5t4 27t-8.5 25.5
q-14 20 -39.5 21t-54 -7.5t-55 -21.5t-42.5 -20q-54 -25 -111.5 -54t-117 -50.5t-121 -30.5t-124.5 7q-11 3 -19.5 5.5t-13.5 5.5q-6 1 -9 3q-2 1 -3 1h3q1 0 9 -2q7 -1 15 -1.5t19 -2.5q24 -3 53 0q55 4 106 21.5t100.5 41t98 50t97.5 48.5q21 9 47 20.5t53.5 19.5
t54.5 9.5t51 -9.5q20 -11 33 -32zM58 418q-11 18 -12.5 39.5t5.5 41.5t21.5 35.5t34.5 23.5q10 3 20.5 4t21.5 0q12 -2 23 -8t18 -16t9 -22t-3 -25q-4 -12 -11.5 -18t-13.5 -7q-5 -2 -9 -2q-2 0 -3 1h3q2 0 3.5 0.5l4.5 1.5q13 6 17 27q4 16 -2 26t-17.5 14.5t-25.5 4
t-25 -5.5q-14 -6 -24 -21.5t-12.5 -33t3.5 -33t23 -22.5q17 -9 39.5 -2.5t40.5 11.5q57 16 110.5 41.5t107 52t108 48t114.5 29.5q38 4 72 1q16 0 29.5 -3t24.5 -5q11 -3 19 -5t14 -5q2 -2 4.5 -2t4.5 -1t3 -1h-4h-4.5t-5.5 1q-5 1 -13 2t-20 2q-29 4 -59.5 0.5t-59.5 -10.5
q-66 -15 -125 -44.5t-119 -60.5q-52 -26 -104.5 -51.5t-109.5 -36.5q-32 -7 -64.5 -1.5t-51.5 35.5z" />
    <glyph glyph-name="B.ss03" horiz-adv-x="875" 
d="M870 227q32 -97 25 -196.5t-55 -190.5q-54 -106 -146.5 -179t-209.5 -100q-62 -14 -123 -14q-86 0 -167.5 26.5t-152.5 79.5l-4 4t-5 4q-60 45 -99 115t-49 150q-9 75 9.5 143.5t63.5 122.5q52 62 126.5 93t157.5 24v410q2 18 -7 30.5t-20 20.5q-13 10 -29 16h230
q-16 -5 -28 -14q-11 -8 -19.5 -20.5t-8.5 -32.5v-291q38 9 69.5 27.5t54.5 45t36 59.5t13 69q0 61 -39 114q-32 45 -84.5 70t-107.5 22q-25 -1 -51 -5.5t-50.5 -13.5t-46 -24t-37.5 -36q-27 -35 -31 -79t12 -84q2 -5 6 -5.5t8 2.5q6 7 13.5 9t15 0t13.5 -9t7 -18
q2 -12 -3.5 -21.5t-15 -14.5t-20.5 -5t-20 8q-4 2 -16 17.5t-29 38.5t-37 51t-39.5 55.5t-37 52.5t-28.5 42q2 -3 10 -3.5t17.5 0.5t18 2.5t11.5 2.5q26 2 47 14q17 10 32.5 22t30.5 26q45 39 104 63t119 29q22 2 43.5 0t44.5 -9q54 -13 101.5 -42.5t82 -70.5t54.5 -92.5
t20 -108.5q0 -26 -4 -49.5t-12 -46.5l-9 -15q89 -48 151.5 -122.5t93.5 -168.5zM737 -107q35 70 41 146t-19 151q-25 74 -74 132t-120 95q-38 -43 -91 -71.5t-115 -38.5v-29q48 -23 86.5 -60t62.5 -85q8 -15 19.5 -29.5t22.5 -23.5l-124 -73q-1 17 -6 36t-16 37
q-8 17 -19.5 31.5t-25.5 28.5v-190q-2 -19 7 -31.5t20 -20.5q12 -10 29 -16h-230q16 5 28 15q11 8 19.5 20.5t8.5 32.5v242h-4q-56 6 -106 -14t-85 -62q-29 -35 -40.5 -80t-6.5 -96q8 -57 34.5 -106t69.5 -80q5 -5 9 -7q75 -56 165 -74.5t181 2.5t163.5 78t115.5 140z" />
    <glyph glyph-name="S.ss03" horiz-adv-x="927" 
d="M985 854q-71 -78 -141.5 -156.5t-141.5 -156.5l-75 -83q3 3 16.5 -5t29 -19.5t29.5 -22t17 -13.5q63 -48 106.5 -114t65 -141t19 -153.5t-31.5 -151.5q-20 -50 -51.5 -94.5t-71.5 -80.5t-87 -62.5t-98 -42.5q-72 -22 -150 -22t-151 21.5t-134.5 66.5t-101.5 113
q-30 52 -42 109.5t-6.5 115.5t28 112t60.5 98q24 28 59 49.5t74 33.5t79 14t76 -10q46 -15 79.5 -44t53.5 -68q8 -17 16 -31.5t24 -22.5l-177 -65q14 32 3.5 55.5t-33.5 34.5q-29 14 -63.5 9t-59.5 -26q-30 -26 -49 -62t-25.5 -75t0 -79.5t27.5 -75.5q33 -56 87 -86.5
t116.5 -39.5t126.5 3t116 42q48 29 85 71.5t57 91.5q24 59 24 117.5t-19 112.5t-56 100.5t-88 81.5q-17 11 -34.5 21.5t-35.5 20.5q-14 -20 -25.5 -40.5t-19 -38t-9 -31t5.5 -19.5v3q0 15 11 25.5t26 10.5q12 0 20.5 -7t11.5 -16.5t1 -20t-11 -19.5q-10 -10 -24.5 -11
t-28.5 4.5t-24.5 15.5t-13.5 23q-5 25 2.5 51t18.5 49q3 8 10 18t15 23q-6 3 -11.5 5.5t-11.5 6.5q-44 23 -87.5 48.5t-85.5 57.5q-46 35 -71.5 69.5t-37 67.5t-11.5 62.5t6 53.5q9 37 29 68t46.5 55t56.5 41.5t59 27.5q60 23 125.5 26.5t128.5 -14.5q32 -9 60.5 -23l57 -28
t58.5 -24.5t64 -11.5q10 -1 27.5 -1.5t36 0.5t34.5 5t23 12q-3 -5 -6.5 -8t-6.5 -7zM591 479q11 13 26.5 32t33 41t36.5 45.5t37 45.5q15 20 15 43.5t-16 42.5q-16 18 -39 36.5t-56 30.5q-16 6 -40.5 9t-52 3t-55 -3.5t-49.5 -10.5q-16 -6 -32.5 -15t-30 -21t-23.5 -26
t-13 -29q-1 -5 -2 -14t4 -22.5t18.5 -31t40.5 -38.5q35 -27 74 -49t81 -45q11 -6 21.5 -12t21.5 -12z" />
    <glyph glyph-name="T.ss03" horiz-adv-x="319" 
d="M1065 1027q42 -54 55.5 -119t-3.5 -131q-8 -32 -11 -54.5t1 -45.5l-131 109q20 7 23 20q10 38 2 76.5t-33 70.5q-19 25 -52.5 46.5t-81 33t-109 9.5t-135.5 -24q-90 -27 -175 -62.5t-169 -77.5q-15 -17 -15 -33v-563v-340q0 -13 10 -30t37 -24h-222q30 8 39 26t9 31v860
q-53 -28 -108 -56t-111.5 -49t-115.5 -33t-121 -8h-4q-75 5 -143.5 33.5t-123.5 74t-93 105t-53 128.5q-10 49 -6 102t20 104.5t43.5 98t64.5 81.5q15 14 30 25t30.5 22t30 22.5t28.5 26.5l63 -139q-53 -2 -98 -45q-25 -24 -44.5 -57.5t-31 -70t-15 -74.5t3.5 -71
q10 -49 38 -92t68.5 -75.5t90.5 -53t105 -24.5q58 -4 114.5 10t111 37t106.5 51.5t102 54.5q115 58 230 111t239 90q66 20 134 26t129 -2q80 -10 142.5 -43.5t104.5 -87.5z" />
    <glyph glyph-name="k.ss03" horiz-adv-x="408" 
d="M506 -105q14 18 30.5 19t30 -9t20.5 -28t1 -38q-9 -27 -32.5 -44.5t-52 -22.5t-57 2.5t-47.5 30.5l-233 425q-23 -25 -27 -37.5t-4 -13.5v-129q0 -5 2 -12.5t6.5 -15.5t12.5 -14.5t21 -9.5h-171q20 5 29 16.5t12 21.5v428q-3 11 -12 23t-29 17h171q-13 -3 -21 -10
t-12.5 -15t-6.5 -15.5t-2 -11.5v-147q0 -3 1 -3l105 160q7 16 -4.5 26.5t-27.5 15.5h177q-11 -5 -20.5 -14t-16.5 -17q-8 -11 -14 -21l-90 -143l228 -435q13 -21 27.5 -31.5t38.5 2.5q1 3 0 4q-15 -2 -24 2t-13 11.5t-3 16t7 16.5z" />
    <glyph glyph-name="r.001" horiz-adv-x="430" 
d="M138 66q0 -2 2 -11t7 -19.5t13.5 -20.5t21.5 -13h-176q13 4 21 14t13 20.5t7 19t2 10.5v376q0 2 -1 10t-5.5 18t-12.5 19t-23 14h214q29 0 51 -14t36 -36t19 -49.5t0.5 -53t-20 -47t-41.5 -32.5q-3 -2 -6 -2.5t-5 -1.5l100 -188q25 -46 68 -76l1 -1h-158q12 40 -10 78
l-99 166l-18 -4zM139 313q8 2 23.5 5.5t29.5 7.5q25 7 44 20l10 8t9 10t4.5 15t-1.5 18t-6.5 16.5t-10.5 11.5q-4 2 -7 3l-6 2q-4 1 -6 1h-83v-118z" />
    <glyph glyph-name="H.ss03" horiz-adv-x="898" 
d="M659 -255q15 4 25 12t15.5 17t7.5 18t2 16v548l-4 -5q-35 -49 -74.5 -94t-77.5 -93q-41 -48 -87 -79.5t-94 -51.5v-267q0 -61 -19.5 -117.5t-54.5 -100t-84.5 -69.5t-109.5 -26q-56 0 -108 23.5t-87 68.5q-5 5 -12.5 10.5t-18.5 8.5l120 104q1 -8 7.5 -21.5t8.5 -16.5
q12 -16 29 -26t35.5 -14.5t38 -2t36.5 11.5q21 12 37 31.5t26 42t15 47t5 46.5v241h-4q-48 0 -92.5 11.5t-86.5 36.5q-14 10 -32 8l84 130q2 -5 6.5 -12.5t9.5 -10.5q26 -14 55 -22.5t60 -7.5v591q0 5 -2 13.5t-7 17.5t-14.5 17.5t-25.5 12.5h232q-24 -6 -35.5 -23.5
t-11.5 -30.5v-554q19 12 38 28t39 39q20 22 40.5 47t49.5 60.5t69.5 85t100.5 121.5v166q0 5 -2.5 13.5t-7.5 17.5t-15 17.5t-25 12.5h230q-23 -6 -34.5 -23.5t-10.5 -30.5v-934q0 -6 2 -14.5t7.5 -17t15 -16t23.5 -11.5h-233v0z" />
    <glyph glyph-name="j.ss03" horiz-adv-x="284" 
d="M281 504l-7.5 -7.5l-24.5 -24.5v-441q0 -17 -8 -42t-25 -48.5t-44.5 -40.5t-66.5 -17q-21 0 -47 5t-49 20.5t-38.5 44t-15.5 74.5q0 30 19.5 59.5t47 46.5t56.5 14.5t48 -35.5q12 -21 9 -35t-13 -20.5t-24 -7t-24.5 5t-15 16.5t5.5 27q0 -1 -5 0t-14 -7t-12 -21t-1.5 -27
t6.5 -27t13 -20q15 -13 32 -15t31.5 5t24.5 21t10 32v106v327l-33 32h165z" />
    <glyph glyph-name="x.ss03" horiz-adv-x="453" 
d="M481 -59q13 17 29.5 18t29.5 -8.5t19 -26.5t0 -36q-8 -26 -29.5 -42t-47.5 -21q-34 -7 -65.5 8t-48.5 45l-85 157l-58 115l-50 -95q-8 -15 -5 -30.5t14 -26.5h-178l23 14q14 10 26 22t20 27l98 187l-104 196q-8 16 -18.5 27t-20.5 19q-11 9 -24 14h170q-21 -24 -6 -53
l55 -103l57 103q6 14 4.5 28t-11.5 25h170q-13 -5 -24 -14q-10 -8 -20.5 -19t-18.5 -27l-103 -196l95 -181l76 -144q13 -21 26.5 -31.5t36.5 3.5q2 1 0 3q-14 -2 -23 2t-12.5 11t-2.5 15t6 15z" />
    <glyph glyph-name="y.ss03" horiz-adv-x="409" 
d="M406 505q-14 -6 -22.5 -10.5t-14.5 -10.5t-10.5 -13.5t-10.5 -18.5l-99 -180l-6 -14l-1 -292q1 -35 -19 -63t-53 -39q-25 -9 -51 -5.5t-45 20.5q-15 13 -18 31.5t3 33t20.5 21.5t34.5 -1q16 -6 17.5 -24t-23.5 -30v-1q0 -1 2 -1q26 1 32 16.5t6 39.5v296l-7 12l-98 182
q-6 10 -9.5 17t-8 12.5t-11.5 9.5t-20 9h160q-17 -22 -4 -47l46 -84l45 84q13 25 -1 50h166z" />
    <glyph glyph-name="ampersand.ss03" horiz-adv-x="974" 
d="M106 694q-22 34 -42 61t-49 41q-39 20 -87 1q-34 -14 -63 -42t-43 -61q-1 -3 -2 -5.5t-2 -4.5q-17 -50 -2 -99.5t54 -83.5l8 -7l-128 -73l-14 47q-2 5 -4 10.5t-4 10.5q-29 58 -32 123t22 125q23 55 68 99t101 66q46 17 90.5 16t86.5 -21q25 -12 44.5 -28t36 -34.5
t30 -38.5t25.5 -39q-11 -14 -19 -28.5t-14 -27.5q-7 -16 -12.5 -31.5t-10.5 -31.5q-11 14 -20 28zM938 694q30 -17 53 -44t38.5 -60t22.5 -70t3 -74q-6 -63 -45 -114.5t-101 -78.5q-42 -18 -85 -22t-82 -5q-10 -1 -19 -1t-19 -1q23 -63 19.5 -129t-33.5 -129
q-19 -41 -47.5 -76t-63.5 -63t-75.5 -47.5t-83.5 -29.5q-42 -9 -84 -9q-46 0 -86 10q-55 15 -101 49t-78.5 81t-48 102t-9.5 112q12 118 108 226q18 20 38.5 40t46.5 37q-56 65 -53 161q0 6 1 9q3 57 22 108q11 26 26.5 48t33.5 43q13 14 26 28.5t28 26.5q52 45 112 53
t113 -21l5 -3q24 -14 42.5 -36t30.5 -48.5t17.5 -56t2.5 -59.5q-6 -51 -35 -89t-75 -54q-27 -9 -55 -11t-54.5 1.5t-51 10.5t-45.5 16q-11 28 -5.5 61t27.5 53q37 -18 76.5 -26.5t70.5 2.5t35 48q2 27 -9 53.5t-30 37.5l-2 2q-15 8 -30 8t-28 -4.5t-23.5 -11.5t-16.5 -12
q-2 -2 -4 -3.5t-4 -3.5q-35 -32 -60.5 -75.5t-27.5 -92.5q0 -18 3.5 -36.5t11.5 -34t21 -27.5t31 -18v-116q-40 -6 -67.5 -26t-59.5 -57q-12 -14 -25.5 -31.5t-25 -38.5t-19.5 -44.5t-11 -48.5q-4 -36 6.5 -72t31.5 -66.5t51 -53t65 -31.5q54 -14 117 0q62 14 113.5 55
t78.5 99q21 44 23 89t-15 87q-32 -26 -43.5 -67.5t1.5 -82.5l4 -13h-155l15 35q5 11 7 21.5t4 21.5q5 40 23 77t45.5 67.5t63 51.5t74.5 29q26 5 51.5 6t51.5 2q35 2 67 4.5t59 14.5q34 14 55 41t24 60q2 21 -1.5 41.5t-12 39.5t-21 34t-27.5 24q-19 11 -37.5 9.5
t-29.5 -5.5q-20 -7 -35.5 -21t-23.5 -32q-1 -1 -1 -6q1 -15 11.5 -25t24.5 -12l23 -3l-119 -118l-4 13q-5 19 -11.5 36.5t-17.5 34.5q-17 27 -20 59.5t10 63.5q16 40 49.5 71t77.5 46q42 14 83.5 10t76.5 -24z" />
    <glyph glyph-name="a.ss03" horiz-adv-x="540" 
d="M568 -53q12 14 25.5 15t24 -7t16 -23t0.5 -31q-7 -21 -24.5 -33.5t-40.5 -17.5q-10 -2 -18 -2q-34 -1 -62.5 18.5t-41.5 51.5l-85 212q-39 7 -72.5 22.5t-62.5 35.5l-38 -126q-5 -16 1.5 -30t20.5 -22q20 -8 20 -10h-194q0 2 4.5 3.5t12.5 5.5q16 7 27 19.5t17 29.5
l60 187q-14 13 -29.5 25t-23.5 14h2v93q23 0 42 -10.5t40 -27.5l40 132q3 9 0 18t-11 14h125q-16 -11 -11 -29l189 -528q4 -10 10 -19t14 -15q12 -8 25 -10t26 5q2 1 0 3q-12 -2 -19.5 1.5t-11 9.5t-3 13t5.5 13zM258 281q16 -11 32 -22.5t34 -19.5l-42 118z" />
    </font>
</defs>
</svg>
